<svg width="674" height="645" viewBox="0 0 674 645" fill="none" xmlns="http://www.w3.org/2000/svg">
<path d="M453.496 494.777C454.605 494.777 455.53 493.985 455.737 492.926H543.754L582.623 531.794L582.745 531.916H699.946C700.154 532.963 701.067 533.767 702.188 533.767C703.442 533.767 704.465 532.744 704.465 531.49C704.465 530.235 703.442 529.212 702.188 529.212C701.079 529.212 700.154 530.004 699.946 531.063H583.11L544.242 492.195L544.12 492.073H455.75C455.542 491.026 454.629 490.222 453.508 490.222C452.254 490.222 451.23 491.245 451.23 492.499C451.23 493.754 452.241 494.777 453.496 494.777Z" fill="#2C395D"/>
<path d="M453.496 487.895C454.605 487.895 455.53 487.103 455.737 486.043H543.754L582.623 524.912L582.745 525.034H699.946C700.154 526.081 701.067 526.885 702.188 526.885C703.442 526.885 704.465 525.862 704.465 524.607C704.465 523.353 703.442 522.33 702.188 522.33C701.079 522.33 700.154 523.121 699.946 524.181H583.11L544.242 485.313L544.12 485.191H455.75C455.542 484.143 454.629 483.339 453.508 483.339C452.254 483.339 451.23 484.363 451.23 485.617C451.23 486.872 452.241 487.895 453.496 487.895Z" fill="#2C395D"/>
<path d="M123.907 481.012C125.015 481.012 125.941 480.221 126.148 479.161H577.671L616.539 518.029L616.661 518.151H699.952C700.159 519.199 701.073 520.002 702.193 520.002C703.448 520.002 704.471 518.979 704.471 517.725C704.471 516.47 703.448 515.447 702.193 515.447C701.085 515.447 700.159 516.239 699.952 517.298H617.027L578.158 478.43L578.036 478.308H126.136C125.929 477.261 125.015 476.457 123.894 476.457C122.64 476.457 121.617 477.48 121.617 478.735C121.617 479.989 122.64 481.012 123.907 481.012Z" fill="#2C395D"/>
<path d="M284.293 474.13C285.402 474.13 286.328 473.338 286.535 472.279H577.676L616.544 511.147L616.666 511.269H699.957C700.164 512.316 701.077 513.12 702.198 513.12C703.453 513.12 704.476 512.097 704.476 510.843C704.476 509.588 703.453 508.565 702.198 508.565C701.09 508.565 700.164 509.357 699.957 510.416H617.031L578.163 471.548L578.041 471.426H286.535C286.328 470.379 285.414 469.575 284.293 469.575C283.039 469.575 282.016 470.598 282.016 471.852C282.016 473.107 283.039 474.13 284.293 474.13Z" fill="#2C395D"/>
<path d="M339.81 264.21C340.918 264.21 341.844 263.419 342.051 262.359H469.716L491.239 283.882L491.361 284.004H524.699L559.962 319.267L560.084 319.389H632.754L653.741 298.401H699.942C700.149 299.449 701.063 300.253 702.183 300.253C703.438 300.253 704.461 299.23 704.461 297.975C704.461 296.72 703.438 295.697 702.183 295.697C701.075 295.697 700.149 296.489 699.942 297.549H653.375L632.388 318.536H560.437L525.175 283.273L525.053 283.151H491.714L470.191 261.628L470.069 261.506H342.039C341.832 260.459 340.918 259.655 339.798 259.655C338.543 259.655 337.52 260.678 337.52 261.933C337.52 263.187 338.543 264.21 339.81 264.21Z" fill="#2C395D"/>
<path d="M378.778 257.9C379.887 257.9 380.812 257.109 381.019 256.049H469.719L491.242 277.572L491.364 277.694H524.702L559.965 312.957L560.087 313.078H632.756L653.743 292.091H699.944C700.152 293.139 701.065 293.943 702.186 293.943C703.44 293.943 704.463 292.919 704.463 291.665C704.463 290.41 703.44 289.387 702.186 289.387C701.077 289.387 700.152 290.179 699.944 291.239H653.378L632.391 312.226H560.44L525.177 276.951L525.055 276.829H491.717L470.194 255.306L470.072 255.184H381.007C380.8 254.136 379.887 253.333 378.766 253.333C377.511 253.333 376.488 254.356 376.488 255.61C376.488 256.865 377.511 257.9 378.778 257.9Z" fill="#2C395D"/>
<path d="M35.7963 197.922C36.9048 197.922 37.8305 197.131 38.0376 196.071H516.431L549.55 229.19L549.672 229.312H630.271C630.478 230.359 631.392 231.163 632.512 231.163C633.767 231.163 634.79 230.14 634.79 228.885C634.79 227.631 633.767 226.608 632.512 226.608C631.404 226.608 630.478 227.399 630.271 228.459H550.037L516.918 195.34L516.797 195.218H38.0376C37.8305 194.171 36.9169 193.367 35.7963 193.367C34.5417 193.367 33.5186 194.39 33.5186 195.644C33.5186 196.899 34.5417 197.922 35.7963 197.922Z" fill="#2C395D"/>
<path d="M163.809 350.862C164.917 350.862 165.843 350.07 166.05 349.011H344.204L390.161 394.968L390.283 395.09H571.543L603.919 427.466L604.041 427.588H704.921C705.128 428.635 706.041 429.439 707.162 429.439C708.416 429.439 709.44 428.416 709.44 427.162C709.44 425.907 708.416 424.884 707.162 424.884C706.053 424.884 705.128 425.676 704.921 426.735H604.394L572.018 394.359L571.896 394.237H390.649L344.691 348.28L344.569 348.158H166.05C165.843 347.111 164.93 346.307 163.809 346.307C162.554 346.307 161.531 347.33 161.531 348.584C161.531 349.839 162.554 350.862 163.809 350.862Z" fill="#2C395D"/>
<path d="M135.743 358.39C136.852 358.39 137.777 357.598 137.984 356.539H344.202L390.16 402.496L390.281 402.618H571.541L603.917 434.994L604.039 435.116H704.919C705.126 436.163 706.039 436.967 707.16 436.967C708.415 436.967 709.438 435.944 709.438 434.689C709.438 433.435 708.415 432.412 707.16 432.412C706.052 432.412 705.126 433.203 704.919 434.263H604.392L572.016 401.887L571.894 401.765H390.647L344.689 355.808L344.568 355.686H137.984C137.777 354.638 136.864 353.834 135.743 353.834C134.489 353.834 133.465 354.858 133.465 356.112C133.465 357.367 134.489 358.39 135.743 358.39Z" fill="#2C395D"/>
<path d="M226.176 365.906C227.284 365.906 228.21 365.114 228.417 364.054H344.206L390.163 410.012L390.285 410.133H571.545L603.921 442.51L604.043 442.631H704.923C705.13 443.679 706.043 444.483 707.164 444.483C708.419 444.483 709.442 443.46 709.442 442.205C709.442 440.95 708.419 439.927 707.164 439.927C706.056 439.927 705.13 440.719 704.923 441.779H604.408L572.032 409.403L571.91 409.281H390.651L344.693 363.323L344.571 363.202H228.429C228.222 362.154 227.309 361.35 226.188 361.35C224.933 361.35 223.91 362.373 223.91 363.628C223.898 364.895 224.921 365.906 226.176 365.906Z" fill="#2C395D"/>
<path d="M484.205 337.146C484.997 337.938 486.203 338.023 487.092 337.426L503.292 353.627L503.414 353.748H596.729L625.671 382.69L625.792 382.811H669.606C669.813 383.859 670.727 384.663 671.847 384.663C673.102 384.663 674.125 383.64 674.125 382.385C674.125 381.13 673.102 380.107 671.847 380.107C670.739 380.107 669.813 380.899 669.606 381.959H626.158L597.217 353.018L597.095 352.896H503.779L487.701 336.817C488.298 335.928 488.212 334.71 487.421 333.931C486.531 333.041 485.082 333.041 484.193 333.931C483.304 334.808 483.304 336.257 484.205 337.146Z" fill="#2C395D"/>
<path d="M634.68 373.871C635.789 373.871 636.714 373.079 636.921 372.019H691.369C691.576 373.067 692.489 373.871 693.61 373.871C694.865 373.871 695.888 372.847 695.888 371.593C695.888 370.338 694.865 369.315 693.61 369.315C692.501 369.315 691.576 370.107 691.369 371.167H636.921C636.714 370.119 635.801 369.315 634.68 369.315C633.426 369.315 632.402 370.338 632.402 371.593C632.402 372.847 633.426 373.871 634.68 373.871Z" fill="#2C395D"/>
<path d="M634.68 366.673C635.789 366.673 636.714 365.881 636.921 364.822H691.369C691.576 365.869 692.489 366.673 693.61 366.673C694.865 366.673 695.888 365.65 695.888 364.395C695.888 363.141 694.865 362.118 693.61 362.118C692.501 362.118 691.576 362.909 691.369 363.969H636.921C636.714 362.921 635.801 362.118 634.68 362.118C633.426 362.118 632.402 363.141 632.402 364.395C632.402 365.65 633.426 366.673 634.68 366.673Z" fill="#2C395D"/>
<path d="M634.68 359.462C635.789 359.462 636.714 358.671 636.921 357.611H691.369C691.576 358.658 692.489 359.462 693.61 359.462C694.865 359.462 695.888 358.439 695.888 357.185C695.888 355.93 694.865 354.907 693.61 354.907C692.501 354.907 691.576 355.699 691.369 356.758H636.921C636.714 355.711 635.801 354.907 634.68 354.907C633.426 354.907 632.402 355.93 632.402 357.185C632.402 358.439 633.426 359.462 634.68 359.462Z" fill="#2C395D"/>
<path d="M226.176 520.125C227.284 520.125 228.21 519.333 228.417 518.273H299.954L325.375 543.694L325.496 543.816H386.984L459.301 616.132C458.704 617.022 458.789 618.24 459.581 619.019C460.47 619.908 461.919 619.908 462.809 619.019C463.698 618.13 463.698 616.681 462.809 615.791C462.017 615 460.811 614.914 459.922 615.511L387.484 543.073L387.362 542.951H325.874L300.453 517.53L300.331 517.409H228.429C228.222 516.361 227.309 515.557 226.188 515.557C224.933 515.557 223.91 516.58 223.91 517.835C223.91 519.09 224.921 520.125 226.176 520.125Z" fill="#2C395D"/>
<path d="M59.7182 529.004C60.8266 529.004 61.7524 528.212 61.9594 527.152H299.956L325.377 552.573L325.499 552.695H386.987L459.303 625.011C458.706 625.901 458.792 627.119 459.583 627.898C460.473 628.787 461.922 628.787 462.811 627.898C463.7 627.009 463.7 625.559 462.811 624.67C462.019 623.879 460.814 623.793 459.924 624.39L387.486 551.952L387.364 551.83H325.877L300.456 526.409L300.334 526.288H61.9594C61.7524 525.24 60.8388 524.436 59.7182 524.436C58.4636 524.436 57.4404 525.459 57.4404 526.714C57.4404 527.981 58.4636 529.004 59.7182 529.004Z" fill="#2C395D"/>
<path d="M333.911 534.754C335.019 534.754 335.945 533.962 336.152 532.902H434.34L475.449 574.012L475.571 574.134H561.371C561.578 575.181 562.492 575.985 563.613 575.985C564.867 575.985 565.89 574.962 565.89 573.707C565.89 572.453 564.867 571.43 563.613 571.43C562.504 571.43 561.578 572.221 561.371 573.281H475.924L434.815 532.171L434.693 532.05H336.152C335.945 531.002 335.031 530.198 333.911 530.198C332.656 530.198 331.633 531.221 331.633 532.476C331.633 533.731 332.644 534.754 333.911 534.754Z" fill="#2C395D"/>
<path d="M462.528 537.056C463.636 537.056 464.562 536.264 464.769 535.204H543.261L561.447 553.39L561.568 553.512H696.919C697.126 554.559 698.04 555.363 699.161 555.363C700.415 555.363 701.438 554.34 701.438 553.085C701.438 551.831 700.415 550.807 699.161 550.807C698.052 550.807 697.126 551.599 696.919 552.659H561.922L543.736 534.473L543.614 534.351H464.769C464.562 533.304 463.648 532.5 462.528 532.5C461.273 532.5 460.25 533.523 460.25 534.778C460.25 536.032 461.261 537.056 462.528 537.056Z" fill="#2C395D"/>
<path d="M593.031 598.604C593.921 599.493 595.37 599.493 596.259 598.604C597.051 597.812 597.136 596.606 596.54 595.717L614.372 577.885H700.221V577.02H614.007L595.918 595.108C595.029 594.511 593.811 594.597 593.031 595.388C592.13 596.265 592.13 597.715 593.031 598.604Z" fill="#2C395D"/>
<path d="M574.553 604.707C575.442 605.596 576.892 605.596 577.781 604.707C578.573 603.915 578.658 602.709 578.061 601.82L608.086 571.795H700.208V570.93H607.721L577.44 601.211C576.551 600.614 575.333 600.699 574.553 601.491C573.664 602.368 573.664 603.817 574.553 604.707Z" fill="#2C395D"/>
<path d="M566.218 264.235C566.998 265.014 568.216 265.112 569.105 264.515L582.686 278.096H697.525C697.732 279.144 698.646 279.948 699.766 279.948C701.021 279.948 702.044 278.924 702.044 277.67C702.044 276.415 701.021 275.392 699.766 275.392C698.658 275.392 697.732 276.184 697.525 277.244H583.052L569.726 263.918C570.323 263.029 570.238 261.811 569.446 261.031C568.557 260.142 567.107 260.142 566.218 261.031C565.329 261.908 565.329 263.345 566.218 264.235Z" fill="#2C395D"/>
<path d="M494.253 252.516C495.362 252.516 496.288 251.724 496.495 250.664H566.046L582.575 267.193L582.697 267.315H697.536C697.743 268.363 698.656 269.167 699.777 269.167C701.031 269.167 702.055 268.144 702.055 266.889C702.055 265.634 701.031 264.611 699.777 264.611C698.668 264.611 697.743 265.403 697.536 266.463H583.062L566.533 249.934L566.411 249.812H496.507C496.3 248.764 495.386 247.96 494.266 247.96C493.011 247.96 491.988 248.983 491.988 250.238C491.988 251.493 492.999 252.516 494.253 252.516Z" fill="#2C395D"/>
<path d="M88.8832 216.169C89.9917 216.169 90.9174 215.377 91.1245 214.317H316.758L333.47 231.029L333.592 231.151H474.314C474.521 232.199 475.435 233.002 476.556 233.002C477.81 233.002 478.833 231.979 478.833 230.725C478.833 229.47 477.81 228.447 476.556 228.447C475.447 228.447 474.521 229.239 474.314 230.298H333.945L317.233 213.587L317.111 213.465H91.1245C90.9174 212.417 90.0039 211.613 88.8832 211.613C87.6286 211.613 86.6055 212.636 86.6055 213.891C86.6055 215.146 87.6286 216.169 88.8832 216.169Z" fill="#2C395D"/>
<path d="M316.949 209.702C317.741 210.494 318.947 210.579 319.836 209.983L333.6 223.747H474.323C474.53 224.794 475.443 225.598 476.564 225.598C477.819 225.598 478.842 224.575 478.842 223.32C478.842 222.066 477.819 221.043 476.564 221.043C475.455 221.043 474.53 221.834 474.323 222.894H333.965L320.445 209.373C321.042 208.484 320.957 207.266 320.165 206.487C319.276 205.597 317.826 205.597 316.937 206.487C316.06 207.364 316.06 208.813 316.949 209.702Z" fill="#2C395D"/>
<path d="M35.7963 119.187C36.9048 119.187 37.8305 118.395 38.0376 117.335H471.058L487.77 134.047L487.892 134.169H518.49C518.697 135.217 519.61 136.02 520.731 136.02C521.985 136.02 523.009 134.997 523.009 133.743C523.009 132.488 521.985 131.465 520.731 131.465C519.622 131.465 518.697 132.257 518.49 133.316H488.245L471.533 116.605L471.412 116.483H38.0376C37.8305 115.435 36.9169 114.631 35.7963 114.631C34.5417 114.631 33.5186 115.655 33.5186 116.909C33.5186 118.164 34.5417 119.187 35.7963 119.187Z" fill="#2C395D"/>
<path d="M189.864 126.605C190.973 126.605 191.898 125.814 192.105 124.754H471.054L484.574 138.274C483.977 139.164 484.063 140.382 484.854 141.161C485.743 142.05 487.193 142.05 488.082 141.161C488.971 140.272 488.971 138.822 488.082 137.933C487.29 137.142 486.085 137.056 485.195 137.653L471.431 123.889H192.105C191.898 122.842 190.985 122.038 189.864 122.038C188.61 122.038 187.586 123.061 187.586 124.315C187.586 125.57 188.61 126.605 189.864 126.605Z" fill="#2C395D"/>
<path d="M651.986 489.247H640.792C640.585 488.199 639.671 487.395 638.55 487.395C637.296 487.395 636.273 488.419 636.273 489.673C636.273 490.928 637.296 491.951 638.55 491.951C639.659 491.951 640.585 491.159 640.792 490.099H651.986V496.738H640.792C640.585 495.69 639.671 494.887 638.55 494.887C637.296 494.887 636.273 495.91 636.273 497.164C636.273 498.419 637.296 499.442 638.55 499.442C639.659 499.442 640.585 498.65 640.792 497.591H651.986V499.186H668.49V480.111H651.986V481.707H640.792C640.585 480.66 639.671 479.856 638.55 479.856C637.296 479.856 636.273 480.879 636.273 482.133C636.273 483.388 637.296 484.411 638.55 484.411C639.659 484.411 640.585 483.619 640.792 482.56H651.986V489.247Z" fill="#2C395D"/>
<path d="M358.633 589.652V600.846H357.037V617.351H376.112V600.834H374.517V589.64C375.564 589.433 376.368 588.519 376.368 587.398C376.368 586.144 375.345 585.121 374.09 585.121C372.836 585.121 371.812 586.144 371.812 587.398C371.812 588.507 372.604 589.433 373.664 589.64V600.834H367.025V589.64C368.073 589.433 368.877 588.519 368.877 587.398C368.877 586.144 367.854 585.121 366.599 585.121C365.345 585.121 364.321 586.144 364.321 587.398C364.321 588.507 365.113 589.433 366.173 589.64V600.834H359.534V589.64C360.582 589.433 361.386 588.519 361.386 587.398C361.386 586.144 360.363 585.121 359.108 585.121C357.853 585.121 356.83 586.144 356.83 587.398C356.782 588.519 357.573 589.445 358.633 589.652Z" fill="#2C395D"/>
<path d="M323.707 589.652V600.846H322.112V617.35H341.186V600.834H339.591V589.64C340.638 589.432 341.442 588.519 341.442 587.398C341.442 586.144 340.419 585.12 339.164 585.12C337.91 585.12 336.887 586.144 336.887 587.398C336.887 588.507 337.678 589.432 338.738 589.64V600.834H332.1V589.64C333.147 589.432 333.951 588.519 333.951 587.398C333.951 586.144 332.928 585.12 331.673 585.12C330.419 585.12 329.396 586.144 329.396 587.398C329.396 588.507 330.187 589.432 331.247 589.64V600.834H324.609V589.64C325.656 589.432 326.46 588.519 326.46 587.398C326.46 586.144 325.437 585.12 324.182 585.12C322.928 585.12 321.904 586.144 321.904 587.398C321.856 588.519 322.648 589.445 323.707 589.652Z" fill="#2C395D"/>
<path d="M288.766 589.652V600.846H287.17V617.351H306.245V600.834H304.649V589.64C305.697 589.433 306.501 588.519 306.501 587.398C306.501 586.144 305.478 585.121 304.223 585.121C302.968 585.121 301.945 586.144 301.945 587.398C301.945 588.507 302.737 589.433 303.797 589.64V600.834H297.158V589.64C298.206 589.433 299.01 588.519 299.01 587.398C299.01 586.144 297.986 585.121 296.732 585.121C295.477 585.121 294.454 586.144 294.454 587.398C294.454 588.507 295.246 589.433 296.306 589.64V600.834H289.667V589.64C290.715 589.433 291.519 588.519 291.519 587.398C291.519 586.144 290.495 585.121 289.241 585.121C287.986 585.121 286.963 586.144 286.963 587.398C286.914 588.519 287.718 589.445 288.766 589.652Z" fill="#2C395D"/>
<path d="M253.831 589.652V600.846H252.235V617.35H271.31V600.834H269.714V589.64C270.762 589.432 271.566 588.519 271.566 587.398C271.566 586.144 270.543 585.12 269.288 585.12C268.033 585.12 267.01 586.144 267.01 587.398C267.01 588.507 267.802 589.432 268.862 589.64V600.834H262.223V589.64C263.271 589.432 264.075 588.519 264.075 587.398C264.075 586.144 263.052 585.12 261.797 585.12C260.542 585.12 259.519 586.144 259.519 587.398C259.519 588.507 260.311 589.432 261.371 589.64V600.834H254.732V589.64C255.78 589.432 256.584 588.519 256.584 587.398C256.584 586.144 255.56 585.12 254.306 585.12C253.051 585.12 252.028 586.144 252.028 587.398C251.992 588.519 252.783 589.445 253.831 589.652Z" fill="#2C395D"/>
<path d="M432.848 350.825V349.23H444.042C444.25 350.277 445.163 351.081 446.284 351.081C447.538 351.081 448.561 350.058 448.561 348.803C448.561 347.549 447.538 346.526 446.284 346.526C445.175 346.526 444.25 347.317 444.042 348.377H432.848V341.739H444.042C444.25 342.786 445.163 343.59 446.284 343.59C447.538 343.59 448.561 342.567 448.561 341.312C448.561 340.058 447.538 339.035 446.284 339.035C445.175 339.035 444.25 339.826 444.042 340.886H432.848V334.248H444.042C444.25 335.295 445.163 336.099 446.284 336.099C447.538 336.099 448.561 335.076 448.561 333.821C448.561 332.567 447.538 331.543 446.284 331.543C445.175 331.543 444.25 332.335 444.042 333.395H432.848V331.763H416.344V350.838H432.848V350.825Z" fill="#2C395D"/>
<path d="M388.178 340.862H376.984C376.777 339.814 375.863 339.011 374.743 339.011C373.488 339.011 372.465 340.034 372.465 341.288C372.465 342.543 373.488 343.566 374.743 343.566C375.851 343.566 376.777 342.774 376.984 341.715H388.178V348.353H376.984C376.777 347.306 375.863 346.502 374.743 346.502C373.488 346.502 372.465 347.525 372.465 348.779C372.465 350.034 373.488 351.057 374.743 351.057C375.851 351.057 376.777 350.265 376.984 349.206H388.178V350.801H404.683V331.763H388.178V333.359H376.984C376.777 332.311 375.863 331.507 374.743 331.507C373.488 331.507 372.465 332.53 372.465 333.785C372.465 335.04 373.488 336.063 374.743 336.063C375.851 336.063 376.777 335.271 376.984 334.211H388.178V340.862Z" fill="#2C395D"/>
<path d="M630.09 197.691C629.042 197.898 628.238 198.812 628.238 199.932C628.238 201.187 629.261 202.21 630.516 202.21C631.771 202.21 632.794 201.187 632.794 199.932C632.794 198.824 632.002 197.898 630.942 197.691V186.497H637.581V197.691C636.533 197.898 635.729 198.812 635.729 199.932C635.729 201.187 636.752 202.21 638.007 202.21C639.262 202.21 640.285 201.187 640.285 199.932C640.285 198.824 639.493 197.898 638.433 197.691V186.497H645.072V197.691C644.024 197.898 643.22 198.812 643.22 199.932C643.22 201.187 644.244 202.21 645.498 202.21C646.753 202.21 647.776 201.187 647.776 199.932C647.776 198.824 646.984 197.898 645.924 197.691V186.497H647.52V169.992H628.445V186.497H630.041V197.691H630.09Z" fill="#2C395D"/>
<path d="M400.332 27.6987C399.284 27.9058 398.48 28.8193 398.48 29.9399C398.48 31.1945 399.504 32.2177 400.758 32.2177C402.013 32.2177 403.036 31.1945 403.036 29.9399C403.036 28.8315 402.244 27.9058 401.185 27.6987V16.5047H407.823V27.6987C406.775 27.9058 405.972 28.8193 405.972 29.9399C405.972 31.1945 406.995 32.2177 408.249 32.2177C409.504 32.2177 410.527 31.1945 410.527 29.9399C410.527 28.8315 409.735 27.9058 408.676 27.6987V16.5047H415.314V27.6987C414.267 27.9058 413.463 28.8193 413.463 29.9399C413.463 31.1945 414.486 32.2177 415.74 32.2177C416.995 32.2177 418.018 31.1945 418.018 29.9399C418.018 28.8315 417.226 27.9058 416.167 27.6987V16.5047H417.762V0H398.688V16.5047H400.283V27.6987H400.332Z" fill="#2C395D"/>
<path d="M364.516 27.6987C363.469 27.9058 362.665 28.8193 362.665 29.9399C362.665 31.1945 363.688 32.2177 364.943 32.2177C366.197 32.2177 367.221 31.1945 367.221 29.9399C367.221 28.8315 366.429 27.9058 365.369 27.6987V16.5047H372.008V27.6987C370.96 27.9058 370.156 28.8193 370.156 29.9399C370.156 31.1945 371.179 32.2177 372.434 32.2177C373.688 32.2177 374.712 31.1945 374.712 29.9399C374.712 28.8315 373.92 27.9058 372.86 27.6987V16.5047H379.499V27.6987C378.451 27.9058 377.647 28.8193 377.647 29.9399C377.647 31.1945 378.67 32.2177 379.925 32.2177C381.18 32.2177 382.203 31.1945 382.203 29.9399C382.203 28.8315 381.411 27.9058 380.351 27.6987V16.5047H381.947V0H362.872V16.5047H364.468V27.6987H364.516Z" fill="#2C395D"/>
<path d="M620.348 590.26C621.457 590.26 622.382 589.469 622.589 588.409H651.981V595.047H640.787C640.58 594 639.667 593.196 638.546 593.196C637.291 593.196 636.268 594.219 636.268 595.474C636.268 596.728 637.291 597.751 638.546 597.751C639.654 597.751 640.58 596.96 640.787 595.9H651.981V602.538H622.589C622.382 601.491 621.469 600.687 620.348 600.687C619.093 600.687 618.07 601.71 618.07 602.965C618.07 604.219 619.093 605.242 620.348 605.242C621.457 605.242 622.382 604.451 622.589 603.391H651.981V604.987H693.882V585.912H651.981V587.507H622.589C622.382 586.46 621.469 585.656 620.348 585.656C619.093 585.656 618.07 586.679 618.07 587.934C618.07 589.188 619.093 590.26 620.348 590.26Z" fill="#2C395D"/>
<path d="M239.086 235.074C240.195 235.074 241.121 234.282 241.328 233.222H270.719V239.861H259.525C259.318 238.813 258.405 238.009 257.284 238.009C256.03 238.009 255.006 239.033 255.006 240.287C255.006 241.542 256.03 242.565 257.284 242.565C258.393 242.565 259.318 241.773 259.525 240.714H270.719V247.352H241.328C241.121 246.304 240.207 245.5 239.086 245.5C237.832 245.5 236.809 246.524 236.809 247.778C236.809 249.033 237.832 250.056 239.086 250.056C240.195 250.056 241.121 249.264 241.328 248.205H270.719V249.8H312.621V230.725H270.719V232.321H241.328C241.121 231.274 240.207 230.47 239.086 230.47C237.832 230.47 236.809 231.493 236.809 232.747C236.809 234.002 237.832 235.074 239.086 235.074Z" fill="#2C395D"/>
<path d="M474.023 599.896C477.494 599.896 480.405 597.484 481.197 594.244H562.052L592.442 563.853H699.924C700.704 567.093 703.627 569.505 707.099 569.505C711.167 569.505 714.48 566.192 714.48 562.123C714.48 558.055 711.167 554.742 707.099 554.742C703.627 554.742 700.716 557.154 699.924 560.394H591.005L560.615 590.784H481.197C480.417 587.544 477.494 585.133 474.023 585.133C469.954 585.133 466.641 588.446 466.641 592.514C466.641 596.582 469.954 599.896 474.023 599.896ZM707.099 556.459C710.217 556.459 712.75 558.993 712.75 562.111C712.75 565.229 710.217 567.763 707.099 567.763C703.98 567.763 701.447 565.229 701.447 562.111C701.447 558.993 703.98 556.459 707.099 556.459ZM474.023 586.862C477.141 586.862 479.674 589.396 479.674 592.514C479.674 595.632 477.141 598.166 474.023 598.166C470.904 598.166 468.371 595.632 468.371 592.514C468.371 589.396 470.904 586.862 474.023 586.862Z" fill="#2C395D"/>
<path d="M420.715 489.15C420.74 489.174 420.777 489.211 420.826 489.261C420.764 489.199 420.727 489.162 420.715 489.15Z" fill="#2C395D"/>
<path d="M420.726 489.153C420.696 489.123 420.696 489.123 420.726 489.153V489.153Z" fill="#2C395D"/>
<path d="M420.828 489.259C420.949 489.381 421.169 489.6 421.534 489.965C421.692 490.124 421.814 490.245 421.924 490.355C421.558 489.99 421.059 489.49 420.828 489.259Z" fill="#2C395D"/>
<path d="M422.336 490.769C422.366 490.799 422.366 490.799 422.336 490.769V490.769Z" fill="#2C395D"/>
<path d="M411.083 500.404C413.544 502.864 417.307 503.218 420.146 501.476L434.409 515.751H550.04L577.044 542.756H694.879C695.659 545.996 698.582 548.408 702.054 548.408C706.122 548.408 709.435 545.095 709.435 541.026C709.435 536.958 706.122 533.645 702.054 533.645C698.582 533.645 695.671 536.057 694.879 539.297H578.493L551.489 512.292H435.859L422.606 499.04C424.336 496.202 423.982 492.426 421.534 489.977C418.66 487.103 413.97 487.103 411.095 489.977C408.209 492.84 408.209 497.529 411.083 500.404ZM702.066 535.374C705.184 535.374 707.718 537.908 707.718 541.026C707.718 544.144 705.184 546.678 702.066 546.678C698.948 546.678 696.414 544.144 696.414 541.026C696.414 537.908 698.948 535.374 702.066 535.374ZM412.313 491.183C414.518 488.978 418.099 488.978 420.304 491.183C422.509 493.388 422.509 496.969 420.304 499.174C418.099 501.378 414.518 501.378 412.313 499.174C410.109 496.969 410.109 493.388 412.313 491.183Z" fill="#2C395D"/>
<path d="M422.14 490.549C422.214 490.623 422.275 490.684 422.312 490.721C422.263 490.684 422.201 490.623 422.14 490.549Z" fill="#2C395D"/>
<path d="M421.922 490.354C421.996 490.428 422.07 490.502 422.132 490.564C422.07 490.49 421.996 490.428 421.922 490.354Z" fill="#2C395D"/>
<path d="M303.876 85.4348C304.984 85.4348 305.91 84.6431 306.117 83.5834H557.464L596.332 122.452L596.454 122.574H684.825C685.032 123.621 685.945 124.425 687.066 124.425C688.32 124.425 689.344 123.402 689.344 122.147C689.344 120.893 688.32 119.869 687.066 119.869C685.957 119.869 685.032 120.661 684.825 121.721H596.808L557.939 82.8525L557.817 82.7307H306.117C305.91 81.6832 304.997 80.8793 303.876 80.8793C302.621 80.8793 301.598 81.9024 301.598 83.1571C301.598 84.4117 302.621 85.4348 303.876 85.4348Z" fill="#2C395D"/>
<path d="M438.368 92.3163C439.476 92.3163 440.402 91.5246 440.609 90.4648H557.445L596.314 129.333L596.435 129.455H684.806C685.013 130.503 685.926 131.306 687.047 131.306C688.302 131.306 689.325 130.283 689.325 129.029C689.325 127.774 688.302 126.751 687.047 126.751C685.939 126.751 685.013 127.543 684.806 128.602H596.789L557.92 89.734L557.799 89.6122H440.609C440.402 88.5647 439.488 87.7607 438.368 87.7607C437.113 87.7607 436.09 88.7839 436.09 90.0385C436.09 91.2931 437.113 92.3163 438.368 92.3163Z" fill="#2C395D"/>
<path d="M287.055 99.199C288.163 99.199 289.089 98.4073 289.296 97.3476H523.541L562.41 136.216L562.531 136.338H702.438C702.645 137.385 703.559 138.189 704.679 138.189C705.934 138.189 706.957 137.166 706.957 135.911C706.957 134.657 705.934 133.634 704.679 133.634C703.571 133.634 702.645 134.425 702.438 135.485H562.885L524.016 96.6167L523.895 96.4949H289.296C289.089 95.4474 288.175 94.6435 287.055 94.6435C285.8 94.6435 284.777 95.6667 284.777 96.9213C284.765 98.1759 285.788 99.199 287.055 99.199Z" fill="#2C395D"/>
<path d="M361.162 106.081C362.27 106.081 363.196 105.289 363.403 104.229H523.541L562.41 143.098L562.531 143.219H702.438C702.645 144.267 703.559 145.071 704.679 145.071C705.934 145.071 706.957 144.048 706.957 142.793C706.957 141.538 705.934 140.515 704.679 140.515C703.571 140.515 702.645 141.307 702.438 142.367H562.897L524.029 103.498L523.907 103.377H363.403C363.196 102.329 362.282 101.525 361.162 101.525C359.907 101.525 358.884 102.548 358.884 103.803C358.884 105.058 359.907 106.081 361.162 106.081Z" fill="#2C395D"/>
<path d="M482.391 49.6846H570.542L570.676 49.8064L611.774 90.9159H712.312V91.7808H611.42L611.286 91.6468L570.189 50.5494H482.391V49.6846Z" fill="#2C395D"/>
<path d="M482.524 52.3886C481.269 52.3886 480.246 51.3654 480.246 50.1108C480.246 48.8562 481.269 47.833 482.524 47.833C483.778 47.833 484.802 48.8562 484.802 50.1108C484.802 51.3654 483.778 52.3886 482.524 52.3886Z" fill="#2C395D"/>
<path d="M115.792 54.7026C116.901 54.7026 117.827 53.9108 118.034 52.8511H435.266L453.451 71.0368L453.573 71.1586H532.418C532.625 72.2061 533.539 73.01 534.659 73.01C535.914 73.01 536.937 71.9869 536.937 70.7323C536.937 69.4777 535.914 68.4545 534.659 68.4545C533.551 68.4545 532.625 69.2462 532.418 70.3059H453.926L435.741 52.1203L435.619 51.9985H118.034C117.827 50.951 116.913 50.147 115.792 50.147C114.538 50.147 113.515 51.1702 113.515 52.4248C113.515 53.6794 114.538 54.7026 115.792 54.7026Z" fill="#2C395D"/>
<path d="M696.003 3.06934C692.532 3.06934 689.621 5.4811 688.829 8.72114H607.974L577.583 39.1118H470.102C469.322 35.8717 466.399 33.46 462.927 33.46C458.859 33.46 455.546 36.7731 455.546 40.8414C455.546 44.9097 458.859 48.2229 462.927 48.2229C466.399 48.2229 469.31 45.8111 470.102 42.5711H579.021L609.411 12.1804H688.829C689.609 15.4205 692.532 17.8322 696.003 17.8322C700.072 17.8322 703.385 14.5191 703.385 10.4508C703.397 6.38246 700.084 3.06934 696.003 3.06934ZM462.927 46.5054C459.809 46.5054 457.276 43.9718 457.276 40.8536C457.276 37.7354 459.809 35.2018 462.927 35.2018C466.046 35.2018 468.579 37.7354 468.579 40.8536C468.579 43.9718 466.046 46.5054 462.927 46.5054ZM696.003 16.1148C692.885 16.1148 690.352 13.5812 690.352 10.463C690.352 7.34473 692.885 4.81116 696.003 4.81116C699.122 4.81116 701.655 7.34473 701.655 10.463C701.655 13.569 699.122 16.1148 696.003 16.1148Z" fill="#2C395D"/>
<path d="M607.076 194.295C607.051 194.27 607.014 194.233 606.965 194.184C607.014 194.245 607.051 194.282 607.076 194.295Z" fill="#2C395D"/>
<path d="M607.071 194.293C607.086 194.323 607.086 194.323 607.071 194.293V194.293Z" fill="#2C395D"/>
<path d="M606.94 194.183C606.819 194.062 606.587 193.83 606.234 193.477C606.076 193.319 605.954 193.197 605.844 193.087C606.222 193.453 606.709 193.952 606.94 194.183Z" fill="#2C395D"/>
<path d="M605.447 192.677C605.418 192.647 605.418 192.647 605.447 192.677V192.677Z" fill="#2C395D"/>
<path d="M616.695 183.038C614.235 180.578 610.471 180.225 607.633 181.967L593.357 167.691H477.727L450.722 140.686H168.814C168.035 137.446 165.111 135.035 161.64 135.035C157.571 135.035 154.258 138.348 154.258 142.416C154.258 146.484 157.571 149.798 161.64 149.798C165.111 149.798 168.022 147.386 168.814 144.146H449.285L476.289 171.15H591.92L605.172 184.403C603.443 187.241 603.796 191.017 606.244 193.465C609.119 196.34 613.808 196.34 616.683 193.465C619.582 190.603 619.582 185.913 616.695 183.038ZM161.64 148.068C158.522 148.068 155.988 145.534 155.988 142.416C155.988 139.298 158.522 136.764 161.64 136.764C164.758 136.764 167.292 139.298 167.292 142.416C167.292 145.534 164.758 148.068 161.64 148.068ZM615.477 192.259C613.272 194.464 609.691 194.464 607.487 192.259C605.282 190.054 605.282 186.473 607.487 184.269C609.691 182.064 613.272 182.064 615.477 184.269C617.682 186.461 617.682 190.054 615.477 192.259Z" fill="#2C395D"/>
<path d="M605.661 192.881C605.587 192.807 605.525 192.746 605.488 192.709C605.525 192.758 605.587 192.82 605.661 192.881Z" fill="#2C395D"/>
<path d="M605.862 193.09C605.788 193.016 605.714 192.942 605.652 192.88C605.714 192.942 605.788 193.016 605.862 193.09Z" fill="#2C395D"/>
<path d="M221.41 576.46C224.881 576.46 227.792 574.048 228.584 570.808H383.777L446.751 633.782C445.021 636.62 445.375 640.396 447.823 642.844C450.698 645.719 455.387 645.719 458.262 642.844C461.136 639.969 461.136 635.28 458.262 632.405C455.801 629.945 452.037 629.591 449.199 631.333L385.215 567.348H228.584C227.805 564.108 224.881 561.697 221.41 561.697C217.341 561.697 214.028 565.01 214.028 569.078C214.028 573.146 217.341 576.46 221.41 576.46ZM449.053 633.623C451.258 631.419 454.839 631.419 457.044 633.623C459.248 635.828 459.248 639.409 457.044 641.614C454.839 643.818 451.258 643.818 449.053 641.614C446.849 639.421 446.849 635.828 449.053 633.623ZM221.41 563.414C224.528 563.414 227.062 565.948 227.062 569.066C227.062 572.184 224.528 574.718 221.41 574.718C218.292 574.718 215.758 572.184 215.758 569.066C215.758 565.948 218.292 563.414 221.41 563.414Z" fill="#2C395D"/>
<path d="M221.534 441.864C225.005 441.864 227.916 439.452 228.708 436.212H511.372L537.292 462.133H700.597C701.377 465.373 704.3 467.784 707.772 467.784C711.84 467.784 715.153 464.471 715.153 460.403C715.153 456.335 711.84 453.022 707.772 453.022C704.3 453.022 701.389 455.433 700.597 458.673H538.717L512.797 432.753H228.708C227.929 429.513 225.005 427.101 221.534 427.101C217.465 427.101 214.152 430.414 214.152 434.483C214.152 438.551 217.465 441.864 221.534 441.864ZM707.76 454.751C710.878 454.751 713.411 457.285 713.411 460.403C713.411 463.521 710.878 466.055 707.76 466.055C704.641 466.055 702.108 463.521 702.108 460.403C702.108 457.285 704.641 454.751 707.76 454.751ZM221.534 428.831C224.652 428.831 227.186 431.364 227.186 434.483C227.186 437.601 224.652 440.134 221.534 440.134C218.416 440.134 215.882 437.601 215.882 434.483C215.882 431.364 218.416 428.831 221.534 428.831Z" fill="#2C395D"/>
<path d="M440.975 376.296C444.447 376.296 447.358 373.884 448.15 370.644H586.022L625.28 409.902H694.904C695.684 413.142 698.607 415.554 702.079 415.554C706.147 415.554 709.46 412.241 709.46 408.172C709.46 404.104 706.147 400.791 702.079 400.791C698.607 400.791 695.696 403.203 694.904 406.443H626.717L587.459 367.184H448.15C447.37 363.944 444.447 361.533 440.975 361.533C436.907 361.533 433.594 364.846 433.594 368.914C433.594 372.982 436.907 376.296 440.975 376.296ZM702.067 402.52C705.185 402.52 707.719 405.054 707.719 408.172C707.719 411.291 705.185 413.824 702.067 413.824C698.948 413.824 696.415 411.291 696.415 408.172C696.415 405.054 698.948 402.52 702.067 402.52ZM440.975 363.262C444.093 363.262 446.627 365.796 446.627 368.914C446.627 372.032 444.093 374.566 440.975 374.566C437.857 374.566 435.323 372.032 435.323 368.914C435.323 365.796 437.857 363.262 440.975 363.262Z" fill="#2C395D"/>
<path d="M8.73635 321.302C12.845 321.302 16.2906 318.428 17.2276 314.567H495.723L512.014 330.97C509.967 334.352 510.385 338.852 513.282 341.769C516.685 345.195 522.235 345.195 525.637 341.769C529.039 338.344 529.039 332.755 525.637 329.329C522.725 326.397 518.27 325.976 514.911 328.052L497.424 310.444H17.2276C16.305 306.583 12.845 303.709 8.73635 303.709C3.92126 303.709 0 307.657 0 312.505C0 317.354 3.92126 321.302 8.73635 321.302ZM514.104 339.679C513.96 339.534 513.917 339.505 514.104 339.679V339.679ZM515.358 340.942C515.546 341.131 515.502 341.087 515.358 340.942V340.942ZM524.196 330.781C526.805 333.408 526.805 337.676 524.196 340.303C521.586 342.931 517.348 342.931 514.738 340.303C514.825 340.39 514.897 340.463 514.983 340.55C514.911 340.477 514.839 340.405 514.738 340.303C514.637 340.202 514.58 340.144 514.493 340.056C514.565 340.129 514.652 340.216 514.738 340.303C512.129 337.676 512.129 333.408 514.738 330.781C517.333 328.153 521.586 328.153 524.196 330.781ZM8.73635 305.77C12.427 305.77 15.4256 308.789 15.4256 312.505C15.4256 316.221 12.427 319.241 8.73635 319.241C5.04574 319.241 2.04713 316.221 2.04713 312.505C2.04713 308.789 5.04574 305.77 8.73635 305.77Z" fill="#2C395D"/>
<path d="M402.636 219.251C406.107 219.251 409.018 216.839 409.81 213.599H486.304L513.199 240.494H651.413L695.409 196.498C698.247 198.227 702.023 197.874 704.471 195.426C707.346 192.551 707.346 187.862 704.471 184.987C701.597 182.112 696.907 182.112 694.033 184.987C691.572 187.448 691.219 191.211 692.961 194.049L649.988 237.023H514.624L487.73 210.128H409.798C409.018 206.888 406.095 204.476 402.624 204.476C398.555 204.476 395.242 207.789 395.242 211.857C395.242 215.938 398.555 219.251 402.636 219.251ZM695.251 186.193C697.455 183.988 701.036 183.988 703.241 186.193C705.446 188.398 705.446 191.979 703.241 194.183C701.036 196.388 697.455 196.388 695.251 194.183C693.046 191.991 693.046 188.398 695.251 186.193ZM402.636 206.206C405.754 206.206 408.288 208.739 408.288 211.857C408.288 214.976 405.754 217.509 402.636 217.509C399.518 217.509 396.984 214.976 396.984 211.857C396.984 208.739 399.518 206.206 402.636 206.206Z" fill="#2C395D"/>
<path d="M556.714 210.542C559.175 213.002 562.939 213.355 565.777 211.614L571.818 217.655H656.949L700.494 174.11C703.332 175.839 707.108 175.486 709.557 173.038C712.431 170.163 712.431 165.473 709.557 162.599C706.682 159.724 701.993 159.724 699.118 162.599C696.657 165.059 696.304 168.823 698.046 171.661L655.523 214.184H573.256L568.237 209.165C569.967 206.327 569.614 202.551 567.165 200.103C564.291 197.228 559.601 197.228 556.727 200.103C553.828 202.978 553.828 207.667 556.714 210.542ZM700.336 163.829C702.541 161.624 706.122 161.624 708.326 163.829C710.531 166.034 710.531 169.615 708.326 171.82C706.122 174.024 702.541 174.024 700.336 171.82C698.131 169.615 698.131 166.022 700.336 163.829ZM557.932 201.321C560.137 199.116 563.718 199.116 565.923 201.321C568.128 203.526 568.128 207.107 565.923 209.311C563.718 211.516 560.137 211.516 557.932 209.311C555.74 207.119 555.74 203.526 557.932 201.321Z" fill="#2C395D"/>
<path d="M47.6588 281.836C51.1303 281.836 54.0414 279.424 54.8332 276.184H428.851L450.496 297.829H524.152L559.549 333.226H633.29L654.278 312.238H730.614C731.393 315.478 734.317 317.89 737.788 317.89C741.856 317.89 745.169 314.577 745.169 310.509C745.169 306.44 741.856 303.127 737.788 303.127C734.317 303.127 731.405 305.539 730.614 308.779H652.84L631.853 329.766H560.986L525.59 294.369H451.933L430.288 272.724H54.8332C54.0536 269.484 51.1303 267.073 47.6588 267.073C43.5905 267.073 40.2773 270.386 40.2773 274.454C40.2773 278.522 43.5905 281.836 47.6588 281.836ZM737.776 304.857C740.894 304.857 743.428 307.39 743.428 310.509C743.428 313.627 740.894 316.161 737.776 316.161C734.658 316.161 732.124 313.627 732.124 310.509C732.124 307.39 734.658 304.857 737.776 304.857ZM47.6588 268.802C50.777 268.802 53.3106 271.336 53.3106 274.454C53.3106 277.572 50.777 280.106 47.6588 280.106C44.5406 280.106 42.007 277.572 42.007 274.454C42.007 271.336 44.5406 268.802 47.6588 268.802Z" fill="#2C395D"/>
</svg>
