<svg width="518" height="583" viewBox="0 0 518 583" fill="none" xmlns="http://www.w3.org/2000/svg">
<circle cx="254.913" cy="293.738" r="253.913" stroke="#F6F7FA" stroke-width="2"/>
<circle cx="254.913" cy="293.738" r="221.719" stroke="#F6F7FA"/>
<circle cx="254.913" cy="293.738" r="176.764" stroke="#F6F7FA"/>
<path d="M158.437 277.928H165.541C167.333 277.928 168.741 278.288 169.765 279.008C170.789 279.728 171.301 280.784 171.301 282.176C171.301 283.136 171.053 283.936 170.557 284.576C170.061 285.2 169.429 285.632 168.661 285.872C169.573 286.128 170.349 286.6 170.989 287.288C171.645 287.96 171.973 288.888 171.973 290.072C171.973 290.968 171.773 291.744 171.373 292.4C170.973 293.04 170.437 293.52 169.765 293.84C169.093 294.16 168.413 294.392 167.725 294.536C167.053 294.664 166.341 294.728 165.589 294.728H158.437V277.928ZM169.189 289.784C169.189 288.072 168.029 287.216 165.709 287.216H161.173V292.328H165.325C165.885 292.328 166.357 292.304 166.741 292.256C167.125 292.208 167.517 292.104 167.917 291.944C168.333 291.784 168.645 291.528 168.853 291.176C169.077 290.808 169.189 290.344 169.189 289.784ZM168.517 282.608C168.517 281.072 167.429 280.304 165.253 280.304H161.173V284.888L165.637 284.912C166.485 284.912 167.173 284.72 167.701 284.336C168.245 283.952 168.517 283.376 168.517 282.608ZM180.17 294.728H174.458V283.208H177.026V287.048H180.17C181.578 287.048 182.69 287.408 183.506 288.128C184.322 288.848 184.73 289.768 184.73 290.888C184.73 292.008 184.322 292.928 183.506 293.648C182.69 294.368 181.578 294.728 180.17 294.728ZM177.026 289.064V292.688H179.666C180.434 292.688 181.034 292.536 181.466 292.232C181.898 291.912 182.114 291.464 182.114 290.888C182.114 290.296 181.898 289.848 181.466 289.544C181.034 289.224 180.434 289.064 179.666 289.064H177.026ZM189.362 294.728H186.794V283.208H189.362V294.728ZM204.095 289.376C204.095 291.152 203.543 292.544 202.439 293.552C201.335 294.544 199.887 295.04 198.095 295.04C196.303 295.04 194.847 294.456 193.727 293.288C192.607 292.12 192.047 290.424 192.047 288.2C192.047 286.296 192.367 284.688 193.007 283.376C193.647 282.064 194.511 281.064 195.599 280.376C196.527 279.816 197.511 279.416 198.551 279.176C199.591 278.92 200.487 278.712 201.239 278.552C202.007 278.376 202.615 278.064 203.063 277.616V280.112C202.519 280.528 201.591 280.864 200.279 281.12C198.983 281.36 197.927 281.704 197.111 282.152C195.927 282.84 195.111 284.056 194.663 285.8C195.063 285.208 195.615 284.728 196.319 284.36C197.039 283.976 197.831 283.784 198.695 283.784C200.199 283.784 201.471 284.296 202.511 285.32C203.567 286.344 204.095 287.696 204.095 289.376ZM194.639 289.424C194.639 290.368 194.935 291.176 195.527 291.848C196.135 292.504 196.975 292.832 198.047 292.832C199.135 292.832 199.975 292.504 200.567 291.848C201.175 291.192 201.479 290.384 201.479 289.424C201.479 288.464 201.175 287.656 200.567 287C199.975 286.344 199.135 286.016 198.047 286.016C197.007 286.016 196.175 286.368 195.551 287.072C194.943 287.76 194.639 288.544 194.639 289.424ZM205.894 288.968C205.894 287.976 206.07 287.08 206.422 286.28C206.774 285.464 207.238 284.824 207.814 284.36C208.39 283.88 209.014 283.52 209.686 283.28C210.358 283.024 211.038 282.896 211.726 282.896C212.606 282.896 213.398 283.032 214.102 283.304C214.822 283.576 215.398 283.944 215.83 284.408C216.262 284.872 216.614 285.408 216.886 286.016C217.158 286.624 217.302 287.264 217.318 287.936C217.334 288.592 217.278 289.256 217.15 289.928H208.486C208.614 290.904 209.094 291.64 209.926 292.136C210.758 292.616 211.75 292.856 212.902 292.856C214.214 292.856 215.43 292.584 216.55 292.04V294.248C215.446 294.776 214.07 295.04 212.422 295.04C210.55 295.04 208.99 294.512 207.742 293.456C206.51 292.4 205.894 290.904 205.894 288.968ZM214.846 288.008C214.942 287.352 214.742 286.696 214.246 286.04C213.766 285.368 212.966 285.032 211.846 285.032C210.934 285.032 210.15 285.296 209.494 285.824C208.854 286.352 208.51 287.08 208.462 288.008H214.846ZM221.996 285.008C223.164 283.6 224.644 282.896 226.436 282.896C228.132 282.896 229.508 283.488 230.564 284.672C231.62 285.84 232.148 287.272 232.148 288.968C232.148 290.664 231.62 292.104 230.564 293.288C229.508 294.456 228.132 295.04 226.436 295.04C224.708 295.04 223.324 294.44 222.284 293.24V300.008H219.716V283.208H221.996V285.008ZM228.524 291.728C229.196 291.008 229.532 290.088 229.532 288.968C229.532 287.848 229.196 286.936 228.524 286.232C227.852 285.512 226.996 285.152 225.956 285.152C225.108 285.152 224.356 285.384 223.7 285.848C223.06 286.312 222.588 286.88 222.284 287.552V290.36C222.588 291.048 223.06 291.624 223.7 292.088C224.356 292.552 225.108 292.784 225.956 292.784C226.996 292.784 227.852 292.432 228.524 291.728ZM236.854 294.728H234.646V283.208H237.214V290.744L243.382 283.208H245.59V294.728H243.022V287.192L236.854 294.728ZM259.658 291.896L263.09 283.208H265.778L260.378 296.288C259.274 298.96 257.73 300.296 255.746 300.296C255.282 300.296 254.778 300.232 254.234 300.104V297.92C254.586 298.032 254.978 298.088 255.41 298.088C256.642 298.088 257.594 297.192 258.266 295.4L258.506 294.824L253.034 283.208H255.77L259.658 291.896ZM269.972 285.008C271.14 283.6 272.62 282.896 274.412 282.896C276.108 282.896 277.484 283.488 278.54 284.672C279.596 285.84 280.124 287.272 280.124 288.968C280.124 290.664 279.596 292.104 278.54 293.288C277.484 294.456 276.108 295.04 274.412 295.04C272.684 295.04 271.3 294.44 270.26 293.24V300.008H267.692V283.208H269.972V285.008ZM276.5 291.728C277.172 291.008 277.508 290.088 277.508 288.968C277.508 287.848 277.172 286.936 276.5 286.232C275.828 285.512 274.972 285.152 273.932 285.152C273.084 285.152 272.332 285.384 271.676 285.848C271.036 286.312 270.564 286.88 270.26 287.552V290.36C270.564 291.048 271.036 291.624 271.676 292.088C272.332 292.552 273.084 292.784 273.932 292.784C274.972 292.784 275.828 292.432 276.5 291.728ZM283.726 293.432C282.51 292.36 281.902 290.872 281.902 288.968C281.902 287.064 282.51 285.576 283.726 284.504C284.958 283.432 286.43 282.896 288.142 282.896C289.87 282.896 291.342 283.432 292.558 284.504C293.774 285.576 294.382 287.064 294.382 288.968C294.382 290.872 293.774 292.36 292.558 293.432C291.342 294.504 289.87 295.04 288.142 295.04C286.43 295.04 284.958 294.504 283.726 293.432ZM290.758 291.68C291.43 290.992 291.766 290.088 291.766 288.968C291.766 287.848 291.43 286.952 290.758 286.28C290.086 285.592 289.214 285.248 288.142 285.248C287.054 285.248 286.174 285.592 285.502 286.28C284.83 286.952 284.494 287.848 284.494 288.968C284.494 290.088 284.83 290.992 285.502 291.68C286.174 292.352 287.054 292.688 288.142 292.688C289.214 292.688 290.086 292.352 290.758 291.68ZM303.64 294.728H296.872V283.208H303.448C304.584 283.208 305.472 283.496 306.112 284.072C306.768 284.632 307.096 285.368 307.096 286.28C307.096 287.544 306.552 288.416 305.464 288.896C306.04 289.072 306.512 289.392 306.88 289.856C307.248 290.32 307.432 290.888 307.432 291.56C307.432 292.504 307.112 293.272 306.472 293.864C305.848 294.44 304.904 294.728 303.64 294.728ZM299.44 289.832V292.784H303.016C304.232 292.784 304.84 292.296 304.84 291.32C304.84 290.328 304.248 289.832 303.064 289.832H299.44ZM299.44 285.152V288.008H302.872C303.96 288.008 304.504 287.544 304.504 286.616C304.504 286.104 304.344 285.736 304.024 285.512C303.72 285.272 303.336 285.152 302.872 285.152H299.44ZM309.301 288.968C309.301 287.976 309.477 287.08 309.829 286.28C310.181 285.464 310.645 284.824 311.221 284.36C311.797 283.88 312.421 283.52 313.093 283.28C313.765 283.024 314.445 282.896 315.133 282.896C316.013 282.896 316.805 283.032 317.509 283.304C318.229 283.576 318.805 283.944 319.237 284.408C319.669 284.872 320.021 285.408 320.293 286.016C320.565 286.624 320.709 287.264 320.725 287.936C320.741 288.592 320.685 289.256 320.557 289.928H311.893C312.021 290.904 312.501 291.64 313.333 292.136C314.165 292.616 315.157 292.856 316.309 292.856C317.621 292.856 318.837 292.584 319.957 292.04V294.248C318.853 294.776 317.477 295.04 315.829 295.04C313.957 295.04 312.397 294.512 311.149 293.456C309.917 292.4 309.301 290.904 309.301 288.968ZM318.253 288.008C318.349 287.352 318.149 286.696 317.653 286.04C317.173 285.368 316.373 285.032 315.253 285.032C314.341 285.032 313.557 285.296 312.901 285.824C312.261 286.352 311.917 287.08 311.869 288.008H318.253ZM325.69 294.728H323.122V283.208H325.69V287.84H331.45V283.208H334.018V294.728H331.45V290.096H325.69V294.728ZM342.944 294.728H337.232V283.208H339.8V287.048H342.944C344.352 287.048 345.464 287.408 346.28 288.128C347.096 288.848 347.504 289.768 347.504 290.888C347.504 292.008 347.096 292.928 346.28 293.648C345.464 294.368 344.352 294.728 342.944 294.728ZM339.8 289.064V292.688H342.44C343.208 292.688 343.808 292.536 344.24 292.232C344.672 291.912 344.888 291.464 344.888 290.888C344.888 290.296 344.672 289.848 344.24 289.544C343.808 289.224 343.208 289.064 342.44 289.064H339.8ZM352.291 289.448H349.963L349.771 277.928H352.483L352.291 289.448ZM352.267 292.304C352.571 292.576 352.723 292.96 352.723 293.456C352.723 293.952 352.571 294.336 352.267 294.608C351.963 294.88 351.579 295.016 351.115 295.016C350.667 295.016 350.291 294.88 349.987 294.608C349.683 294.336 349.531 293.952 349.531 293.456C349.531 292.96 349.683 292.576 349.987 292.304C350.291 292.032 350.667 291.896 351.115 291.896C351.579 291.896 351.963 292.032 352.267 292.304Z" fill="#2C395D"/>
<circle cx="73" cy="127" r="73" fill="#F6F7FA"/>
<circle cx="435.243" cy="444.438" r="82.7574" fill="#F6F7FA"/>
<circle cx="409.7" cy="100.126" r="100.126" fill="#2C395D"/>
<circle cx="100.126" cy="482.241" r="100.126" fill="#EC4A42"/>
<path d="M41.5752 115.2H49.0392V127.104C49.0392 128.864 48.5032 130.168 47.4312 131.016C46.3592 131.864 44.9752 132.288 43.2792 132.288C41.5832 132.288 40.1432 131.96 38.9592 131.304V128.688C39.9992 129.36 41.2472 129.696 42.7032 129.696C45.1032 129.696 46.3032 128.752 46.3032 126.864V117.72H41.5752V115.2ZM60.6295 120.48H63.1975V132H60.9175V130.416C59.8615 131.68 58.5255 132.312 56.9095 132.312C55.4215 132.312 54.2535 131.88 53.4055 131.016C52.5735 130.152 52.1575 129.016 52.1575 127.608V120.48H54.7255V127.272C54.7255 129.112 55.6215 130.032 57.4135 130.032C58.6775 130.032 59.7495 129.392 60.6295 128.112V120.48ZM68.6903 122.064C69.7463 120.8 71.0823 120.168 72.6983 120.168C74.1383 120.168 75.2903 120.608 76.1543 121.488C77.0183 122.352 77.4503 123.48 77.4503 124.872V132H74.8823V125.208C74.8823 124.312 74.6343 123.632 74.1383 123.168C73.6423 122.688 72.9943 122.448 72.1943 122.448C70.9303 122.448 69.8583 123.088 68.9783 124.368V132H66.4103V120.48H68.6903V122.064ZM83.1357 132H80.5677V120.48H83.1357V132ZM83.4237 116.736C83.4237 117.232 83.2717 117.616 82.9677 117.888C82.6797 118.144 82.3117 118.272 81.8637 118.272C81.4157 118.272 81.0397 118.144 80.7357 117.888C80.4317 117.616 80.2797 117.232 80.2797 116.736C80.2797 116.256 80.4317 115.888 80.7357 115.632C81.0397 115.36 81.4157 115.224 81.8637 115.224C82.3117 115.224 82.6797 115.36 82.9677 115.632C83.2717 115.888 83.4237 116.256 83.4237 116.736ZM87.5065 130.704C86.2905 129.632 85.6825 128.144 85.6825 126.24C85.6825 124.336 86.2905 122.848 87.5065 121.776C88.7385 120.704 90.2105 120.168 91.9225 120.168C93.6505 120.168 95.1225 120.704 96.3385 121.776C97.5545 122.848 98.1625 124.336 98.1625 126.24C98.1625 128.144 97.5545 129.632 96.3385 130.704C95.1225 131.776 93.6505 132.312 91.9225 132.312C90.2105 132.312 88.7385 131.776 87.5065 130.704ZM94.5385 128.952C95.2105 128.264 95.5465 127.36 95.5465 126.24C95.5465 125.12 95.2105 124.224 94.5385 123.552C93.8665 122.864 92.9945 122.52 91.9225 122.52C90.8345 122.52 89.9545 122.864 89.2825 123.552C88.6105 124.224 88.2745 125.12 88.2745 126.24C88.2745 127.36 88.6105 128.264 89.2825 128.952C89.9545 129.624 90.8345 129.96 91.9225 129.96C92.9945 129.96 93.8665 129.624 94.5385 128.952ZM102.933 122.376C103.381 121.656 104.045 121.096 104.925 120.696C105.805 120.296 106.757 120.144 107.781 120.24V122.76C106.757 122.616 105.829 122.752 104.997 123.168C104.165 123.584 103.573 124.2 103.221 125.016V132H100.653V120.48H102.933V122.376Z" fill="#2C395D"/>
<path d="M376.008 94.3379C376.008 92.8659 376.568 91.7379 377.688 90.9539C378.824 90.1539 380.232 89.7539 381.912 89.7539C383.944 89.7539 385.696 90.1779 387.168 91.0259V93.6419C385.744 92.6819 384.064 92.2179 382.128 92.2499C379.904 92.2499 378.792 92.9299 378.792 94.2899C378.792 94.9459 379.12 95.4979 379.776 95.9459C380.432 96.3779 381.232 96.7379 382.176 97.0259C383.12 97.3139 384.064 97.6419 385.008 98.0099C385.952 98.3779 386.752 98.9379 387.408 99.6899C388.064 100.426 388.392 101.346 388.392 102.45C388.392 104.098 387.792 105.306 386.592 106.074C385.408 106.826 383.888 107.194 382.032 107.178C379.792 107.178 377.808 106.69 376.08 105.714V103.026C377.792 104.13 379.712 104.682 381.84 104.682C384.352 104.682 385.608 103.986 385.608 102.594C385.608 101.986 385.368 101.466 384.888 101.034C384.424 100.602 383.832 100.274 383.112 100.05C382.408 99.8259 381.64 99.5619 380.808 99.2579C379.976 98.9379 379.2 98.6099 378.48 98.2739C377.776 97.9219 377.184 97.4099 376.704 96.7379C376.24 96.0659 376.008 95.2659 376.008 94.3379ZM389.994 101.106C389.994 100.114 390.17 99.2179 390.522 98.4179C390.874 97.6019 391.338 96.9619 391.914 96.4979C392.49 96.0179 393.114 95.6579 393.786 95.4179C394.458 95.1619 395.138 95.0339 395.826 95.0339C396.706 95.0339 397.498 95.1699 398.202 95.4419C398.922 95.7139 399.498 96.0819 399.93 96.5459C400.362 97.0099 400.714 97.5459 400.986 98.1539C401.258 98.7619 401.402 99.4019 401.418 100.074C401.434 100.73 401.378 101.394 401.25 102.066H392.586C392.714 103.042 393.194 103.778 394.026 104.274C394.858 104.754 395.85 104.994 397.002 104.994C398.314 104.994 399.53 104.722 400.65 104.178V106.386C399.546 106.914 398.17 107.178 396.522 107.178C394.65 107.178 393.09 106.65 391.842 105.594C390.61 104.538 389.994 103.042 389.994 101.106ZM398.946 100.146C399.042 99.4899 398.842 98.8339 398.346 98.1779C397.866 97.5059 397.066 97.1699 395.946 97.1699C395.034 97.1699 394.25 97.4339 393.594 97.9619C392.954 98.4899 392.61 99.2179 392.562 100.146H398.946ZM406.142 96.9299C407.198 95.6659 408.534 95.0339 410.15 95.0339C411.59 95.0339 412.742 95.4739 413.606 96.3539C414.47 97.2179 414.902 98.3459 414.902 99.7379V106.866H412.334V100.074C412.334 99.1779 412.086 98.4979 411.59 98.0339C411.094 97.5539 410.446 97.3139 409.646 97.3139C408.382 97.3139 407.31 97.9539 406.43 99.2339V106.866H403.862V95.3459H406.142V96.9299ZM420.587 106.866H418.019V95.3459H420.587V106.866ZM420.875 91.6019C420.875 92.0979 420.723 92.4819 420.419 92.7539C420.131 93.0099 419.763 93.1379 419.315 93.1379C418.867 93.1379 418.491 93.0099 418.187 92.7539C417.883 92.4819 417.731 92.0979 417.731 91.6019C417.731 91.1219 417.883 90.7539 418.187 90.4979C418.491 90.2259 418.867 90.0899 419.315 90.0899C419.763 90.0899 420.131 90.2259 420.419 90.4979C420.723 90.7539 420.875 91.1219 420.875 91.6019ZM424.958 105.57C423.742 104.498 423.134 103.01 423.134 101.106C423.134 99.2019 423.742 97.7139 424.958 96.6419C426.19 95.5699 427.662 95.0339 429.374 95.0339C431.102 95.0339 432.574 95.5699 433.79 96.6419C435.006 97.7139 435.614 99.2019 435.614 101.106C435.614 103.01 435.006 104.498 433.79 105.57C432.574 106.642 431.102 107.178 429.374 107.178C427.662 107.178 426.19 106.642 424.958 105.57ZM431.99 103.818C432.662 103.13 432.998 102.226 432.998 101.106C432.998 99.9859 432.662 99.0899 431.99 98.4179C431.318 97.7299 430.446 97.3859 429.374 97.3859C428.286 97.3859 427.406 97.7299 426.734 98.4179C426.062 99.0899 425.726 99.9859 425.726 101.106C425.726 102.226 426.062 103.13 426.734 103.818C427.406 104.49 428.286 104.826 429.374 104.826C430.446 104.826 431.318 104.49 431.99 103.818ZM440.384 97.2419C440.832 96.5219 441.496 95.9619 442.376 95.5619C443.256 95.1619 444.208 95.0099 445.232 95.1059V97.6259C444.208 97.4819 443.28 97.6179 442.448 98.0339C441.616 98.4499 441.024 99.0659 440.672 99.8819V106.866H438.104V95.3459H440.384V97.2419Z" fill="white"/>
<path d="M414.748 434.378H417.22V451.178H414.484V439.418L409.18 447.386H407.548L402.244 439.394V451.178H399.508V434.378H401.98L408.364 444.002L414.748 434.378ZM423.489 451.178H420.921V439.658H423.489V451.178ZM423.777 435.914C423.777 436.41 423.625 436.794 423.321 437.066C423.033 437.322 422.665 437.45 422.217 437.45C421.769 437.45 421.393 437.322 421.089 437.066C420.785 436.794 420.633 436.41 420.633 435.914C420.633 435.434 420.785 435.066 421.089 434.81C421.393 434.538 421.769 434.402 422.217 434.402C422.665 434.402 423.033 434.538 423.321 434.81C423.625 435.066 423.777 435.434 423.777 435.914ZM435.9 434.378H438.468V451.178H436.164V449.354C435.044 450.778 433.572 451.49 431.748 451.49C430.052 451.49 428.676 450.906 427.62 449.738C426.564 448.554 426.036 447.114 426.036 445.418C426.036 443.722 426.564 442.29 427.62 441.122C428.676 439.938 430.052 439.346 431.748 439.346C433.476 439.346 434.86 439.946 435.9 441.146V434.378ZM435.876 444.002C435.572 443.33 435.092 442.762 434.436 442.298C433.796 441.834 433.052 441.602 432.204 441.602C431.164 441.602 430.308 441.962 429.636 442.682C428.964 443.386 428.628 444.298 428.628 445.418C428.628 446.538 428.964 447.458 429.636 448.178C430.308 448.882 431.164 449.234 432.204 449.234C433.052 449.234 433.796 449.002 434.436 448.538C435.092 448.074 435.572 447.498 435.876 446.81V444.002ZM450.829 434.378H453.397V451.178H451.093V449.354C449.973 450.778 448.501 451.49 446.677 451.49C444.981 451.49 443.605 450.906 442.549 449.738C441.493 448.554 440.965 447.114 440.965 445.418C440.965 443.722 441.493 442.29 442.549 441.122C443.605 439.938 444.981 439.346 446.677 439.346C448.405 439.346 449.789 439.946 450.829 441.146V434.378ZM450.805 444.002C450.501 443.33 450.021 442.762 449.365 442.298C448.725 441.834 447.981 441.602 447.133 441.602C446.093 441.602 445.237 441.962 444.565 442.682C443.893 443.386 443.557 444.298 443.557 445.418C443.557 446.538 443.893 447.458 444.565 448.178C445.237 448.882 446.093 449.234 447.133 449.234C447.981 449.234 448.725 449.002 449.365 448.538C450.021 448.074 450.501 447.498 450.805 446.81V444.002ZM456.663 433.658H459.231V451.178H456.663V433.658ZM461.778 445.418C461.778 444.426 461.954 443.53 462.306 442.73C462.658 441.914 463.122 441.274 463.698 440.81C464.274 440.33 464.898 439.97 465.57 439.73C466.242 439.474 466.922 439.346 467.61 439.346C468.49 439.346 469.282 439.482 469.986 439.754C470.706 440.026 471.282 440.394 471.714 440.858C472.146 441.322 472.498 441.858 472.77 442.466C473.042 443.074 473.186 443.714 473.202 444.386C473.218 445.042 473.162 445.706 473.034 446.378H464.37C464.498 447.354 464.978 448.09 465.81 448.586C466.642 449.066 467.634 449.306 468.786 449.306C470.098 449.306 471.314 449.034 472.434 448.49V450.698C471.33 451.226 469.954 451.49 468.306 451.49C466.434 451.49 464.874 450.962 463.626 449.906C462.394 448.85 461.778 447.354 461.778 445.418ZM470.73 444.458C470.826 443.802 470.626 443.146 470.13 442.49C469.65 441.818 468.85 441.482 467.73 441.482C466.818 441.482 466.034 441.746 465.378 442.274C464.738 442.802 464.394 443.53 464.346 444.458H470.73Z" fill="#2C395D"/>
<path d="M40.9611 472.18H54.8091V474.7H49.2651V488.98H46.5291V474.7H40.9611V472.18ZM53.3022 483.22C53.3022 482.228 53.4782 481.332 53.8302 480.532C54.1822 479.716 54.6462 479.076 55.2222 478.612C55.7982 478.132 56.4222 477.772 57.0942 477.532C57.7662 477.276 58.4462 477.148 59.1342 477.148C60.0142 477.148 60.8062 477.284 61.5102 477.556C62.2302 477.828 62.8062 478.196 63.2382 478.66C63.6702 479.124 64.0222 479.66 64.2942 480.268C64.5662 480.876 64.7102 481.516 64.7262 482.188C64.7422 482.844 64.6862 483.508 64.5582 484.18H55.8942C56.0222 485.156 56.5022 485.892 57.3342 486.388C58.1662 486.868 59.1582 487.108 60.3102 487.108C61.6222 487.108 62.8382 486.836 63.9582 486.292V488.5C62.8542 489.028 61.4782 489.292 59.8302 489.292C57.9582 489.292 56.3982 488.764 55.1502 487.708C53.9182 486.652 53.3022 485.156 53.3022 483.22ZM62.2542 482.26C62.3502 481.604 62.1502 480.948 61.6542 480.292C61.1742 479.62 60.3742 479.284 59.2542 479.284C58.3422 479.284 57.5582 479.548 56.9022 480.076C56.2622 480.604 55.9182 481.332 55.8702 482.26H62.2542ZM76.9866 486.316C76.9866 486.876 77.2666 487.156 77.8266 487.156C78.0186 487.156 78.2746 487.108 78.5946 487.012V488.86C78.1146 489.052 77.5706 489.148 76.9626 489.148C75.8106 489.148 75.0426 488.7 74.6586 487.804C73.4266 488.796 71.9786 489.292 70.3146 489.292C69.1946 489.292 68.2426 488.988 67.4586 488.38C66.6746 487.756 66.2826 486.884 66.2826 485.764C66.2826 484.42 66.7866 483.444 67.7946 482.836C68.8026 482.212 70.0106 481.9 71.4186 481.9C72.3466 481.9 73.3466 482.012 74.4186 482.236V481.828C74.4186 481.092 74.1546 480.5 73.6266 480.052C73.0986 479.604 72.3546 479.38 71.3946 479.38C69.9706 479.38 68.5866 479.676 67.2426 480.268V477.916C68.7466 477.404 70.2186 477.148 71.6586 477.148C73.3386 477.148 74.6426 477.564 75.5706 478.396C76.5146 479.228 76.9866 480.492 76.9866 482.188V486.316ZM71.9226 483.7C71.0746 483.7 70.3626 483.852 69.7866 484.156C69.2106 484.46 68.9226 484.94 68.9226 485.596C68.9226 486.14 69.1306 486.564 69.5466 486.868C69.9626 487.156 70.4746 487.3 71.0826 487.3C72.3946 487.3 73.5066 486.844 74.4186 485.932V483.988C73.4906 483.796 72.6586 483.7 71.9226 483.7ZM82.9339 488.98H80.3659V477.46H82.6459V478.9C83.6859 477.732 84.9659 477.148 86.4859 477.148C88.1499 477.148 89.3499 477.764 90.0859 478.996C91.3179 477.764 92.6619 477.148 94.1179 477.148C95.5579 477.148 96.6459 477.596 97.3819 478.492C98.1179 479.388 98.4859 480.484 98.4859 481.78V488.98H95.9179V481.852C95.9179 481.116 95.7099 480.532 95.2939 480.1C94.8939 479.652 94.3419 479.428 93.6379 479.428C92.5979 479.428 91.6459 479.948 90.7819 480.988C90.8139 481.34 90.8299 481.604 90.8299 481.78V488.98H88.2619V481.852C88.2619 481.116 88.0539 480.532 87.6379 480.1C87.2379 479.652 86.6859 479.428 85.9819 479.428C84.8779 479.428 83.8619 480.02 82.9339 481.204V488.98ZM107.681 472.18H110.417V486.436H119.249V488.98H107.681V472.18ZM120.263 483.22C120.263 482.228 120.439 481.332 120.791 480.532C121.143 479.716 121.607 479.076 122.183 478.612C122.759 478.132 123.383 477.772 124.055 477.532C124.727 477.276 125.407 477.148 126.095 477.148C126.975 477.148 127.767 477.284 128.471 477.556C129.191 477.828 129.767 478.196 130.199 478.66C130.631 479.124 130.983 479.66 131.255 480.268C131.527 480.876 131.671 481.516 131.687 482.188C131.703 482.844 131.647 483.508 131.519 484.18H122.855C122.983 485.156 123.463 485.892 124.295 486.388C125.127 486.868 126.119 487.108 127.271 487.108C128.583 487.108 129.799 486.836 130.919 486.292V488.5C129.815 489.028 128.439 489.292 126.791 489.292C124.919 489.292 123.359 488.764 122.111 487.708C120.879 486.652 120.263 485.156 120.263 483.22ZM129.215 482.26C129.311 481.604 129.111 480.948 128.615 480.292C128.135 479.62 127.335 479.284 126.215 479.284C125.303 479.284 124.519 479.548 123.863 480.076C123.223 480.604 122.879 481.332 122.831 482.26H129.215ZM143.948 486.316C143.948 486.876 144.228 487.156 144.788 487.156C144.98 487.156 145.236 487.108 145.556 487.012V488.86C145.076 489.052 144.532 489.148 143.924 489.148C142.772 489.148 142.004 488.7 141.62 487.804C140.388 488.796 138.94 489.292 137.276 489.292C136.156 489.292 135.204 488.988 134.42 488.38C133.636 487.756 133.244 486.884 133.244 485.764C133.244 484.42 133.748 483.444 134.756 482.836C135.764 482.212 136.972 481.9 138.38 481.9C139.308 481.9 140.308 482.012 141.38 482.236V481.828C141.38 481.092 141.116 480.5 140.588 480.052C140.06 479.604 139.316 479.38 138.356 479.38C136.932 479.38 135.548 479.676 134.204 480.268V477.916C135.708 477.404 137.18 477.148 138.62 477.148C140.3 477.148 141.604 477.564 142.532 478.396C143.476 479.228 143.948 480.492 143.948 482.188V486.316ZM138.884 483.7C138.036 483.7 137.324 483.852 136.748 484.156C136.172 484.46 135.884 484.94 135.884 485.596C135.884 486.14 136.092 486.564 136.508 486.868C136.924 487.156 137.436 487.3 138.044 487.3C139.356 487.3 140.468 486.844 141.38 485.932V483.988C140.452 483.796 139.62 483.7 138.884 483.7ZM156.471 472.18H159.039V488.98H156.735V487.156C155.615 488.58 154.143 489.292 152.319 489.292C150.623 489.292 149.247 488.708 148.191 487.54C147.135 486.356 146.607 484.916 146.607 483.22C146.607 481.524 147.135 480.092 148.191 478.924C149.247 477.74 150.623 477.148 152.319 477.148C154.047 477.148 155.431 477.748 156.471 478.948V472.18ZM156.447 481.804C156.143 481.132 155.663 480.564 155.007 480.1C154.367 479.636 153.623 479.404 152.775 479.404C151.735 479.404 150.879 479.764 150.207 480.484C149.535 481.188 149.199 482.1 149.199 483.22C149.199 484.34 149.535 485.26 150.207 485.98C150.879 486.684 151.735 487.036 152.775 487.036C153.623 487.036 154.367 486.804 155.007 486.34C155.663 485.876 156.143 485.3 156.447 484.612V481.804Z" fill="white"/>
</svg>
