<svg width="36" height="37" viewBox="0 0 36 37" fill="none" xmlns="http://www.w3.org/2000/svg">
<path d="M8.2084 17.7916L18.32 7.67998C21.2333 4.7667 25.9568 4.7667 28.8701 7.67998C30.2843 9.09419 31.0055 10.9327 31.0479 12.7853C31.0904 14.751 30.3691 16.7309 28.863 18.2371L16.1563 30.9438C15.131 31.9691 13.7733 32.4641 12.4298 32.4358C11.1641 32.4004 9.90545 31.9055 8.94379 30.9438C6.94975 28.9497 6.94975 25.7253 8.94379 23.7313L21.7 10.9751C22.697 9.97807 24.3092 9.97807 25.3062 10.9751C25.7871 11.4559 26.0346 12.0853 26.0487 12.7216C26.0699 13.3934 25.8154 14.0722 25.2992 14.5884L15.4633 24.4243" stroke="#2C3A5E" stroke-width="2.5" stroke-miterlimit="10" stroke-linecap="round"/>
</svg>
