<svg width="469" height="361" viewBox="0 0 469 361" fill="none" xmlns="http://www.w3.org/2000/svg">
<path d="M107.991 249.393L144.303 192.29L62.9821 140.58L20.9858 206.622L88.2485 249.393H107.991Z" fill="white"/>
<path d="M159.448 267.207H69.5032V249.101H159.448V267.207ZM70.6713 266.039H158.28V250.269H70.6713V266.039Z" fill="#2C395D"/>
<path d="M148.351 263.995C151.577 263.995 154.191 261.38 154.191 258.154C154.191 254.929 151.577 252.314 148.351 252.314C145.125 252.314 142.51 254.929 142.51 258.154C142.51 261.38 145.125 263.995 148.351 263.995Z" fill="#EC4A42"/>
<path d="M131.998 263.995C135.223 263.995 137.838 261.38 137.838 258.154C137.838 254.929 135.223 252.314 131.998 252.314C128.772 252.314 126.157 254.929 126.157 258.154C126.157 261.38 128.772 263.995 131.998 263.995Z" fill="#EC4A42"/>
<path d="M115.644 263.995C118.869 263.995 121.484 261.38 121.484 258.154C121.484 254.929 118.869 252.314 115.644 252.314C112.418 252.314 109.803 254.929 109.803 258.154C109.803 261.38 112.418 263.995 115.644 263.995Z" fill="#EC4A42"/>
<path d="M99.2905 263.995C102.516 263.995 105.131 261.38 105.131 258.154C105.131 254.929 102.516 252.314 99.2905 252.314C96.0649 252.314 93.45 254.929 93.45 258.154C93.45 261.38 96.0649 263.995 99.2905 263.995Z" fill="#EC4A42"/>
<path d="M82.9368 263.995C86.1625 263.995 88.7774 261.38 88.7774 258.154C88.7774 254.929 86.1625 252.314 82.9368 252.314C79.7111 252.314 77.0962 254.929 77.0962 258.154C77.0962 261.38 79.7111 263.995 82.9368 263.995Z" fill="#EC4A42"/>
<path d="M266.331 65.9987V21.6102H288.525V0H179.89V108.635H272.756V98.0136C272.756 96.0336 273.146 94.0731 273.903 92.2438C274.661 90.4146 275.772 88.7525 277.172 87.3524C278.572 85.9524 280.234 84.8418 282.063 84.0841C283.892 83.3264 285.853 82.9365 287.833 82.9365H288.525V65.9987H266.331Z" fill="white"/>
<path d="M386.647 280.349H314.224V295.534H386.647V280.349Z" fill="#4267B2"/>
<path d="M402.417 205.589H296.118V219.606H402.417V205.589Z" fill="white"/>
<path d="M454.398 359.197H0V360.365H454.398V359.197Z" fill="#2C395D"/>
<path d="M420.631 360.365H287.833C283.681 360.36 279.7 358.708 276.764 355.772C273.828 352.836 272.177 348.855 272.172 344.703V98.0135C272.177 93.8613 273.828 89.8805 276.764 86.9445C279.7 84.0085 283.681 82.357 287.833 82.3522H420.631C424.784 82.357 428.764 84.0085 431.7 86.9445C434.636 89.8805 436.288 93.8613 436.293 98.0135V344.703C436.288 348.855 434.636 352.836 431.7 355.772C428.764 358.708 424.784 360.36 420.631 360.365ZM287.833 83.5204C283.991 83.5247 280.307 85.0531 277.59 87.7701C274.873 90.4872 273.344 94.171 273.34 98.0135V344.703C273.344 348.546 274.873 352.23 277.59 354.947C280.307 357.664 283.991 359.192 287.833 359.196H420.631C424.474 359.192 428.158 357.664 430.875 354.947C433.592 352.23 435.12 348.546 435.124 344.703V98.0135C435.12 94.171 433.592 90.4872 430.875 87.7701C428.158 85.0531 424.474 83.5247 420.631 83.5204H287.833Z" fill="#2C395D"/>
<path d="M338.463 94.0335C337.77 94.0335 337.092 93.828 336.516 93.4429C335.939 93.0578 335.49 92.5105 335.225 91.8702C334.96 91.2299 334.89 90.5253 335.026 89.8455C335.161 89.1657 335.495 88.5413 335.985 88.0512C336.475 87.5611 337.099 87.2273 337.779 87.0921C338.459 86.9569 339.163 87.0263 339.804 87.2915C340.444 87.5568 340.991 88.0059 341.376 88.5822C341.761 89.1585 341.967 89.836 341.967 90.5291C341.966 91.4582 341.596 92.349 340.939 93.006C340.282 93.6629 339.392 94.0325 338.463 94.0335ZM338.463 88.1929C338.001 88.1929 337.549 88.3299 337.165 88.5866C336.78 88.8433 336.481 89.2082 336.304 89.6351C336.127 90.062 336.081 90.5317 336.171 90.9849C336.261 91.4381 336.484 91.8544 336.811 92.1811C337.137 92.5078 337.554 92.7303 338.007 92.8205C338.46 92.9106 338.93 92.8644 339.357 92.6875C339.784 92.5107 340.148 92.2113 340.405 91.8271C340.662 91.4429 340.799 90.9912 340.799 90.5291C340.798 89.9097 340.552 89.3159 340.114 88.8779C339.676 88.4399 339.082 88.1936 338.463 88.1929Z" fill="#2C395D"/>
<path d="M372.922 89.9448H347.223V91.1129H372.922V89.9448Z" fill="#2C395D"/>
<path d="M425.78 99.2899V146.015C413.388 146.014 401.503 141.091 392.741 132.329C383.978 123.566 379.055 111.682 379.055 99.2899H425.78Z" fill="#4267B2"/>
<path d="M426.363 344.595H282.101V98.7059H426.363V344.595ZM283.269 343.427H425.195V99.8741H283.269V343.427Z" fill="#2C395D"/>
<path opacity="0.1" d="M391.904 143.094C400.613 143.094 407.673 136.034 407.673 127.325C407.673 118.615 400.613 111.555 391.904 111.555C383.195 111.555 376.134 118.615 376.134 127.325C376.134 136.034 383.195 143.094 391.904 143.094Z" fill="white"/>
<path d="M389.568 144.847C398.277 144.847 405.338 137.786 405.338 129.077C405.338 120.368 398.277 113.308 389.568 113.308C380.859 113.308 373.798 120.368 373.798 129.077C373.798 137.786 380.859 144.847 389.568 144.847Z" fill="#4267B2"/>
<path d="M310.72 108.635H288.526V116.812H310.72V108.635Z" fill="#2C395D"/>
<path d="M322.985 186.315H300.791V194.492H322.985V186.315Z" fill="#2C395D"/>
<path d="M408.258 216.686H300.791V201.501H408.258V216.686ZM301.959 215.518H407.09V202.669H301.959V215.518Z" fill="#2C395D"/>
<path d="M402.417 249.978H296.118V263.995H402.417V249.978Z" fill="white"/>
<path d="M322.985 230.704H300.791V238.88H322.985V230.704Z" fill="#2C395D"/>
<path d="M408.258 261.074H300.791V245.889H408.258V261.074ZM301.959 259.906H407.09V247.057H301.959V259.906Z" fill="#2C395D"/>
<path d="M391.32 292.03H317.729V275.676H391.32V292.03ZM318.897 290.862H390.152V276.844H318.897V290.862Z" fill="#2C395D"/>
<path d="M405.338 210.845C405.338 212.048 404.966 213.221 404.275 214.205C403.583 215.188 402.605 215.934 401.474 216.341C400.342 216.748 399.113 216.796 397.953 216.478C396.793 216.161 395.76 215.493 394.994 214.566L394.988 214.56C394.43 213.883 394.031 213.088 393.822 212.236C393.613 211.383 393.599 210.495 393.781 209.636C393.962 208.777 394.335 207.971 394.872 207.276C395.408 206.581 396.094 206.016 396.879 205.623C397.664 205.23 398.527 205.019 399.405 205.006C400.282 204.992 401.152 205.177 401.948 205.545C402.745 205.914 403.448 206.458 404.005 207.136C404.563 207.814 404.96 208.609 405.168 209.461C405.168 209.462 405.168 209.463 405.169 209.463C405.169 209.464 405.17 209.465 405.17 209.465C405.171 209.466 405.171 209.466 405.172 209.467C405.173 209.467 405.173 209.467 405.174 209.467C405.282 209.919 405.337 210.381 405.338 210.845Z" fill="#4267B2"/>
<path opacity="0.1" d="M405.337 210.845C405.337 212.048 404.966 213.221 404.274 214.204C403.583 215.188 402.605 215.934 401.473 216.341C400.342 216.748 399.112 216.796 397.953 216.478C396.793 216.16 395.76 215.493 394.994 214.566L394.988 214.56C394.88 214.108 394.825 213.646 394.824 213.181C394.824 211.979 395.196 210.806 395.887 209.822C396.579 208.839 397.557 208.093 398.688 207.686C399.82 207.279 401.049 207.231 402.209 207.549C403.369 207.866 404.402 208.534 405.168 209.461C405.168 209.462 405.168 209.463 405.168 209.463C405.169 209.464 405.169 209.465 405.17 209.465C405.17 209.466 405.171 209.466 405.171 209.466C405.172 209.467 405.173 209.467 405.174 209.467C405.282 209.918 405.337 210.381 405.337 210.845Z" fill="white"/>
<path d="M401.833 220.191C405.059 220.191 407.674 217.576 407.674 214.35C407.674 211.124 405.059 208.509 401.833 208.509C398.608 208.509 395.993 211.124 395.993 214.35C395.993 217.576 398.608 220.191 401.833 220.191Z" fill="#4267B2"/>
<path d="M405.338 255.234C405.338 256.436 404.966 257.609 404.275 258.593C403.583 259.577 402.605 260.323 401.474 260.73C400.342 261.137 399.113 261.185 397.953 260.867C396.793 260.549 395.76 259.881 394.994 258.954L394.988 258.948C394.43 258.271 394.031 257.477 393.822 256.624C393.613 255.772 393.599 254.883 393.781 254.025C393.962 253.166 394.335 252.359 394.872 251.664C395.408 250.97 396.094 250.405 396.879 250.012C397.664 249.619 398.527 249.407 399.405 249.394C400.282 249.381 401.152 249.565 401.948 249.934C402.745 250.303 403.448 250.846 404.005 251.524C404.563 252.202 404.96 252.997 405.168 253.85C405.168 253.85 405.168 253.851 405.169 253.852C405.169 253.853 405.17 253.853 405.17 253.854C405.171 253.854 405.171 253.855 405.172 253.855C405.173 253.855 405.173 253.856 405.174 253.856C405.282 254.307 405.337 254.77 405.338 255.234Z" fill="#4267B2"/>
<path opacity="0.1" d="M405.337 255.234C405.337 256.437 404.966 257.61 404.274 258.593C403.583 259.577 402.605 260.323 401.473 260.73C400.342 261.137 399.112 261.185 397.953 260.867C396.793 260.549 395.76 259.881 394.994 258.955L394.988 258.949C394.88 258.497 394.825 258.035 394.824 257.57C394.824 256.368 395.196 255.195 395.887 254.211C396.579 253.228 397.557 252.481 398.688 252.075C399.82 251.668 401.049 251.62 402.209 251.937C403.369 252.255 404.402 252.923 405.168 253.85C405.168 253.851 405.168 253.851 405.168 253.852C405.169 253.853 405.169 253.854 405.17 253.854C405.17 253.855 405.171 253.855 405.171 253.855C405.172 253.856 405.173 253.856 405.174 253.856C405.282 254.307 405.337 254.77 405.337 255.234Z" fill="white"/>
<path d="M401.833 264.579C405.059 264.579 407.674 261.964 407.674 258.738C407.674 255.512 405.059 252.897 401.833 252.897C398.608 252.897 395.993 255.512 395.993 258.738C395.993 261.964 398.608 264.579 401.833 264.579Z" fill="#4267B2"/>
<path d="M303.711 28.0352H273.34V58.4063H303.711V28.0352Z" fill="white"/>
<path d="M391.904 50.2288C390.518 50.2288 389.162 49.8177 388.01 49.0476C386.857 48.2775 385.959 47.1829 385.429 45.9022C384.898 44.6215 384.759 43.2123 385.03 41.8528C385.3 40.4932 385.968 39.2444 386.948 38.2642C387.928 37.284 389.177 36.6165 390.536 36.346C391.896 36.0756 393.305 36.2144 394.586 36.7449C395.867 37.2754 396.961 38.1737 397.731 39.3263C398.501 40.4788 398.912 41.8339 398.912 43.2201C398.91 45.0783 398.171 46.8598 396.857 48.1737C395.543 49.4876 393.762 50.2267 391.904 50.2288ZM391.904 37.3795C390.749 37.3795 389.619 37.722 388.659 38.3638C387.698 39.0056 386.95 39.9178 386.508 40.985C386.066 42.0522 385.95 43.2266 386.175 44.3595C386.401 45.4925 386.957 46.5332 387.774 47.35C388.591 48.1668 389.631 48.7231 390.764 48.9484C391.897 49.1738 393.072 49.0582 394.139 48.6161C395.206 48.174 396.118 47.4254 396.76 46.4649C397.402 45.5045 397.744 44.3752 397.744 43.2201C397.743 41.6716 397.127 40.1871 396.032 39.0921C394.937 37.9972 393.452 37.3813 391.904 37.3795Z" fill="#2C395D"/>
<path d="M237.713 147.767H222.527V132.582H237.713V147.767ZM223.695 146.599H236.545V133.75H223.695V146.599Z" fill="#2C395D"/>
<path d="M469 261.074H453.815V245.889H469V261.074ZM454.983 259.906H467.832V247.057H454.983V259.906Z" fill="#2C395D"/>
<path d="M169.378 159.254L171.984 160.657L180.852 165.436L195.167 173.149L203.51 157.671C204.295 156.216 204.787 154.621 204.955 152.977C205.124 151.333 204.966 149.671 204.492 148.088C204.017 146.504 203.235 145.03 202.191 143.749C201.146 142.468 199.859 141.406 198.403 140.623C195.291 138.943 191.727 138.293 188.223 138.769C184.72 139.244 181.457 140.82 178.906 143.268L178.902 143.272C177.646 144.478 176.587 145.872 175.762 147.404L169.378 159.254Z" fill="#2C395D"/>
<path d="M208.451 317.107L206.702 336.345L200.143 337.22L195.771 315.358L208.451 317.107Z" fill="#FFB8B8"/>
<path d="M198.394 337.22C198.394 337.22 206.702 332.848 208.451 336.346C208.451 336.346 207.139 346.84 212.386 348.151C217.633 349.463 219.819 358.645 212.386 359.52C204.953 360.394 200.143 357.771 197.52 357.771C194.897 357.771 197.52 348.589 197.52 348.589L198.394 337.22Z" fill="#2C395D"/>
<path d="M155.544 317.107L157.293 336.345L163.852 337.22L168.224 315.358L155.544 317.107Z" fill="#FFB8B8"/>
<path d="M165.601 337.22C165.601 337.22 157.293 332.848 155.544 336.346C155.544 336.346 156.856 346.84 151.609 348.151C146.362 349.463 144.176 358.645 151.609 359.52C159.042 360.394 163.852 357.771 166.475 357.771C169.099 357.771 166.475 348.589 166.475 348.589L165.601 337.22Z" fill="#2C395D"/>
<path d="M191.398 162.76C197.677 162.76 202.767 157.67 202.767 151.392C202.767 145.113 197.677 140.023 191.398 140.023C185.12 140.023 180.03 145.113 180.03 151.392C180.03 157.67 185.12 162.76 191.398 162.76Z" fill="#FFB8B8"/>
<path d="M155.106 173.692L164.289 188.121L175.22 187.246L193.147 188.558C193.147 188.558 194.839 185.174 196.221 181.881C196.977 180.237 197.559 178.518 197.956 176.752C198.394 173.692 192.272 170.631 192.272 170.631C192.272 170.631 192.032 170.587 191.629 170.491C191.096 170.364 190.274 170.154 189.373 169.848C187.34 169.157 184.896 167.986 184.402 166.258C183.527 163.198 190.086 158.825 190.086 158.825L182.216 151.392C182.216 151.392 175.224 161.103 166.733 163.316C166.24 163.446 165.741 163.548 165.237 163.622C165.211 163.626 165.189 163.631 165.163 163.635C155.981 164.947 155.106 173.692 155.106 173.692Z" fill="#FFB8B8"/>
<path d="M159.917 169.756L155.107 173.692C155.107 173.692 151.172 192.493 152.484 197.74C153.796 202.987 152.047 207.797 152.047 208.671C152.047 209.546 148.111 242.339 148.111 242.339C148.111 242.339 140.241 259.829 148.549 258.08C156.856 256.331 153.796 238.841 153.796 238.841L163.852 208.234V182.437L159.917 169.756Z" fill="#FFB8B8"/>
<path d="M194.458 173.254L197.956 175.878L199.705 212.606L212.823 244.088C212.823 244.088 222.442 259.391 216.321 259.829C210.199 260.266 206.264 244.088 206.264 244.088L194.458 213.918L192.709 184.623L194.458 173.254Z" fill="#FFB8B8"/>
<path d="M172.597 175.877C172.597 175.877 181.342 181.999 195.334 179.813C195.334 179.813 199.269 187.683 197.083 192.055C194.897 196.428 199.706 206.922 200.581 208.233C201.455 209.545 211.512 236.654 215.01 265.95C218.508 295.245 228.127 315.358 219.82 317.982C211.512 320.605 194.459 323.666 192.71 321.042C190.961 318.419 188.338 253.269 188.338 253.269L183.528 278.192C183.528 278.192 190.087 320.605 185.277 321.48C180.468 322.354 150.298 319.731 151.172 314.484C152.047 309.237 160.792 281.69 160.792 281.69C160.792 281.69 160.354 226.598 169.099 216.104C169.099 216.104 172.597 210.42 167.788 202.986C162.978 195.553 163.415 183.748 163.415 183.748C163.415 183.748 166.913 183.748 172.597 175.877Z" fill="#2C395D"/>
<path d="M165.238 163.621L172.597 179.813L174.346 178.938L166.733 163.315L165.238 163.621Z" fill="#2C395D"/>
<path d="M189.374 169.848L194.897 181.999L196.222 181.881L195.771 179.813L191.63 170.491C191.097 170.364 190.275 170.155 189.374 169.848Z" fill="#2C395D"/>
<path d="M171.985 160.657C172.406 162.009 173.216 163.208 174.314 164.102C175.413 164.996 176.751 165.546 178.161 165.684C179.571 165.821 180.989 165.539 182.24 164.873C183.49 164.208 184.516 163.188 185.19 161.942C179.659 154.71 184.403 150.167 193.388 146.73C194.065 145.474 194.353 144.045 194.215 142.625C194.077 141.205 193.52 139.858 192.614 138.755C190.138 138.438 187.621 138.679 185.25 139.46C182.878 140.24 180.711 141.541 178.907 143.267L178.902 143.272L172.519 155.112C172.064 155.954 171.783 156.878 171.691 157.83C171.599 158.783 171.699 159.744 171.985 160.657Z" fill="#2C395D"/>
<path d="M184.621 155.327C185.466 155.327 186.152 154.152 186.152 152.703C186.152 151.254 185.466 150.08 184.621 150.08C183.776 150.08 183.091 151.254 183.091 152.703C183.091 154.152 183.776 155.327 184.621 155.327Z" fill="#FFB8B8"/>
<path d="M189.182 148.423L202.326 154.378L204.735 149.061C204.32 147.118 203.451 145.301 202.199 143.758L193.152 139.661L189.182 148.423Z" fill="#2C395D"/>
<path d="M220.774 265.747C224 265.747 226.615 263.132 226.615 259.906C226.615 256.681 224 254.066 220.774 254.066C217.549 254.066 214.934 256.681 214.934 259.906C214.934 263.132 217.549 265.747 220.774 265.747Z" fill="#EC4A42"/>
<path d="M33.266 300.467C35.3741 300.467 37.0831 298.758 37.0831 296.65C37.0831 294.542 35.3741 292.833 33.266 292.833C31.1579 292.833 29.449 294.542 29.449 296.65C29.449 298.758 31.1579 300.467 33.266 300.467Z" fill="white"/>
<path d="M52.5507 316.545H51.3826V360.005H52.5507V316.545Z" fill="#2C395D"/>
<path d="M51.9672 322.69C55.3616 322.69 58.1132 319.939 58.1132 316.544C58.1132 313.15 55.3616 310.398 51.9672 310.398C48.5729 310.398 45.8213 313.15 45.8213 316.544C45.8213 319.939 48.5729 322.69 51.9672 322.69Z" fill="#2C395D"/>
<path d="M51.9669 343.33C51.9669 343.33 51.0889 324.446 33.0901 326.641L51.9669 343.33Z" fill="#2C395D"/>
</svg>
