<svg width="394" height="403" viewBox="0 0 394 403" fill="none" xmlns="http://www.w3.org/2000/svg">
<path d="M315.81 120.149C270.903 60.6577 192.186 37.1559 122.679 64.0759C85.9331 78.3077 52.7744 106.401 42.65 160.236C24.5517 256.472 99.2131 286.369 146.411 295.653C169.224 300.163 191.295 307.836 211.985 318.45C249.237 337.513 312.463 354.09 345.304 272.724C369.107 213.751 345.723 159.776 315.81 120.149Z" fill="white"/>
<path opacity="0.1" d="M255.376 240.896L293.178 203.209L255.376 165.522L266.901 154.036L316.228 203.209L266.901 252.382L255.376 240.896Z" fill="white"/>
<path opacity="0.1" d="M147.426 205.898H162.792V190.531H147.426V205.898ZM224.566 190.531H209.2V205.898H224.566V190.531ZM178.313 205.898H193.679V190.531H178.313V205.898Z" fill="white"/>
<path opacity="0.1" d="M126.604 240.512L88.7631 202.825L126.565 165.138L115.04 153.651L65.7515 202.825L115.079 251.998L126.604 240.512Z" fill="white"/>
<path d="M221.99 279.527C221.99 304.12 237.419 324.02 256.485 324.02L221.99 279.527Z" fill="white"/>
<path d="M256.486 324.021C256.486 299.151 273.703 279.027 294.98 279.027L256.486 324.021Z" fill="#EC4A42"/>
<path d="M234.489 281.756C234.489 305.117 244.328 324.02 256.486 324.02L234.489 281.756Z" fill="#EC4A42"/>
<path d="M256.486 324.02C256.486 292.243 276.386 266.529 300.979 266.529L256.486 324.02Z" fill="white"/>
<path d="M249.229 324.334C249.229 324.334 254.121 324.184 255.595 323.134C257.07 322.084 263.12 320.83 263.486 322.514C263.852 324.198 270.838 330.888 265.315 330.933C259.792 330.977 252.482 330.072 251.01 329.176C249.539 328.28 249.229 324.334 249.229 324.334Z" fill="#2C395D"/>
<path opacity="0.2" d="M265.413 330.346C259.89 330.391 252.58 329.486 251.109 328.59C249.988 327.907 249.542 325.458 249.392 324.328C249.289 324.332 249.229 324.334 249.229 324.334C249.229 324.334 249.539 328.279 251.01 329.176C252.482 330.072 259.792 330.977 265.315 330.932C266.909 330.919 267.46 330.352 267.429 329.512C267.208 330.02 266.6 330.337 265.413 330.346Z" fill="white"/>
<path d="M311.439 193.051C311.439 193.051 299.611 184.071 298.713 187.363C297.816 190.654 307.392 198.136 307.392 198.136L311.439 193.051Z" fill="#FFB8B8"/>
<path opacity="0.1" d="M311.439 193.051C311.439 193.051 299.611 184.071 298.713 187.363C297.816 190.654 307.392 198.136 307.392 198.136L311.439 193.051Z" fill="white"/>
<path d="M350.486 164.618C350.486 164.618 336.421 189.756 336.122 193.348C335.822 196.939 335.822 197.238 334.625 196.939C333.428 196.64 316.969 194.844 315.473 195.442C313.976 196.041 310.984 191.851 310.984 191.851C310.984 191.851 305.298 197.537 306.495 198.734C307.692 199.931 311.283 200.53 311.881 202.026C312.48 203.523 313.378 205.019 316.071 204.72C318.764 204.42 337.019 209.508 339.414 208.61C341.808 207.712 342.406 206.216 343.603 206.216C344.8 206.216 347.194 205.019 347.194 204.72C347.194 204.42 355.574 188.559 355.574 188.559C355.574 188.559 365.449 167.013 350.486 164.618Z" fill="#EC4A42"/>
<path opacity="0.1" d="M350.486 164.618C350.486 164.618 336.421 189.756 336.122 193.348C335.822 196.939 335.822 197.238 334.625 196.939C333.428 196.64 316.969 194.844 315.473 195.442C313.976 196.041 310.984 191.851 310.984 191.851C310.984 191.851 305.298 197.537 306.495 198.734C307.692 199.931 311.283 200.53 311.881 202.026C312.48 203.523 313.378 205.019 316.071 204.72C318.764 204.42 337.019 209.508 339.414 208.61C341.808 207.712 342.406 206.216 343.603 206.216C344.8 206.216 347.194 205.019 347.194 204.72C347.194 204.42 355.574 188.559 355.574 188.559C355.574 188.559 365.449 167.013 350.486 164.618Z" fill="white"/>
<path d="M330.08 148.046C329.952 149.635 329.978 151.233 330.156 152.817C330.611 156.256 332.194 159.84 330.699 163.049C330.156 164.214 329.236 165.229 328.736 166.408C327.676 168.904 328.637 171.672 328.493 174.328C328.307 177.759 326.124 181.065 322.804 182.946C328.476 183.122 333.87 180.318 337.439 176.496C341.007 172.675 342.995 167.936 344.485 163.194C345.25 160.967 345.741 158.654 345.946 156.308C346.065 154.961 345.907 153.603 345.482 152.318C344.958 151.064 344.268 149.885 343.43 148.814C342.536 147.557 341.618 146.276 340.3 145.341C338.676 144.19 335.545 143.034 333.39 143.201C330.748 143.407 330.191 146.212 330.08 148.046Z" fill="#2C395D"/>
<path d="M338.814 157.436C338.814 157.436 342.106 169.107 339.413 172.399C336.72 175.691 355.573 170.903 355.573 170.903C355.573 170.903 346.296 161.626 350.785 155.64L338.814 157.436Z" fill="#FFB8B8"/>
<path opacity="0.1" d="M338.814 157.436C338.814 157.436 342.106 169.107 339.413 172.399C336.72 175.691 355.573 170.903 355.573 170.903C355.573 170.903 346.296 161.626 350.785 155.64L338.814 157.436Z" fill="white"/>
<path d="M255.376 233.596L293.178 195.91L255.376 158.223L266.901 146.736L316.228 195.91L266.901 245.083L255.376 233.596Z" fill="#EC4A42"/>
<path d="M328.041 313.052V321.731L332.53 327.118L336.42 325.322L335.223 312.753L328.041 313.052Z" fill="#FFB8B8"/>
<path d="M329.837 321.133C329.837 321.133 328.64 316.943 326.545 319.936C324.45 322.928 322.355 329.512 321.158 329.811C319.961 330.111 311.582 339.388 319.961 339.388C328.341 339.388 331.034 335.497 331.034 335.497C331.034 335.497 339.413 332.205 339.413 331.607C339.413 331.008 338.216 319.936 337.618 319.936C337.019 319.936 336.72 322.03 335.224 322.03C333.727 322.03 329.837 321.133 329.837 321.133Z" fill="#2C395D"/>
<path d="M348.092 314.549L347.793 322.629L354.975 325.622V313.951L348.092 314.549Z" fill="#FFB8B8"/>
<path d="M355.873 322.629C355.873 322.629 351.983 318.44 349.888 319.337C348.852 319.754 347.851 320.255 346.895 320.834C346.895 320.834 345.698 324.724 345.1 328.016C344.501 331.308 344.202 332.804 343.603 334.001C343.005 335.198 342.406 339.687 348.392 340.286C354.377 340.884 356.172 337.592 356.172 337.592L357.669 329.812C357.669 329.812 357.07 322.629 355.873 322.629Z" fill="#2C395D"/>
<path d="M331.932 228.361C331.932 228.361 323.253 247.813 324.45 265.47C324.45 265.47 321.457 272.353 323.253 283.126C325.049 293.9 327.443 315.447 327.443 315.447C327.443 315.447 335.523 316.344 336.121 314.848C336.121 314.848 336.72 299.885 337.318 299.286C337.917 298.688 337.019 284.922 336.121 282.229C335.223 279.535 344.501 252.901 344.501 252.901L342.106 219.683L331.932 228.361Z" fill="#2C395D"/>
<path opacity="0.1" d="M331.932 228.361C331.932 228.361 323.253 247.813 324.45 265.47C324.45 265.47 321.457 272.353 323.253 283.126C325.049 293.9 327.443 315.447 327.443 315.447C327.443 315.447 335.523 316.344 336.121 314.848C336.121 314.848 336.72 299.885 337.318 299.286C337.917 298.688 337.019 284.922 336.121 282.229C335.223 279.535 344.501 252.901 344.501 252.901L342.106 219.683L331.932 228.361Z" fill="white"/>
<path d="M329.538 227.164L335.224 239.434C335.224 239.434 337.918 267.265 339.414 270.857C339.414 270.857 340.013 281.032 342.706 284.323C345.399 287.615 347.494 316.644 347.494 316.644C347.494 316.644 354.976 318.739 355.574 316.644C356.173 314.549 357.968 300.184 357.968 300.184C357.968 300.184 358.567 287.915 355.275 279.834C351.983 271.754 359.165 242.726 359.165 242.726C359.165 242.726 366.647 228.661 355.873 217.289L329.538 227.164Z" fill="#2C395D"/>
<path d="M345.399 161.027C352.175 161.027 357.669 155.534 357.669 148.758C357.669 141.981 352.175 136.488 345.399 136.488C338.623 136.488 333.129 141.981 333.129 148.758C333.129 155.534 338.623 161.027 345.399 161.027Z" fill="#FFB8B8"/>
<path d="M356.771 167.312C356.771 167.312 343.903 167.312 342.107 168.808C341.663 169.231 341.074 169.466 340.461 169.466C339.848 169.466 339.259 169.231 338.815 168.808C338.815 168.808 334.326 169.107 333.129 172.698C331.932 176.29 328.341 181.078 328.341 181.078C328.341 181.078 322.954 184.968 325.947 195.143C328.94 205.318 326.545 221.778 326.545 221.778C326.545 221.778 324.151 225.369 326.545 226.865C328.94 228.361 329.837 228.96 329.538 230.157C329.239 231.354 356.771 220.281 356.771 218.186C356.771 216.092 356.172 214.296 356.771 213.398C357.369 212.5 357.968 211.004 357.369 209.508C356.771 208.011 357.968 207.712 357.669 206.216C357.369 204.72 359.165 193.647 360.362 188.859C361.559 184.07 361.26 167.611 356.771 167.312Z" fill="#EC4A42"/>
<path d="M311.439 196.642C311.439 196.642 299.611 187.661 298.713 190.953C297.816 194.245 307.392 201.727 307.392 201.727L311.439 196.642Z" fill="#FFB8B8"/>
<path d="M350.486 168.808C350.486 168.808 336.421 193.946 336.122 197.537C335.822 201.129 335.822 201.428 334.625 201.129C333.428 200.829 316.969 199.034 315.473 199.632C313.976 200.231 310.984 196.041 310.984 196.041C310.984 196.041 305.298 201.727 306.495 202.924C307.692 204.121 311.283 204.72 311.881 206.216C312.48 207.712 313.378 209.209 316.071 208.909C318.764 208.61 337.019 213.698 339.414 212.8C341.808 211.902 342.406 210.406 343.603 210.406C344.8 210.406 347.194 209.209 347.194 208.909C347.194 208.61 355.574 192.749 355.574 192.749C355.574 192.749 365.449 171.202 350.486 168.808Z" fill="#EC4A42"/>
<path d="M339.323 156.597C339.153 155.382 338.53 154.279 338.211 153.094C337.961 152.146 337.906 151.157 338.048 150.187C338.19 149.217 338.527 148.285 339.039 147.449C340.799 144.606 344.254 143.347 346.664 141.03C346.714 142.21 347.533 143.219 348.438 143.978C349.344 144.737 350.382 145.353 351.149 146.252C351.885 147.201 352.422 148.288 352.727 149.45C353.199 150.796 353.411 152.219 353.351 153.644C353.316 154.356 353.137 155.053 352.825 155.694C352.512 156.335 352.073 156.905 351.533 157.371C350.636 158.08 349.382 158.485 348.948 159.544C348.777 160.073 348.728 160.634 348.804 161.184C349.009 164.477 349.201 167.828 348.426 171.035C347.651 174.241 345.751 177.339 342.774 178.76C345.221 178.934 347.719 179.103 350.092 178.486C352.466 177.868 354.736 176.313 355.554 174.001C355.958 172.861 355.996 171.592 356.569 170.527C358.021 167.83 362.03 167.708 363.999 165.362C364.787 164.424 365.168 163.215 365.451 162.022C367.114 155.006 365.946 147.555 363.414 140.803C362.542 138.476 361.456 136.132 359.584 134.497C357.992 133.105 355.958 132.338 353.947 131.683C351.012 130.727 347.989 129.944 344.904 129.843C343.564 129.764 342.22 129.921 340.934 130.306C339.665 130.765 338.483 131.438 337.441 132.296C332.609 136.056 329.319 142.066 329.755 148.174C330.019 151.869 331.585 155.367 333.597 158.478C334.3 159.566 335.963 161.887 337.508 161.202C338.909 160.582 339.507 157.909 339.323 156.597Z" fill="#2C395D"/>
<path d="M147.426 198.599H162.792V183.232H147.426V198.599ZM224.566 183.232H209.2V198.599H224.566V183.232ZM178.313 198.599H193.679V183.232H178.313V198.599Z" fill="#EC4A42"/>
<path d="M58.1467 137.438C65.2877 137.438 71.0766 132.922 71.0766 127.353C71.0766 121.783 65.2877 117.267 58.1467 117.267C51.0057 117.267 45.2168 121.783 45.2168 127.353C45.2168 132.922 51.0057 137.438 58.1467 137.438Z" fill="#2C395D"/>
<path d="M60.3449 196.787C60.3449 196.787 71.9818 197.562 74.0506 196.011C76.1194 194.459 84.9118 198.08 85.6875 200.148C86.4633 202.217 73.2748 202.476 71.2061 202.476C69.1373 202.476 59.3105 205.579 59.3105 205.579L60.3449 196.787Z" fill="#A0616A"/>
<path d="M36.3825 317.247C36.3825 317.247 30.9592 330.923 33.7888 332.574C36.6183 334.224 66.3284 333.045 66.3284 333.045C66.3284 333.045 71.2801 329.98 65.6211 327.858C65.6211 327.858 60.9052 327.622 57.8398 325.736C54.7745 323.849 51.2376 320.312 51.2376 320.312C51.2376 320.312 51.0018 315.125 49.1154 316.304C48.5511 316.676 48.0707 317.161 47.7052 317.73C47.3398 318.298 47.0973 318.937 46.9933 319.605L36.3825 317.247Z" fill="#2C395D"/>
<path opacity="0.1" d="M36.3825 317.247C36.3825 317.247 30.9592 330.923 33.7888 332.574C36.6183 334.224 66.3284 333.045 66.3284 333.045C66.3284 333.045 71.2801 329.98 65.6211 327.858C65.6211 327.858 60.9052 327.622 57.8398 325.736C54.7745 323.849 51.2376 320.312 51.2376 320.312C51.2376 320.312 51.0018 315.125 49.1154 316.304C48.5511 316.676 48.0707 317.161 47.7052 317.73C47.3398 318.298 47.0973 318.937 46.9933 319.605L36.3825 317.247Z" fill="white"/>
<path d="M126.604 233.212L88.7631 195.525L126.565 157.838L115.04 146.352L65.7515 195.525L115.079 244.699L126.604 233.212Z" fill="#EC4A42"/>
<path d="M28.0205 321.43C28.0205 321.43 22.0728 336.429 25.1759 338.239C28.2791 340.049 60.8624 338.756 60.8624 338.756C60.8624 338.756 66.293 335.394 60.0866 333.067C60.0866 333.067 54.9147 332.809 51.5529 330.74C48.1911 328.671 44.3122 324.792 44.3122 324.792C44.3122 324.792 44.0536 319.103 41.9848 320.396C41.3658 320.804 40.839 321.336 40.4382 321.96C40.0374 322.583 39.7714 323.284 39.6574 324.016L28.0205 321.43Z" fill="#2C395D"/>
<path d="M58.5346 226.266L54.9143 258.85C54.9143 258.85 53.6213 274.365 49.7423 277.727C49.7423 277.727 49.7423 282.641 48.4493 284.192L46.6391 304.621C46.6391 304.621 49.2251 312.121 48.9665 313.414C48.7079 314.707 50.0009 318.844 49.7423 319.361C49.4837 319.879 37.3296 319.361 37.3296 319.361L39.9156 277.727L47.9321 219.801L58.5346 226.266Z" fill="#2C395D"/>
<path opacity="0.1" d="M58.5346 226.266L54.9143 258.85C54.9143 258.85 53.6213 274.365 49.7423 277.727C49.7423 277.727 49.7423 282.641 48.4493 284.192L46.6391 304.621C46.6391 304.621 49.2251 312.121 48.9665 313.414C48.7079 314.707 50.0009 318.844 49.7423 319.361C49.4837 319.879 37.3296 319.361 37.3296 319.361L39.9156 277.727L47.9321 219.801L58.5346 226.266Z" fill="white"/>
<path d="M52.0707 225.232C52.0707 225.232 49.2261 251.867 47.9332 257.557C47.1202 261.303 46.6014 265.107 46.3816 268.935C46.3816 268.935 46.123 277.21 43.7956 279.537C43.1146 280.212 42.5796 281.019 42.2237 281.908C41.8678 282.798 41.6987 283.752 41.7268 284.709C41.7268 284.709 39.3994 310.828 40.6924 313.931C41.9854 317.034 43.2784 319.62 41.9854 321.689C40.6924 323.758 26.4695 323.758 26.4695 322.206C26.4695 320.654 26.4695 319.361 25.6937 318.586C24.9179 317.81 25.6937 312.897 25.6937 312.897C25.6937 312.897 22.5906 289.881 25.4351 283.158C28.2797 276.434 29.5727 258.074 29.5727 258.074C29.5727 258.074 27.5039 237.127 24.9179 233.766C22.332 230.404 25.4351 218.508 25.4351 218.508L52.0707 225.232Z" fill="#2C395D"/>
<path d="M44.7905 142.517C45.0912 143.202 45.8107 143.584 46.4658 143.944C50.2625 146.036 53.4406 149.069 56.5718 152.066C55.7905 149.419 55.957 146.581 57.0425 144.043C57.4164 143.178 57.9063 142.247 57.6391 141.343C57.4426 140.678 56.8763 140.198 56.3278 139.774C55.0502 138.786 53.7148 137.875 52.3287 137.045C51.3605 136.466 49.3698 134.924 48.2586 135.092C48.2003 136.593 48.1698 137.935 47.5124 139.338C47.3564 139.671 44.9055 142.779 44.7905 142.517Z" fill="#A0616A"/>
<path d="M58.0178 145.843C63.8734 145.843 68.6203 141.096 68.6203 135.24C68.6203 129.384 63.8734 124.638 58.0178 124.638C52.1622 124.638 47.4153 129.384 47.4153 135.24C47.4153 141.096 52.1622 145.843 58.0178 145.843Z" fill="#A0616A"/>
<path d="M58.5353 160.324C58.5353 160.324 60.3455 151.273 55.1735 148.17C50.0016 145.067 44.0538 141.446 44.0538 141.446C44.0538 141.446 42.2436 141.188 41.4678 145.067C41.4678 145.067 26.7278 147.911 25.1762 161.875C23.6246 175.84 26.2106 196.269 26.2106 196.269C26.2106 196.269 23.8832 214.112 21.0386 223.68C21.0386 223.68 18.7112 225.749 29.0551 222.646C39.3991 219.543 57.5009 231.438 57.5009 231.438C57.5009 231.438 59.3111 229.628 59.3111 228.335C59.3111 227.042 61.3799 219.543 61.3799 219.543C61.3799 219.543 63.1901 187.735 63.9659 184.115C64.7417 180.494 60.8627 160.841 58.5353 160.324Z" fill="#EC4A42"/>
<path d="M55.5193 136.332C56.1563 135.979 56.8706 135.789 57.5987 135.779C58.3278 135.768 59.0396 135.556 59.6557 135.166C60.6572 134.397 60.7307 132.911 61.4634 131.883C62.5241 130.394 64.6402 130.215 66.4667 130.289C67.5839 130.335 68.787 130.401 69.7277 129.797C70.6935 129.177 71.1312 128.008 71.4568 126.908C71.8419 125.606 72.091 124.014 71.1368 123.049C70.4741 122.379 69.4282 122.246 68.692 121.657C67.9288 121.047 67.6147 120.053 67.1998 119.169C66.7277 118.09 65.981 117.155 65.0341 116.456C63.6455 115.491 61.8719 115.275 60.181 115.293C58.4902 115.311 56.7923 115.533 55.1141 115.326C53.7392 115.156 52.3683 114.698 50.9978 114.901C49.2515 115.159 47.8067 116.477 46.9462 118.018C46.0857 119.56 45.7165 121.319 45.3585 123.048L44.3847 127.749C44.0827 129.208 43.7795 130.705 44.0126 132.175C44.4959 135.224 47.1923 137.648 47.3781 140.729C47.5552 139.878 47.9408 139.085 48.5002 138.42C49.0595 137.754 49.7753 137.238 50.5832 136.918C50.7858 136.819 51.0159 136.791 51.2362 136.839C51.5041 136.924 51.6607 137.192 51.8298 137.417C52.2728 138.006 53.6643 138.899 54.4531 138.481C55.1589 138.108 54.632 136.934 55.5193 136.332Z" fill="#2C395D"/>
<path d="M28.7961 184.632C28.7961 184.632 26.9859 196.011 34.4853 194.976C34.4853 194.976 38.3643 194.459 38.8814 194.976C39.3986 195.493 58.5349 192.132 61.1209 189.287C61.1209 189.287 64.224 188.253 65.7756 189.804C67.3272 191.356 82.8431 192.907 78.1883 188.253C73.5336 183.598 66.2928 182.563 66.2928 182.563L56.4661 183.081C56.4661 183.081 51.2941 184.632 48.191 183.081C45.0878 181.529 36.2955 182.046 36.2955 182.046L28.7961 184.632Z" fill="#A0616A"/>
<path d="M39.3994 148.687C39.3994 148.687 27.7625 149.98 27.7625 166.789V188.252C27.7625 188.252 34.2274 185.408 35.5204 185.666C36.8134 185.925 41.9853 182.305 41.9853 182.305C41.9853 182.305 47.9331 168.34 47.4159 164.461C46.8987 160.582 47.1573 149.204 39.3994 148.687Z" fill="#EC4A42"/>
<path d="M58.0173 133.818C63.5159 133.818 67.9733 131.502 67.9733 128.646C67.9733 125.79 63.5159 123.474 58.0173 123.474C52.5187 123.474 48.0613 125.79 48.0613 128.646C48.0613 131.502 52.5187 133.818 58.0173 133.818Z" fill="#2C395D"/>
<path d="M48.7079 138.214C50.6359 138.214 52.1989 134.336 52.1989 129.551C52.1989 124.767 50.6359 120.888 48.7079 120.888C46.7798 120.888 45.2168 124.767 45.2168 129.551C45.2168 134.336 46.7798 138.214 48.7079 138.214Z" fill="#2C395D"/>
</svg>
