<svg width="394" height="360" viewBox="0 0 394 360" fill="none" xmlns="http://www.w3.org/2000/svg">
<path d="M339.55 33.0396L9.41016 129.229L18.1546 159.241L348.294 63.0523L339.55 33.0396Z" fill="#2C395D"/>
<path d="M48.8541 267.09L0.194119 100.079C-0.166633 98.841 -0.020719 97.5102 0.599738 96.3796C1.2202 95.2489 2.26437 94.4111 3.50259 94.0503L325.639 0.193089C326.877 -0.16645 328.207 -0.0200421 329.337 0.600193C330.468 1.22043 331.306 2.26381 331.668 3.5013L374.777 151.461L373.443 151.849L330.334 3.89003C330.075 3.00647 329.476 2.26162 328.669 1.81866C327.862 1.3757 326.912 1.27075 326.027 1.52681L3.89123 95.384C3.00678 95.6418 2.26094 96.2402 1.81776 97.0479C1.37458 97.8555 1.27035 98.8061 1.52802 99.6905L50.188 266.701L48.8541 267.09Z" fill="#2C395D"/>
<path d="M303.477 152.149C302.5 152.148 301.549 151.83 300.768 151.244C299.986 150.658 299.415 149.834 299.14 148.896L290.979 120.884C290.645 119.734 290.781 118.499 291.357 117.45C291.933 116.4 292.902 115.622 294.051 115.286L322.063 107.124C323.213 106.791 324.448 106.927 325.497 107.503C326.547 108.079 327.325 109.048 327.661 110.197L335.822 138.209C336.156 139.358 336.02 140.593 335.444 141.643C334.868 142.692 333.899 143.471 332.75 143.807L304.738 151.968C304.329 152.088 303.904 152.149 303.477 152.149Z" fill="#EC4A42"/>
<path d="M48.102 100.596C48.0181 100.308 47.9184 100.025 47.8032 99.7483C47.02 97.8474 45.5619 96.3029 43.7091 95.4117C41.8563 94.5205 39.7396 94.3455 37.7655 94.9202C35.7915 95.4949 34.0996 96.7789 33.0147 98.5253C31.9299 100.272 31.5287 102.358 31.8883 104.382C31.9388 104.677 32.0061 104.969 32.0897 105.257C32.597 106.989 33.6516 108.509 35.0955 109.591C36.5394 110.673 38.2949 111.258 40.0993 111.259C40.887 111.261 41.6709 111.149 42.4265 110.926C44.5473 110.306 46.3358 108.871 47.3998 106.934C48.4637 104.998 48.7163 102.718 48.102 100.596ZM42.0375 109.592C40.2688 110.105 38.3687 109.896 36.754 109.011C35.1392 108.125 33.9415 106.635 33.4235 104.868C33.3422 104.58 33.2772 104.288 33.2288 103.993C32.9682 102.325 33.3241 100.619 34.2298 99.1948C35.1355 97.7703 36.5291 96.7245 38.15 96.2528C39.7708 95.7812 41.508 95.9161 43.0366 96.6323C44.5652 97.3486 45.7806 98.597 46.4555 100.144C46.5813 100.416 46.6859 100.697 46.7682 100.985C47.2809 102.754 47.0706 104.653 46.1836 106.267C45.2966 107.881 43.8054 109.077 42.0375 109.592V109.592Z" fill="#EC4A42"/>
<path d="M27.6549 106.548C27.2104 105.022 27.2531 103.394 27.7771 101.893C28.3011 100.392 29.2803 99.0911 30.5784 98.1726C29.3623 98.1134 28.1496 98.3456 27.0414 98.8499C25.9332 99.3542 24.9615 100.116 24.2073 101.072C23.4532 102.028 22.9383 103.15 22.7057 104.345C22.4731 105.54 22.5294 106.774 22.87 107.943C23.2106 109.112 23.8256 110.182 24.6637 111.065C25.5019 111.949 26.5389 112.619 27.6885 113.02C28.838 113.421 30.0668 113.542 31.2725 113.372C32.4781 113.202 33.6257 112.746 34.6197 112.043C33.0314 111.966 31.5069 111.395 30.2585 110.41C29.0101 109.425 28.1 108.075 27.6549 106.548Z" fill="#EC4A42"/>
<path d="M243.606 140.976C243.458 140.445 243.207 139.947 242.867 139.513C242.526 139.078 242.104 138.715 241.623 138.444C241.142 138.173 240.613 138 240.065 137.934C239.517 137.867 238.962 137.91 238.431 138.059L192.311 150.959L187.344 152.348H218.535L223.502 150.959L240.695 146.152C241.767 145.85 242.675 145.136 243.221 144.166C243.767 143.196 243.905 142.048 243.606 140.976Z" fill="white"/>
<path d="M210.977 131.343C210.677 130.27 209.963 129.361 208.992 128.816C208.022 128.27 206.874 128.132 205.802 128.432L136.598 147.786C135.631 148.06 134.793 148.67 134.237 149.507C133.68 150.344 133.441 151.352 133.562 152.35H151.478L156.451 150.96L208.066 136.525C209.139 136.223 210.048 135.507 210.594 134.536C211.14 133.564 211.277 132.416 210.977 131.343Z" fill="white"/>
<path d="M389.138 150.958H53.6064C52.3172 150.959 51.0812 151.472 50.1695 152.384C49.2579 153.296 48.7451 154.532 48.7437 155.821V354.5C48.745 355.789 49.2578 357.025 50.1695 357.936C51.0811 358.848 52.3172 359.361 53.6064 359.362H389.138C390.427 359.361 391.663 358.848 392.574 357.936C393.486 357.025 393.999 355.789 394 354.5V155.821C393.999 154.532 393.486 153.296 392.574 152.384C391.663 151.472 390.427 150.96 389.138 150.958ZM392.611 354.5C392.611 355.421 392.245 356.304 391.593 356.955C390.942 357.607 390.059 357.973 389.138 357.973H53.6064C52.6853 357.973 51.802 357.607 51.1507 356.955C50.4994 356.304 50.1333 355.421 50.133 354.5V155.821C50.1334 154.9 50.4995 154.016 51.1508 153.365C51.8021 152.714 52.6853 152.348 53.6064 152.347H389.138C390.059 152.348 390.942 152.714 391.593 153.365C392.245 154.016 392.611 154.9 392.611 155.821V354.5Z" fill="#2C395D"/>
<path d="M86.2541 178.052C84.6054 178.052 82.9937 177.563 81.6228 176.647C80.2519 175.731 79.1835 174.429 78.5525 172.906C77.9216 171.383 77.7565 169.707 78.0782 168.09C78.3998 166.473 79.1938 164.987 80.3596 163.822C81.5254 162.656 83.0108 161.862 84.6278 161.54C86.2449 161.218 87.921 161.383 89.4443 162.014C90.9675 162.645 92.2694 163.714 93.1854 165.085C94.1014 166.456 94.5903 168.067 94.5903 169.716C94.5878 171.926 93.7087 174.045 92.1459 175.608C90.5831 177.171 88.4642 178.05 86.2541 178.052ZM86.2541 162.769C84.8802 162.769 83.5371 163.177 82.3947 163.94C81.2523 164.703 80.3619 165.788 79.8361 167.058C79.3104 168.327 79.1728 169.724 79.4408 171.071C79.7089 172.419 80.3705 173.657 81.342 174.628C82.3135 175.6 83.5513 176.261 84.8989 176.529C86.2464 176.797 87.6432 176.66 88.9126 176.134C90.1819 175.608 91.2669 174.718 92.0302 173.576C92.7935 172.433 93.2009 171.09 93.2009 169.716C93.1989 167.874 92.4663 166.109 91.164 164.806C89.8617 163.504 88.0959 162.771 86.2541 162.769Z" fill="#EC4A42"/>
<path d="M73.2964 169.717C73.2967 168.127 73.7929 166.577 74.7159 165.282C75.639 163.987 76.9429 163.012 78.4461 162.493C77.2951 162.096 76.0659 161.98 74.8609 162.154C73.6558 162.328 72.5098 162.788 71.5184 163.495C70.527 164.202 69.7187 165.135 69.1611 166.217C68.6034 167.3 68.3125 168.5 68.3125 169.717C68.3125 170.935 68.6034 172.135 69.1611 173.217C69.7187 174.299 70.527 175.233 71.5184 175.94C72.5098 176.646 73.6558 177.106 74.8609 177.28C76.0659 177.454 77.2951 177.338 78.4461 176.941C76.9429 176.422 75.639 175.447 74.7159 174.153C73.7929 172.858 73.2967 171.307 73.2964 169.717Z" fill="#EC4A42"/>
<path d="M120.046 268.206C118.388 268.204 116.799 267.545 115.627 266.373C114.455 265.201 113.795 263.611 113.793 261.954V243.197C113.793 241.539 114.452 239.949 115.625 238.777C116.797 237.604 118.387 236.945 120.046 236.945C121.704 236.945 123.294 237.604 124.467 238.777C125.639 239.949 126.298 241.539 126.298 243.197V261.954C126.296 263.611 125.636 265.201 124.464 266.373C123.292 267.545 121.703 268.204 120.046 268.206Z" fill="#EC4A42"/>
<path d="M136.717 268.206C135.06 268.204 133.471 267.545 132.299 266.373C131.127 265.201 130.467 263.611 130.465 261.954V243.197C130.465 241.539 131.124 239.949 132.297 238.777C133.469 237.604 135.059 236.945 136.717 236.945C138.376 236.945 139.966 237.604 141.138 238.777C142.311 239.949 142.97 241.539 142.97 243.197V261.954C142.968 263.611 142.308 265.201 141.136 266.373C139.964 267.545 138.375 268.204 136.717 268.206Z" fill="#EC4A42"/>
<path d="M153.391 268.206C151.733 268.204 150.144 267.545 148.972 266.373C147.8 265.201 147.141 263.611 147.139 261.954V243.197C147.139 241.539 147.797 239.949 148.97 238.777C150.142 237.604 151.733 236.945 153.391 236.945C155.049 236.945 156.639 237.604 157.812 238.777C158.984 239.949 159.643 241.539 159.643 243.197V261.954C159.641 263.611 158.982 265.201 157.81 266.373C156.638 267.545 155.048 268.204 153.391 268.206Z" fill="#EC4A42"/>
<path d="M179.092 268.206C177.435 268.204 175.846 267.545 174.674 266.373C173.502 265.201 172.842 263.611 172.84 261.954V243.197C172.84 241.539 173.499 239.949 174.672 238.777C175.844 237.604 177.434 236.945 179.092 236.945C180.751 236.945 182.341 237.604 183.513 238.777C184.686 239.949 185.345 241.539 185.345 243.197V261.954C185.343 263.611 184.683 265.201 183.511 266.373C182.339 267.545 180.75 268.204 179.092 268.206Z" fill="#EC4A42"/>
<path d="M195.766 268.206C194.108 268.204 192.519 267.545 191.347 266.373C190.175 265.201 189.516 263.611 189.514 261.954V243.197C189.514 241.539 190.172 239.949 191.345 238.777C192.517 237.604 194.108 236.945 195.766 236.945C197.424 236.945 199.014 237.604 200.187 238.777C201.359 239.949 202.018 241.539 202.018 243.197V261.954C202.016 263.611 201.357 265.201 200.185 266.373C199.013 267.545 197.423 268.204 195.766 268.206Z" fill="#EC4A42"/>
<path d="M212.438 268.206C210.78 268.204 209.191 267.545 208.019 266.373C206.847 265.201 206.187 263.611 206.186 261.954V243.197C206.186 241.539 206.844 239.949 208.017 238.777C209.189 237.604 210.78 236.945 212.438 236.945C214.096 236.945 215.686 237.604 216.859 238.777C218.031 239.949 218.69 241.539 218.69 243.197V261.954C218.688 263.611 218.029 265.201 216.857 266.373C215.684 267.545 214.095 268.204 212.438 268.206Z" fill="#EC4A42"/>
<path d="M238.141 268.206C236.484 268.204 234.895 267.545 233.722 266.373C232.55 265.201 231.891 263.611 231.889 261.954V243.197C231.889 241.539 232.548 239.949 233.72 238.777C234.893 237.604 236.483 236.945 238.141 236.945C239.799 236.945 241.39 237.604 242.562 238.777C243.735 239.949 244.393 241.539 244.393 243.197V261.954C244.392 263.611 243.732 265.201 242.56 266.373C241.388 267.545 239.799 268.204 238.141 268.206Z" fill="#EC4A42"/>
<path d="M254.814 268.206C253.156 268.204 251.567 267.545 250.395 266.373C249.223 265.201 248.563 263.611 248.562 261.954V243.197C248.562 241.539 249.22 239.949 250.393 238.777C251.565 237.604 253.155 236.945 254.814 236.945C256.472 236.945 258.062 237.604 259.235 238.777C260.407 239.949 261.066 241.539 261.066 243.197V261.954C261.064 263.611 260.405 265.201 259.232 266.373C258.06 267.545 256.471 268.204 254.814 268.206Z" fill="#EC4A42"/>
<path d="M271.486 268.206C269.828 268.204 268.239 267.545 267.067 266.373C265.895 265.201 265.235 263.611 265.233 261.954V243.197C265.233 241.539 265.892 239.949 267.065 238.777C268.237 237.604 269.827 236.945 271.486 236.945C273.144 236.945 274.734 237.604 275.906 238.777C277.079 239.949 277.738 241.539 277.738 243.197V261.954C277.736 263.611 277.076 265.201 275.904 266.373C274.732 267.545 273.143 268.204 271.486 268.206Z" fill="#EC4A42"/>
<path d="M297.189 268.206C295.532 268.204 293.942 267.545 292.77 266.373C291.598 265.201 290.939 263.611 290.937 261.954V243.197C290.937 241.539 291.596 239.949 292.768 238.777C293.941 237.604 295.531 236.945 297.189 236.945C298.847 236.945 300.438 237.604 301.61 238.777C302.783 239.949 303.441 241.539 303.441 243.197V261.954C303.439 263.611 302.78 265.201 301.608 266.373C300.436 267.545 298.847 268.204 297.189 268.206Z" fill="#EC4A42"/>
<path d="M313.862 268.206C312.205 268.204 310.616 267.545 309.444 266.373C308.272 265.201 307.612 263.611 307.61 261.954V243.197C307.61 241.539 308.269 239.949 309.442 238.777C310.614 237.604 312.204 236.945 313.862 236.945C315.521 236.945 317.111 237.604 318.283 238.777C319.456 239.949 320.115 241.539 320.115 243.197V261.954C320.113 263.611 319.453 265.201 318.281 266.373C317.109 267.545 315.52 268.204 313.862 268.206Z" fill="#EC4A42"/>
<path d="M330.533 268.206C328.876 268.204 327.287 267.545 326.115 266.373C324.942 265.201 324.283 263.611 324.281 261.954V243.197C324.281 241.539 324.94 239.949 326.112 238.777C327.285 237.604 328.875 236.945 330.533 236.945C332.192 236.945 333.782 237.604 334.954 238.777C336.127 239.949 336.786 241.539 336.786 243.197V261.954C336.784 263.611 336.124 265.201 334.952 266.373C333.78 267.545 332.191 268.204 330.533 268.206Z" fill="#EC4A42"/>
<path d="M162.433 337.792H72.5135C71.3993 337.792 70.3308 337.35 69.5429 336.562C68.7551 335.774 68.3125 334.705 68.3125 333.591C68.3125 332.477 68.7551 331.408 69.5429 330.621C70.3308 329.833 71.3993 329.39 72.5135 329.39H162.433C163.547 329.39 164.616 329.833 165.404 330.621C166.192 331.408 166.634 332.477 166.634 333.591C166.634 334.705 166.192 335.774 165.404 336.562C164.616 337.35 163.547 337.792 162.433 337.792Z" fill="white"/>
<path d="M133.604 319.728H101.343C100.228 319.728 99.1599 319.285 98.372 318.497C97.5842 317.709 97.1416 316.641 97.1416 315.527C97.1416 314.413 97.5842 313.344 98.372 312.556C99.1599 311.768 100.228 311.326 101.343 311.326H133.604C134.718 311.326 135.787 311.768 136.574 312.556C137.362 313.344 137.805 314.413 137.805 315.527C137.805 316.641 137.362 317.709 136.574 318.497C135.787 319.285 134.718 319.728 133.604 319.728Z" fill="white"/>
<path d="M392.36 192.488H49.8823V193.877H392.36V192.488Z" fill="#2C395D"/>
</svg>
