<svg width="203" height="221" viewBox="0 0 203 221" fill="none" xmlns="http://www.w3.org/2000/svg">
<path d="M163.146 15.7469V184.823C163.144 186.837 162.343 188.768 160.918 190.192C159.494 191.615 157.562 192.415 155.548 192.416H86.9083C85.9104 192.418 84.922 192.223 83.9997 191.842C83.0774 191.461 82.2393 190.902 81.5335 190.196C80.8276 189.491 80.2679 188.653 79.8864 187.731C79.5048 186.809 79.309 185.821 79.3101 184.823V15.7469C79.31 14.7491 79.5064 13.761 79.8883 12.8391C80.2701 11.9172 80.8298 11.0795 81.5353 10.374C82.2409 9.66839 83.0786 9.10871 84.0005 8.72689C84.9224 8.34507 85.9105 8.1486 86.9083 8.14868H97.1802V9.46592C97.18 11.1251 97.8388 12.7165 99.0118 13.89C100.185 15.0635 101.776 15.723 103.435 15.7235H138.346C139.681 15.7263 140.982 15.2982 142.055 14.5027C142.272 14.345 142.478 14.1724 142.671 13.9863C143.282 13.4028 143.768 12.7012 144.1 11.9242C144.431 11.1472 144.602 10.3108 144.601 9.46592V8.14868H155.548C156.546 8.14838 157.534 8.3447 158.456 8.72644C159.378 9.10818 160.216 9.66785 160.922 10.3735C161.627 11.0791 162.187 11.9168 162.569 12.8388C162.95 13.7608 163.147 14.749 163.146 15.7469Z" fill="white"/>
<path d="M123.169 128.705C131.38 128.705 138.036 122.048 138.036 113.837C138.036 105.626 131.38 98.969 123.169 98.969C114.957 98.969 108.301 105.626 108.301 113.837C108.301 122.048 114.957 128.705 123.169 128.705Z" fill="#EC4A42"/>
<path d="M160.538 202.411H81.0945C79.3055 202.417 77.5521 201.912 76.0399 200.956C74.8276 200.201 73.8254 199.152 73.1261 197.907C72.4268 196.661 72.0531 195.26 72.0396 193.831V8.5858C72.0396 3.85158 76.1017 4.97512e-06 81.0945 4.97512e-06H99.7651V1.70399C99.7651 5.34059 102.896 8.29923 106.744 8.29923H133.064C134.545 8.30745 135.993 7.85674 137.207 7.00904C138.068 6.41459 138.775 5.62301 139.268 4.70023C139.761 3.77745 140.027 2.75019 140.043 1.70399V0H160.538C165.531 0 169.593 3.85158 169.593 8.58579V193.831C169.586 195.09 169.296 196.33 168.744 197.461C168.192 198.592 167.393 199.584 166.405 200.364C164.741 201.697 162.67 202.419 160.538 202.411ZM81.0945 0.521679C76.3892 0.521679 72.5612 4.1393 72.5612 8.58579V193.831C72.575 195.172 72.9267 196.487 73.5838 197.656C74.2409 198.824 75.1822 199.808 76.3206 200.516C77.7489 201.419 79.405 201.895 81.0945 201.89H160.538C162.551 201.898 164.506 201.216 166.077 199.959C167.004 199.228 167.754 198.297 168.273 197.237C168.791 196.176 169.064 195.012 169.072 193.831V8.5858C169.072 4.1393 165.244 0.521684 160.538 0.521684H140.564V1.70399C140.549 2.83447 140.263 3.94476 139.73 4.9422C139.198 5.93964 138.435 6.79529 137.504 7.43775C136.203 8.34629 134.652 8.82947 133.064 8.82091H106.744C102.608 8.82091 99.2434 5.6283 99.2434 1.70399V0.521679H81.0945Z" fill="#2C395D"/>
<path d="M145.85 138.711H99.9741V89.3179H145.85V138.711ZM100.562 138.123H145.262V89.906H100.562V138.123Z" fill="#2C395D"/>
<path d="M135.848 46.7941H105.729V47.3822H135.848V46.7941Z" fill="#2C395D"/>
<path d="M135.848 54.8003H105.729V55.3885H135.848V54.8003Z" fill="#2C395D"/>
<path d="M135.848 62.8062H105.729V63.3943H135.848V62.8062Z" fill="#2C395D"/>
<path d="M18.6662 201.959L18.3862 201.854C18.3247 201.831 12.2021 199.485 9.33404 194.167C6.46583 188.847 7.87026 182.443 7.88478 182.379L7.95088 182.087L8.2307 182.192C8.29221 182.216 14.4147 184.561 17.2829 189.88C20.1511 195.199 18.7467 201.604 18.7322 201.668L18.6662 201.959ZM9.79332 193.919C12.2182 198.416 17.0565 200.721 18.2823 201.248C18.5154 199.934 19.2463 194.621 16.8236 190.128C14.4012 185.635 9.56101 183.327 8.33463 182.799C8.10142 184.114 7.37074 189.426 9.79332 193.919Z" fill="#2C395D"/>
<path d="M11.5261 192.301C16.6804 195.402 18.6655 201.561 18.6655 201.561C18.6655 201.561 12.2938 202.693 7.13944 199.592C1.9851 196.491 0 190.331 0 190.331C0 190.331 6.37173 189.2 11.5261 192.301Z" fill="#EC4A42"/>
<path d="M184.609 201.43L185.087 209.312L187.714 212.178L193.207 208.118L189.625 199.997L184.609 201.43Z" fill="#FBBDBD"/>
<path d="M191.058 208.834C191.058 208.834 191.164 207.242 191.35 204.217C191.35 204.217 199.417 202.625 198.939 208.118C198.462 213.611 194.401 215.522 194.401 215.522C194.401 215.522 192.491 215.283 192.729 217.194C192.968 219.104 185.803 223.164 182.459 219.343L184.515 207.282C184.515 207.282 186.759 208.834 187.475 208.118C188.192 207.401 191.058 208.834 191.058 208.834Z" fill="#2C395D"/>
<path d="M177.559 52.5157L184.247 66.6071L172.224 69.8884L169.917 57.0536L177.559 52.5157Z" fill="#FBBDBD"/>
<path d="M170.633 60.3974C175.777 60.3974 179.948 56.2271 179.948 51.0828C179.948 45.9385 175.777 41.7682 170.633 41.7682C165.489 41.7682 161.318 45.9385 161.318 51.0828C161.318 56.2271 165.489 60.3974 170.633 60.3974Z" fill="#FBBDBD"/>
<path d="M176.731 55.0793C175.885 55.0289 175.059 55.3147 174.219 55.4262C171.214 55.8252 168.088 53.6446 167.425 50.6867C167.372 50.2928 167.254 49.9103 167.077 49.5544C166.615 48.7993 165.561 48.6553 164.693 48.829C163.825 49.0026 163.002 49.409 162.118 49.4554C160.752 49.527 159.441 48.6865 158.714 47.529C157.986 46.3715 157.78 44.9472 157.878 43.5836L158.533 44.2705C158.799 43.7078 158.902 43.0818 158.829 42.4637C159.176 42.3713 159.541 42.3695 159.889 42.4585C160.236 42.5475 160.555 42.7242 160.815 42.9719C161.392 43.0333 160.957 41.9014 161.386 41.5102C161.565 41.3464 161.84 41.3773 162.083 41.3797C163.311 41.3915 164.304 40.4524 165.272 39.6964C166.948 38.3895 168.909 37.4953 170.994 37.0861C172.381 36.8157 173.855 36.7723 175.17 37.2885C176.25 37.7125 177.154 38.4847 177.99 39.2888C180.048 41.2681 181.871 43.5938 182.727 46.3181C183.424 48.5495 183.443 50.9371 182.784 53.1797C182.439 54.3444 181.399 58.333 179.877 58.4259C177.964 58.5426 179.112 55.2214 176.731 55.0793Z" fill="#2C395D"/>
<path d="M165.02 201.43L164.543 209.312L161.916 212.178L156.422 208.118L160.005 199.997L165.02 201.43Z" fill="#FBBDBD"/>
<path d="M168.006 65.174C168.006 65.174 169.2 56.337 180.664 59.2031C192.128 62.0691 193.322 64.6963 193.322 64.6963C193.322 64.6963 193.561 67.0847 194.278 67.3235C194.994 67.5623 196.905 68.7565 195.949 69.473C194.994 70.1895 200.249 77.3546 200.249 77.3546C200.249 77.3546 203.353 79.2653 201.443 88.3411C199.532 97.4169 197.383 110.553 197.383 110.553C197.383 110.553 198.099 114.852 197.144 117.24C196.188 119.629 198.099 121.301 198.099 122.256C198.099 123.211 197.621 127.988 197.621 127.988C197.621 127.988 165.14 126.794 160.602 127.988C156.064 129.182 168.006 65.174 168.006 65.174Z" fill="#EC4A42"/>
<path d="M196.547 125.958C196.547 125.958 198.458 130.496 196.547 137.9C194.636 145.304 194.159 163.933 194.159 163.933C194.159 163.933 194.159 199.997 192.487 201.908C190.815 203.819 191.292 206.923 191.292 206.923H184.127C184.127 206.923 184.366 203.102 183.411 200.953C182.456 198.803 182.694 175.636 182.694 175.636L178.634 143.154L170.514 173.964C170.514 173.964 167.409 196.892 166.215 197.848C165.02 198.803 166.215 202.624 166.215 202.624C163.76 202.992 161.252 202.574 159.05 201.43V197.609C159.05 197.609 155.467 196.176 156.661 190.921C157.855 185.667 157.378 128.585 160.96 125.958C164.543 123.331 196.547 125.958 196.547 125.958Z" fill="#2C395D"/>
<path d="M158.572 208.834C158.572 208.834 158.466 207.242 158.28 204.217C158.28 204.217 150.213 202.625 150.69 208.118C151.168 213.611 155.228 215.522 155.228 215.522C155.228 215.522 157.139 215.283 156.9 217.194C156.661 219.104 163.826 223.164 167.17 219.343L165.114 207.282C165.114 207.282 162.871 208.834 162.154 208.118C161.438 207.401 158.572 208.834 158.572 208.834Z" fill="#2C395D"/>
<path d="M155.347 126.794L154.631 130.138C154.631 130.138 146.033 143.751 153.198 145.184C160.363 146.617 159.885 132.048 159.885 132.048L160.602 128.943L155.347 126.794Z" fill="#FBBDBD"/>
<path d="M163.826 67.2043C163.826 67.2043 168.842 63.8606 171.23 67.9208C173.619 71.9811 176.007 81.2957 176.007 81.2957L172.902 103.985L161.438 130.257L154.512 127.63C154.512 127.63 155.706 124.286 155.228 122.853C154.751 121.42 157.139 117.838 157.139 117.838L159.527 99.2084C159.527 99.2084 160.483 67.4432 163.826 67.2043Z" fill="#EC4A42"/>
<path opacity="0.1" d="M172.783 103.388L164.901 131.809L161.318 130.376L172.783 103.388Z" fill="#2C395D"/>
<path opacity="0.1" d="M191.3 73.6995C193.243 73.708 195.179 73.4746 197.065 73.0049L196.948 72.5419C192.487 73.6707 187.443 73.393 181.956 71.7155C177.074 70.223 172.462 67.8325 168.002 65.5209L167.783 65.9449C172.262 68.2664 176.893 70.667 181.817 72.1724C184.885 73.1481 188.081 73.6627 191.3 73.6995Z" fill="#2C395D"/>
<path d="M115.083 130.792H69.6968V179.568H115.083V130.792Z" fill="#EC4A42"/>
<path d="M61.4321 52.424C58.3741 45.2087 50.5898 43.846 50.5898 43.846C50.5898 43.846 43.0947 41.8465 36.8353 51.3692C31.001 60.2452 23.4773 68.5611 33.0188 72.104L35.5392 66.8108L35.8416 72.9024C37.2291 73.1913 38.6313 73.4041 40.042 73.5398C50.6254 74.615 60.6019 76.4027 60.7866 72.5779C61.0323 67.4934 64.3745 59.3666 61.4321 52.424Z" fill="#2C395D"/>
<path d="M29.1434 110.206L28.4624 127.571C28.4624 127.571 21.3119 141.532 27.1004 141.192C32.889 140.851 32.208 127.571 32.208 127.571L34.251 111.227L29.1434 110.206Z" fill="#FFB8B8"/>
<path d="M68.3011 107.141L70.3441 124.507C70.3441 124.507 76.4732 133.7 71.7061 136.765C66.9391 139.829 66.9391 125.869 66.9391 125.869L61.8315 108.163L68.3011 107.141Z" fill="#FFB8B8"/>
<path d="M61.1509 139.489L55.0218 163.324C55.0218 163.324 52.2978 172.858 48.5523 177.626L47.1902 180.35L41.7422 179.669L45.4877 164.346L47.8713 136.084L61.1509 139.489Z" fill="#FFB8B8"/>
<path opacity="0.1" d="M61.1509 139.489L55.0218 163.324C55.0218 163.324 52.2978 172.858 48.5523 177.626L47.1902 180.35L41.7422 179.669L45.4877 164.346L47.8713 136.084L61.1509 139.489Z" fill="#2C395D"/>
<path d="M40.3943 175.867L49.7063 178.023L45.8685 187.07C45.8685 187.07 47.4283 192.486 45.9425 195.355C44.4566 198.223 44.671 203.427 44.671 203.427L42.6529 203.109C42.6529 203.109 37.753 212.334 31.9634 209.699C26.1739 207.063 32.3317 200.794 32.3317 200.794C32.3317 200.794 37.3376 190.897 37.9733 186.861C38.6091 182.824 40.3943 175.867 40.3943 175.867Z" fill="#2C395D"/>
<path opacity="0.1" d="M40.3943 175.867L49.7063 178.023L45.8685 187.07C45.8685 187.07 47.4283 192.486 45.9425 195.355C44.4566 198.223 44.671 203.427 44.671 203.427L42.6529 203.109C42.6529 203.109 37.753 212.334 31.9634 209.699C26.1739 207.063 32.3317 200.794 32.3317 200.794C32.3317 200.794 37.3376 190.897 37.9733 186.861C38.6091 182.824 40.3943 175.867 40.3943 175.867Z" fill="#2C395D"/>
<path d="M32.5483 134.381L37.6559 159.919C37.6559 159.919 35.9534 172.518 37.9964 180.349L40.0394 187.841H46.8495V160.26C46.8495 160.26 47.19 137.787 46.1685 136.084C45.147 134.381 32.5483 134.381 32.5483 134.381Z" fill="#FFB8B8"/>
<path d="M48.2113 185.117L38.6772 185.798L41.0608 195.332C41.0608 195.332 38.6772 200.439 39.6988 203.504C40.7203 206.568 39.6988 211.676 39.6988 211.676H41.7418C41.7418 211.676 45.1468 221.55 51.2759 219.848C57.4049 218.145 52.2974 210.995 52.2974 210.995C52.2974 210.995 48.8924 200.439 48.8924 196.353C48.8924 192.267 48.2113 185.117 48.2113 185.117Z" fill="#2C395D"/>
<path d="M50.595 67.3022C55.6725 67.3022 59.7886 63.1861 59.7886 58.1086C59.7886 53.0312 55.6725 48.915 50.595 48.915C45.5175 48.915 41.4014 53.0312 41.4014 58.1086C41.4014 63.1861 45.5175 67.3022 50.595 67.3022Z" fill="#FFB8B8"/>
<path d="M44.2956 61.6841C44.2956 61.6841 44.9766 73.2612 42.9336 73.9422C40.8905 74.6232 53.4892 73.9422 53.4892 73.9422C53.4892 73.9422 51.7867 66.7916 53.4892 64.7486C55.1917 62.7056 44.2956 61.6841 44.2956 61.6841Z" fill="#FFB8B8"/>
<path d="M53.6595 72.0693C53.6595 72.0693 44.8064 71.3883 43.1038 72.0693C41.4013 72.7503 36.6343 76.1553 36.6343 76.1553L39.0178 97.6071L58.4265 101.693L61.491 97.2666L64.5556 90.797L63.1936 82.6249L62.8531 77.8578L53.6595 72.0693Z" fill="#EC4A42"/>
<path d="M34.932 77.5173C34.932 77.5173 30.5054 78.5388 30.1649 81.9439C29.8244 85.3489 29.8244 93.8615 30.1649 95.2235C30.5054 96.5855 30.1649 97.2665 29.8244 97.607C29.4839 97.9475 28.8029 97.2665 29.4839 98.2881C30.1649 99.3096 30.1649 99.3096 29.8244 100.331C29.4839 101.353 28.4624 99.9906 29.1434 101.693C29.8244 103.396 30.1649 103.736 29.8244 104.077C29.4839 104.417 28.4624 112.249 28.4624 112.249L34.2509 113.27L40.0395 93.1805L34.932 77.5173Z" fill="#EC4A42"/>
<path d="M61.491 77.5173C62.1376 77.5534 62.7628 77.7619 63.3017 78.1212C63.8406 78.4804 64.2735 78.9773 64.5555 79.5604C65.577 81.6034 68.301 94.883 67.9605 95.9045C67.62 96.926 66.939 95.564 67.62 97.607C68.301 99.6501 67.62 99.3096 67.9605 100.672C68.301 102.034 66.5985 100.672 67.9605 102.034C69.3225 103.396 70.0035 103.736 69.3225 104.417C68.6415 105.098 67.62 103.736 68.6415 105.098C69.6631 106.46 69.663 108.503 69.663 108.503L61.4909 110.206L59.1074 91.1375L61.491 77.5173Z" fill="#EC4A42"/>
<path d="M33.8659 76.976L35.5387 76.1396C35.7078 76.055 35.892 76.0048 36.0807 75.9918C36.2693 75.9788 36.4587 76.0033 36.6378 76.0639C36.817 76.1245 36.9823 76.22 37.1244 76.3448C37.2664 76.4696 37.3823 76.6214 37.4654 76.7913L45.147 92.4996L53.6596 97.9476L59.7886 95.2236C59.7886 95.2236 64.2152 88.4135 62.8532 85.0085C61.9297 82.6998 60.8479 79.1478 60.247 77.0997C60.2117 76.9791 60.2145 76.8506 60.2548 76.7317C60.2952 76.6128 60.3712 76.5091 60.4725 76.4349C60.5738 76.3606 60.6955 76.3194 60.8211 76.3167C60.9467 76.3141 61.07 76.3501 61.1744 76.42L62.3349 77.1937C62.7064 77.4414 62.9654 77.8254 63.0558 78.2626L65.5772 90.4565L62.1721 97.6071V104.417L64.5557 141.192C64.5557 141.192 55.7026 139.83 46.8495 138.127C37.9964 136.425 26.7598 135.063 26.7598 135.063C26.7598 135.063 32.5483 105.098 37.3154 99.9906C37.3154 99.9906 37.3154 96.2451 37.9964 95.9046C38.6774 95.5641 39.3584 93.1806 39.3584 93.1806L33.1906 78.8218C33.0464 78.4861 33.036 78.1079 33.1616 77.7647C33.2871 77.4216 33.5391 77.1394 33.8659 76.976Z" fill="#2C395D"/>
<path d="M59.7031 49.8026L51.902 45.7163L41.1288 47.388L38.8999 57.2324L44.4482 57.019L45.9984 53.4022V56.9595L48.5585 56.8609L50.0445 51.1029L50.9731 57.2324L60.0748 57.0466L59.7031 49.8026Z" fill="#2C395D"/>
<path d="M41.231 59.8965C41.7951 59.8965 42.2525 59.0961 42.2525 58.1088C42.2525 57.1215 41.7951 56.3212 41.231 56.3212C40.6668 56.3212 40.2095 57.1215 40.2095 58.1088C40.2095 59.0961 40.6668 59.8965 41.231 59.8965Z" fill="#FFB8B8"/>
<path d="M130.472 113.955H123.05V106.533H122.765V113.955H115.343V114.241H122.765V121.662H123.05V114.241H130.472V113.955Z" fill="#2C395D"/>
<path d="M107.417 145.392H77.2983V145.98H107.417V145.392Z" fill="white"/>
<path d="M107.417 153.397H77.2983V153.986H107.417V153.397Z" fill="white"/>
<path d="M107.417 161.403H77.2983V161.992H107.417V161.403Z" fill="white"/>
</svg>
