<svg width="269" height="217" viewBox="0 0 269 217" fill="none" xmlns="http://www.w3.org/2000/svg">
<path d="M153.244 191.871C151.384 189.266 148.866 187.36 145.7 186.647C142.94 186.025 140.102 186.131 137.296 186.153L101.815 186.426C98.7767 186.45 95.8633 189.082 96.0044 192.237C96.1445 195.365 98.5583 198.073 101.815 198.048C112.209 197.968 122.602 197.888 132.995 197.808C135.445 197.789 137.897 197.745 140.347 197.753C140.898 197.754 141.446 197.783 141.995 197.79C142.129 197.791 142.225 197.79 142.293 197.787C142.31 197.792 142.324 197.797 142.346 197.803C142.633 197.882 142.927 197.936 143.216 198.011C143.115 198.014 143.403 198.194 143.547 198.255C143.567 198.294 143.61 198.363 143.68 198.471C143.779 198.656 144.072 199.218 144.084 199.201C144.523 200.312 144.885 201.451 145.168 202.612C145.844 205.172 145.992 205.707 146.089 208.108C146.212 211.141 148.674 214.063 151.9 213.919C154.943 213.782 157.843 211.361 157.711 208.108C157.489 202.626 156.527 196.468 153.244 191.871Z" fill="white"/>
<path d="M103.901 204.985C103.234 200.946 102.581 196.905 101.901 192.869C101.212 188.774 99.8042 185.025 96.6179 182.337C95.7665 181.619 94.8837 180.949 93.9972 180.281C93.6854 180.046 93.3742 179.811 93.0662 179.571C93.0478 179.556 93.036 179.547 93.0201 179.535C92.9862 179.506 92.9456 179.471 92.891 179.425C91.5629 178.301 90.2797 177.127 89.0573 175.879C87.9718 174.771 86.9338 173.615 85.9431 172.412C85.6956 172.112 85.4512 171.809 85.21 171.503C85.1685 171.451 84.9451 171.162 84.7979 170.973C84.661 170.785 84.4108 170.444 84.3687 170.385C84.087 169.986 83.8102 169.584 83.5385 169.178C81.6876 166.405 80.085 163.474 78.7492 160.42C78.6167 160.117 78.4873 159.812 78.3611 159.506C78.3273 159.412 78.2835 159.292 78.2253 159.132C77.9561 158.392 77.6874 157.652 77.4413 156.903C76.9183 155.312 76.4687 153.698 76.0925 152.06C75.9065 151.251 75.739 150.438 75.5901 149.621C75.5133 149.201 75.4415 148.78 75.3746 148.358C75.3636 148.288 75.2984 147.833 75.2599 147.576C75.2315 147.317 75.1787 146.86 75.1716 146.789C75.129 146.364 75.0913 145.938 75.0583 145.512C74.984 144.553 74.9337 143.593 74.9076 142.631C74.8629 140.921 74.8935 139.211 74.9994 137.502C75.0597 136.541 75.1455 135.583 75.2512 134.627C75.2576 134.568 75.2626 134.522 75.2672 134.479C75.2736 134.437 75.281 134.388 75.2899 134.328C75.3681 133.799 75.4504 133.272 75.5424 132.746C75.891 130.748 76.3443 128.771 76.9005 126.821C77.1638 125.899 77.4498 124.984 77.7586 124.077C77.8962 123.674 78.0382 123.273 78.1845 122.873C78.175 122.899 78.6139 121.778 78.6197 121.74C80.3612 117.626 83.2095 113.875 83.2134 109.201C83.2161 106.036 80.5389 103.005 77.4025 103.151C75.8388 103.21 74.359 103.874 73.275 105.002C72.191 106.131 71.5874 107.636 71.5916 109.201C71.5916 109.272 71.5912 109.333 71.591 109.392C71.5618 109.49 71.5373 109.572 71.5153 109.645C71.1757 110.383 70.7597 111.084 70.3869 111.804C69.3662 113.774 68.4949 115.808 67.6673 117.872C66.3124 121.234 65.2753 124.715 64.5696 128.269C63.0357 136.058 62.9166 144.06 64.2181 151.891C66.4712 165.624 73.9012 178.77 84.2306 187.606C85.127 188.373 86.0453 189.114 86.9722 189.84C87.3558 190.14 87.7426 190.435 88.1313 190.728C88.315 190.867 89.0761 191.467 88.7413 191.176C89.4613 191.791 89.7644 192.1 89.9493 192.553C89.9761 192.657 90.0126 192.799 90.0621 192.992C90.1925 193.503 90.3162 194.012 90.4191 194.53C91.3182 199.052 91.9431 203.65 92.6941 208.201C93.2104 211.328 97.0603 213.364 99.8424 212.426C103.081 211.335 104.454 208.335 103.901 204.985Z" fill="white"/>
<path d="M153.831 216.714C151.39 216.72 149.047 215.759 147.315 214.039C145.583 212.32 144.603 209.984 144.592 207.544V200.915C137.651 201.692 113.887 201.512 107.075 200.417V207.279C107.056 209.717 106.075 212.049 104.344 213.767C102.613 215.485 100.274 216.449 97.8353 216.449C95.3967 216.449 93.0571 215.485 91.3263 213.767C89.5956 212.049 88.6141 209.717 88.5958 207.279V193.807C79.3694 188.682 71.6779 181.187 66.315 172.096C60.9521 163.006 58.1122 152.649 58.0884 142.094C58.0884 123.997 66.2902 107.115 80.5908 95.7762C89.8889 88.3791 101.186 83.9306 113.031 83.0018C114.639 82.8757 116.257 82.8119 117.839 82.8119C123.415 82.8119 148.571 83.6732 154.883 85.4891L169.276 71.2081C169.487 70.9953 169.757 70.8504 170.052 70.7917C170.346 70.7331 170.651 70.7634 170.928 70.8788C171.207 70.9899 171.446 71.1827 171.614 71.432C171.781 71.6813 171.869 71.9755 171.867 72.2759V74.5465L174.669 71.771C174.88 71.558 175.15 71.4128 175.444 71.354C175.738 71.2953 176.043 71.3256 176.32 71.4412C176.6 71.5521 176.839 71.745 177.007 71.9944C177.174 72.2439 177.263 72.5382 177.26 72.8387V98.2125C184.482 104.723 189.986 112.915 193.285 122.061C196.584 131.208 197.576 141.027 196.172 150.648C194.769 160.27 191.014 169.396 185.24 177.219C179.466 185.043 171.851 191.321 163.07 195.497V207.544C163.058 209.984 162.079 212.32 160.347 214.039C158.615 215.758 156.271 216.72 153.831 216.714ZM145.318 200.091V207.544C145.336 209.789 146.241 211.937 147.836 213.519C149.43 215.1 151.585 215.988 153.831 215.988C156.077 215.988 158.232 215.1 159.826 213.519C161.421 211.937 162.326 209.789 162.344 207.544V195.038L162.551 194.94C172.404 190.265 180.767 182.951 186.714 173.809C194.292 162.144 197.443 148.152 195.598 134.365C193.753 120.578 187.033 107.906 176.654 98.6448L176.534 98.5364V72.8387C176.536 72.6826 176.491 72.5294 176.404 72.3998C176.317 72.2702 176.192 72.1705 176.046 72.1139C175.902 72.0521 175.742 72.0354 175.587 72.066C175.433 72.0967 175.291 72.1733 175.181 72.2858L171.14 76.2883V72.2759C171.143 72.1197 171.098 71.9665 171.01 71.8369C170.923 71.7074 170.799 71.6076 170.653 71.5511C170.508 71.4893 170.348 71.4728 170.193 71.5037C170.038 71.5346 169.897 71.6114 169.787 71.7242L155.086 86.3109L154.877 86.2455C149.01 84.409 123.457 83.5383 117.839 83.5383C116.275 83.5383 114.677 83.6014 113.088 83.7261C101.387 84.6434 90.2272 89.038 81.0421 96.3453C66.9163 107.545 58.8147 124.22 58.8147 142.094C58.8388 152.556 61.6636 162.819 66.9954 171.82C72.3273 180.82 79.9718 188.229 89.1348 193.276L89.3222 193.38V207.279C89.3409 209.524 90.2461 211.671 91.8405 213.253C93.435 214.834 95.5897 215.721 97.8353 215.721C100.081 215.721 102.236 214.834 103.83 213.253C105.424 211.671 106.33 209.524 106.348 207.279V199.548L106.779 199.629C112.9 200.781 138.678 200.962 144.907 200.145L145.318 200.091Z" fill="#2C395D"/>
<path d="M104.595 43.2612L64.376 55.348C63.0967 55.734 62.023 56.612 61.3907 57.7891C60.7585 58.9662 60.6193 60.3462 61.0038 61.6259C61.3884 62.9055 62.2651 63.9802 63.4416 64.6138C64.618 65.2474 65.9978 65.3882 67.2779 65.0051L102.474 54.4255L103.211 54.204C103.36 50.4045 104.391 46.6919 106.222 43.3593C105.992 43.2559 105.747 43.1921 105.496 43.1704C105.192 43.1411 104.886 43.1719 104.595 43.2612Z" fill="#EC4A42"/>
<path d="M66.5827 67.5806C66.0488 67.5793 65.5288 67.4103 65.0962 67.0974C64.6636 66.7845 64.3403 66.3435 64.1719 65.8369L61.6569 58.2478C61.5519 57.9309 61.5103 57.5964 61.5345 57.2634C61.5588 56.9304 61.6484 56.6054 61.7983 56.3071C61.9481 56.0087 62.1553 55.7428 62.4079 55.5245C62.6605 55.3062 62.9537 55.1398 63.2706 55.0348L96.0048 44.1865C96.3217 44.0815 96.6562 44.0399 96.9892 44.0641C97.3222 44.0883 97.6471 44.1779 97.9454 44.3277C98.2438 44.4775 98.5097 44.6846 98.728 44.9371C98.9464 45.1897 99.1128 45.4828 99.2178 45.7997L101.733 53.3888C101.942 54.013 101.9 54.6941 101.616 55.2879C101.332 55.8817 100.827 56.3416 100.21 56.57C100.18 56.5814 100.149 56.5921 100.118 56.6021L67.3849 67.4501C67.1262 67.5364 66.8553 67.5804 66.5827 67.5806Z" fill="#2C395D"/>
<path d="M127.885 29.7845C121.279 29.7871 114.932 32.3603 110.189 36.9595C105.446 41.5588 102.679 47.8231 102.473 54.4266C102.466 54.6844 102.462 54.9459 102.462 55.2074C102.462 60.2356 103.953 65.1508 106.747 69.3316C109.54 73.5124 113.511 76.7709 118.156 78.6951C122.802 80.6193 127.913 81.1227 132.845 80.1418C137.777 79.1608 142.306 76.7395 145.862 73.1841C149.417 69.6286 151.839 65.0987 152.82 60.1672C153.801 55.2356 153.297 50.1239 151.373 45.4785C149.449 40.8331 146.19 36.8626 142.009 34.0691C137.829 31.2756 132.913 29.7845 127.885 29.7845ZM127.885 79.9039C121.337 79.8971 115.06 77.2929 110.43 72.6629C105.8 68.0329 103.196 61.7552 103.189 55.2074C103.189 54.8697 103.196 54.5355 103.211 54.205C103.407 49.3673 105.022 44.6942 107.853 40.7666C110.684 36.8391 114.608 33.8305 119.135 32.1148C123.663 30.3992 128.594 30.0522 133.318 31.1171C138.041 32.182 142.347 34.6117 145.7 38.1042C149.053 41.5966 151.306 45.9978 152.178 50.7603C153.05 55.5227 152.503 60.4365 150.604 64.8905C148.706 69.3446 145.541 73.1424 141.501 75.8117C137.462 78.481 132.727 79.904 127.885 79.9039Z" fill="#2C395D"/>
<path d="M149.314 55.2067C149.314 60.8897 147.057 66.34 143.038 70.3585C139.02 74.377 133.569 76.6345 127.886 76.6345C122.203 76.6345 116.753 74.377 112.735 70.3585C108.716 66.34 106.458 60.8897 106.458 55.2067C106.458 54.5275 106.491 53.8593 106.553 53.1983C107.069 47.7136 109.678 42.6385 113.838 39.0267C117.998 35.415 123.389 33.5441 128.892 33.8025C134.395 34.061 139.586 36.4289 143.389 40.4147C147.192 44.4004 149.314 49.6977 149.314 55.2067Z" fill="white"/>
<path d="M134.267 56.6291C133.748 55.9462 133.065 55.4053 132.281 55.0565C131.314 54.649 130.316 54.3211 129.295 54.0759V48.2432C130.864 48.4796 132.334 49.1502 133.541 50.179L134.725 47.6548C134.044 47.0482 133.262 46.5651 132.415 46.2275C131.476 45.8473 130.49 45.5944 129.484 45.4757V42.5194H126.742V45.5048C125.683 45.6237 124.662 45.9667 123.746 46.5108C122.919 47.0006 122.222 47.6835 121.716 48.501C121.233 49.2989 120.982 50.216 120.993 51.1487C120.946 52.1594 121.239 53.1567 121.825 53.9815C122.364 54.6956 123.077 55.2605 123.895 55.6231C124.877 56.0426 125.893 56.3791 126.931 56.6291V62.2185C125.081 62.0789 123.317 61.3754 121.879 60.2028L120.695 62.7306C121.5 63.3955 122.414 63.9142 123.397 64.2632C124.475 64.6488 125.601 64.8835 126.742 64.9605V67.8914H129.484V64.9061C131.007 64.7396 132.436 64.0847 133.556 63.0393C134.049 62.5663 134.438 61.996 134.7 61.3646C134.961 60.7332 135.088 60.0544 135.074 59.3711C135.119 58.3927 134.835 57.4272 134.267 56.6291ZM126.931 53.4585C126.263 53.2559 125.642 52.9226 125.104 52.4779C124.891 52.2883 124.723 52.0538 124.611 51.7913C124.499 51.5288 124.447 51.2449 124.458 50.9598C124.438 50.3129 124.676 49.6846 125.119 49.2129C125.61 48.718 126.244 48.389 126.931 48.2722V53.4585ZM131.017 61.1871C130.554 61.6622 129.95 61.9766 129.295 62.0841V57.2756C129.921 57.4435 130.507 57.7363 131.017 58.1363C131.21 58.3014 131.364 58.508 131.466 58.7406C131.569 58.9733 131.618 59.226 131.609 59.4801C131.634 60.1034 131.423 60.7132 131.017 61.1871Z" fill="#EC4A42"/>
<path d="M67.7485 98.3402C67.1871 98.3393 66.6416 98.1531 66.1968 97.8106C65.7519 97.4681 65.4324 96.9884 65.2879 96.4459L63.9187 91.2633C63.7473 90.6118 63.8413 89.919 64.18 89.3368C64.5187 88.7546 65.0746 88.3305 65.7256 88.1576L108.923 76.7428C109.575 76.5727 110.267 76.6677 110.849 77.007C111.431 77.3464 111.855 77.9024 112.028 78.5534L113.188 82.9443L112.971 82.9611C101.892 83.8225 91.2921 87.8393 82.4246 94.5362L82.3616 94.5667L68.3935 98.2565C68.183 98.312 67.9662 98.3402 67.7485 98.3402Z" fill="#2C395D"/>
<path d="M60.5955 123.94C55.5282 123.192 50.6819 121.359 46.387 118.568C44.2591 117.186 42.2893 115.575 40.5128 113.764C38.7594 111.975 37.082 109.943 36.2136 107.561C35.378 105.357 35.421 102.917 36.3339 100.744C37.2342 98.5849 38.9542 96.8706 41.1165 95.9773C43.2919 95.1098 45.9201 95.017 48.0372 95.9671C49.046 96.4093 49.919 97.112 50.5665 98.003C50.8675 98.4138 51.0903 98.8765 51.224 99.3679C51.3479 99.8132 51.3592 100.282 51.2568 100.733C51.1326 101.183 50.9137 101.601 50.6147 101.96C50.3156 102.318 49.9434 102.609 49.523 102.812C48.5976 103.286 47.595 103.592 46.5623 103.715C45.5235 103.856 44.0313 103.985 43.1963 103.151C43.0244 102.986 42.8892 102.787 42.7995 102.566C42.7367 102.397 42.7152 102.216 42.7368 102.037C42.7247 102.116 42.7872 101.865 42.7837 101.875C42.7705 101.912 42.7133 102.002 42.7946 101.864C42.82 101.818 42.8482 101.774 42.8792 101.732C42.8516 101.768 42.791 101.827 42.8993 101.725C42.9887 101.627 43.1037 101.556 43.2313 101.52C43.2816 101.505 43.3326 101.494 43.383 101.48C43.5111 101.445 43.2553 101.482 43.3864 101.478C43.4369 101.476 43.4881 101.477 43.5385 101.475C43.6671 101.469 43.4117 101.44 43.5349 101.471C43.5827 101.483 43.6301 101.495 43.6773 101.51C43.7797 101.542 43.6047 101.434 43.6741 101.515C43.7555 101.609 43.5887 101.423 43.6812 101.514C43.7272 101.56 43.7706 101.607 43.8111 101.658C43.9715 101.816 44.1877 101.905 44.4131 101.905C44.6384 101.905 44.8547 101.816 45.015 101.658C45.17 101.496 45.2564 101.28 45.2564 101.056C45.2564 100.831 45.17 100.616 45.015 100.454C44.1756 99.413 42.5174 99.6702 41.6682 100.55C40.5852 101.671 41.0141 103.449 42.0675 104.428C43.2601 105.536 44.9492 105.613 46.4833 105.427C47.7797 105.303 49.0431 104.946 50.2129 104.373C51.3751 103.802 52.2841 102.82 52.7639 101.617C52.9805 100.975 53.0583 100.295 52.9921 99.6203C52.926 98.9461 52.7174 98.2936 52.3802 97.706C51.0258 95.1596 48.2212 93.8542 45.4491 93.628C44.0218 93.5162 42.5866 93.6886 41.2264 94.1351C39.8662 94.5816 38.6081 95.2935 37.5248 96.2294C35.4369 98.1091 34.1512 100.719 33.9336 103.52C33.6916 106.424 34.8183 109.245 36.4611 111.588C38.1808 113.969 40.233 116.092 42.5551 117.891C47.0947 121.515 52.4196 124.026 58.1037 125.224C58.7798 125.363 59.4595 125.483 60.1429 125.582C60.3603 125.635 60.5897 125.603 60.7842 125.492C60.9788 125.382 61.1239 125.201 61.1901 124.988C61.2485 124.77 61.2188 124.538 61.1075 124.342C60.9963 124.146 60.8123 124.002 60.5955 123.94L60.5955 123.94Z" fill="#2C395D"/>
<path d="M141.724 86.939C134.3 86.8342 126.899 87.0226 119.522 87.5042C117 87.6689 114.818 88.5601 114.818 90.0581C114.818 91.3106 116.983 92.7779 119.522 92.612C126.896 92.1305 134.296 91.9421 141.724 92.0468C147.78 92.1323 147.776 87.0244 141.724 86.939Z" fill="white"/>
<path d="M130.752 91.7949C129.95 91.7949 111.102 91.7649 111.102 89.1615C111.102 86.5582 129.95 86.5282 130.752 86.5282C131.555 86.5282 150.403 86.5582 150.403 89.1615C150.403 91.7649 131.555 91.7949 130.752 91.7949ZM111.839 89.1615C112.355 89.9508 119.283 91.0685 130.752 91.0685C142.222 91.0685 149.15 89.9508 149.666 89.1615C149.15 88.3723 142.222 87.2546 130.752 87.2546C119.283 87.2546 112.355 88.3723 111.839 89.1615V89.1615Z" fill="#2C395D"/>
<path d="M190.552 160.236C194.724 160.12 199.917 159.975 203.917 157.053C205.108 156.147 206.087 154.992 206.785 153.668C207.483 152.344 207.882 150.883 207.956 149.388C208.038 147.081 207.204 145.066 205.608 143.718C203.519 141.952 200.468 141.538 197.18 142.504L200.586 117.609L198.085 117.266L194.081 146.534L196.169 145.576C198.59 144.465 201.913 143.9 203.979 145.645C204.486 146.102 204.881 146.669 205.133 147.302C205.386 147.936 205.488 148.62 205.434 149.3C205.372 150.412 205.072 151.498 204.554 152.484C204.035 153.471 203.31 154.333 202.428 155.014C199.315 157.288 195.176 157.582 190.481 157.713L190.552 160.236Z" fill="#2C395D"/>
<path d="M183.638 119.757H170.043V122.282H183.638V119.757Z" fill="#2C395D"/>
<path d="M73.9002 109.948C73.2951 109.947 72.7104 109.729 72.251 109.335C71.7915 108.942 71.4873 108.397 71.3928 107.799L70.563 102.504C70.4593 101.838 70.6242 101.158 71.0213 100.613C71.4184 100.068 72.0153 99.7033 72.6811 99.5983L116.819 92.6824C117.485 92.5787 118.165 92.7436 118.71 93.1407C119.255 93.5377 119.619 94.1347 119.724 94.8004L120.554 100.096C120.658 100.762 120.493 101.442 120.096 101.987C119.699 102.532 119.102 102.897 118.436 103.002L74.298 109.917C74.1664 109.938 74.0334 109.948 73.9002 109.948Z" fill="#2C395D"/>
<path d="M55.6347 47.8869C65.8643 47.8869 74.157 39.5942 74.157 29.3645C74.157 19.1349 65.8643 10.8422 55.6347 10.8422C45.4051 10.8422 37.1123 19.1349 37.1123 29.3645C37.1123 39.5942 45.4051 47.8869 55.6347 47.8869Z" fill="#EC4A42"/>
<path d="M66.1216 34.1563C66.7136 33.9493 67.2543 33.6179 67.7076 33.1844C68.0074 32.8753 68.2361 32.5045 68.3775 32.0977C68.519 31.691 68.5698 31.2583 68.5264 30.8299C68.5013 30.5245 68.4058 30.2291 68.2475 29.9668C68.0893 29.7044 67.8725 29.4822 67.6141 29.3175C66.9438 28.9053 66.058 28.9209 65.1637 29.3354L65.0605 22.1052L64.3342 22.1156L64.4556 30.6154L65.0084 30.2528C65.6496 29.833 66.5708 29.5286 67.2335 29.9363C67.3974 30.0442 67.5343 30.1885 67.6333 30.3579C67.7324 30.5273 67.7911 30.7173 67.8048 30.9131C67.8353 31.2322 67.7968 31.5543 67.6917 31.8572C67.5867 32.1601 67.4176 32.4369 67.196 32.6686C66.4086 33.4498 65.2432 33.7116 63.9131 33.951L64.0418 34.6658C64.7489 34.5585 65.4449 34.3879 66.1216 34.1563Z" fill="#2C395D"/>
<path d="M72.5394 21.5995L68.6714 22.1853L68.7801 22.9034L72.6481 22.3176L72.5394 21.5995Z" fill="#2C395D"/>
<path d="M60.3299 23.4471L56.4619 24.0328L56.5707 24.7509L60.4387 24.1651L60.3299 23.4471Z" fill="#2C395D"/>
<path d="M67.875 109.627C67.2089 109.625 66.559 109.421 66.0118 109.041C65.4646 108.662 65.046 108.124 64.8118 107.5L52.0411 73.2998C50.4802 69.1053 50.6469 64.463 52.5046 60.3912C54.3623 56.3195 57.7593 53.1509 61.9503 51.5806L72.3343 47.7032C72.7358 47.5522 73.1633 47.4822 73.592 47.4971C74.0207 47.512 74.4422 47.6115 74.8323 47.7899C75.2215 47.9638 75.572 48.2135 75.8636 48.5244C76.1551 48.8353 76.3818 49.2012 76.5303 49.6007L100.187 94.2664C100.34 94.6692 100.413 95.0984 100.4 95.5292C100.387 95.9601 100.289 96.3841 100.112 96.777C99.9342 97.1698 99.6808 97.5237 99.3661 97.8182C99.0513 98.1128 98.6815 98.3422 98.2777 98.4932L69.0173 109.419C68.6521 109.556 68.2652 109.627 67.875 109.627Z" fill="#2C395D"/>
<path d="M69.1826 48.8785L92.6548 80.2669L76.7722 49.208C76.641 48.8456 76.4398 48.5126 76.1799 48.228C75.92 47.9434 75.6065 47.7128 75.2575 47.5494C74.9085 47.3859 74.5307 47.2928 74.1457 47.2755C73.7606 47.2581 73.376 47.3167 73.0136 47.448L69.1826 48.8785Z" fill="white"/>
<path d="M106.349 72.7156L64.439 70.016C63.7784 69.9734 63.1326 69.8012 62.5386 69.5091C61.9445 69.217 61.4139 68.8107 60.9768 68.3135C60.5398 67.8163 60.205 67.2379 59.9915 66.6113C59.778 65.9847 59.69 65.3222 59.7326 64.6616C59.7751 64.001 59.9474 63.3553 60.2395 62.7612C60.5316 62.1672 60.9378 61.6365 61.435 61.1995C61.9322 60.7625 62.5107 60.4277 63.1373 60.2142C63.7639 60.0007 64.4264 59.9127 65.087 59.9552L106.997 62.6546C107.306 62.6745 107.608 62.7552 107.887 62.892C108.165 63.0288 108.413 63.219 108.618 63.4518C108.823 63.6847 108.98 63.9556 109.08 64.249C109.179 64.5425 109.221 64.8527 109.201 65.1621L108.856 70.5115C108.816 71.1363 108.529 71.7195 108.059 72.1328C107.589 72.5462 106.973 72.7558 106.349 72.7156Z" fill="#EC4A42"/>
<path d="M95.1502 74.4448C95.0949 74.4448 95.0394 74.443 94.9838 74.4395H94.9837L60.5698 72.2228C60.2367 72.2014 59.911 72.1145 59.6114 71.9672C59.3118 71.8199 59.0441 71.6151 58.8237 71.3643C58.6033 71.1136 58.4344 70.8218 58.3267 70.5058C58.2191 70.1898 58.1747 69.8557 58.1962 69.5225L58.7847 60.3855C58.8061 60.0523 58.893 59.7266 59.0404 59.427C59.1877 59.1274 59.3926 58.8598 59.6434 58.6394C59.8942 58.419 60.1859 58.2501 60.5019 58.1425C60.818 58.0348 61.1521 57.9905 61.4853 58.012L95.8991 60.2285C96.5717 60.2726 97.1993 60.5816 97.6443 61.0878C98.0892 61.5941 98.3152 62.2561 98.2727 62.9288L97.6843 72.066C97.6518 72.5556 97.4788 73.0254 97.1859 73.4191C96.8931 73.8128 96.4928 74.1136 96.0332 74.2854C95.7508 74.391 95.4517 74.445 95.1502 74.4448Z" fill="#2C395D"/>
<path d="M55.4219 17.048C57.8585 14.9523 61.2047 16.8271 63.9991 16.4989C66.6725 16.1849 68.7835 13.7868 69.3228 11.2391C69.952 8.26683 68.4092 5.28902 66.1353 3.43584C63.6448 1.40616 60.3417 0.823487 57.2117 1.19899C53.6243 1.62937 50.3435 3.30159 47.3996 5.32423C44.558 7.2161 41.9449 9.4304 39.6123 11.923C37.5236 14.2298 35.7539 16.9795 35.1888 20.0836C34.6753 22.9047 35.0674 26.0308 36.7351 28.4206C37.6194 29.6454 38.8045 30.6218 40.176 31.2553C41.606 31.9575 43.1314 32.4595 44.5168 33.2534C46.6115 34.4539 48.6475 36.943 47.9913 39.5332C47.8506 40.0991 47.573 40.6217 47.1828 41.055C46.7141 41.5753 45.8686 40.8877 46.3386 40.366C47.164 39.4496 47.1315 38.2276 46.6916 37.1336C46.1685 35.9008 45.2422 34.8822 44.0645 34.2447C42.6143 33.4156 41.0133 32.9038 39.5269 32.1486C38.1042 31.4587 36.8693 30.4353 35.9272 29.1654C34.1483 26.6932 33.6162 23.4758 34.0196 20.4995C34.4562 17.2786 36.1111 14.3518 38.1856 11.8991C40.4432 9.22995 43.2164 6.97054 46.0494 4.94077C49.0893 2.76282 52.4477 0.921502 56.1641 0.255529C59.3856 -0.321766 62.8774 0.0336529 65.6945 1.78923C68.3241 3.42795 70.3405 6.24686 70.541 9.39673C70.613 10.8299 70.3018 12.2564 69.6395 13.5294C68.9771 14.8023 67.9875 15.8758 66.7725 16.6394C65.5258 17.3854 64.0763 17.7212 62.6286 17.5994C61.0808 17.5003 59.5316 17.0264 57.974 17.1579C57.2691 17.2007 56.5975 17.4721 56.0607 17.931C55.5283 18.3889 54.8938 17.5022 55.4219 17.048V17.048Z" fill="#2C395D"/>
<path d="M268.568 216.883H0.431186C0.316714 216.882 0.207046 216.837 0.126219 216.755C0.0453916 216.674 0 216.565 0 216.45C0 216.336 0.0453916 216.226 0.126219 216.145C0.207046 216.064 0.316714 216.018 0.431186 216.018H268.568C268.682 216.018 268.792 216.063 268.873 216.144C268.954 216.225 269 216.335 269 216.45C269 216.565 268.954 216.675 268.873 216.756C268.792 216.837 268.682 216.883 268.568 216.883Z" fill="#2C395D"/>
</svg>
