<svg width="269" height="173" viewBox="0 0 269 173" fill="none" xmlns="http://www.w3.org/2000/svg">
<path d="M40.4978 47.004C40.9465 42.1717 42.1857 37.4459 44.1661 33.0152C44.7181 31.7822 45.3256 30.5763 45.9886 29.3976C46.0219 29.336 46.0299 29.2638 46.0109 29.1964C45.992 29.129 45.9476 29.0715 45.8872 29.0362C45.8267 29.0008 45.7549 28.9904 45.6868 29.007C45.6188 29.0236 45.5599 29.0659 45.5225 29.1251C43.1112 33.4183 41.4219 38.0786 40.5222 42.9197C40.2719 44.2716 40.0838 45.6331 39.9579 47.004C39.9259 47.3498 40.466 47.3477 40.4978 47.004Z" fill="#2C395D"/>
<path d="M47.2961 30.2636C49.1845 30.2636 50.7153 28.7328 50.7153 26.8444C50.7153 24.9561 49.1845 23.4253 47.2961 23.4253C45.4078 23.4253 43.877 24.9561 43.877 26.8444C43.877 28.7328 45.4078 30.2636 47.2961 30.2636Z" fill="#2C395D"/>
<path d="M40.8477 47.0951C41.1388 43.9601 41.9428 40.8943 43.2275 38.0199C43.5856 37.22 43.9797 36.4377 44.4099 35.673C44.4314 35.633 44.4366 35.5862 44.4243 35.5424C44.4121 35.4987 44.3833 35.4614 44.3441 35.4385C44.3048 35.4156 44.2582 35.4088 44.2141 35.4195C44.1699 35.4303 44.1317 35.4578 44.1074 35.4962C42.5431 38.2814 41.4472 41.3048 40.8636 44.4454C40.7012 45.3224 40.5792 46.2057 40.4975 47.0951C40.4767 47.3194 40.8271 47.318 40.8477 47.0951Z" fill="#2C395D"/>
<path d="M45.2577 36.2347C46.4828 36.2347 47.4759 35.2416 47.4759 34.0165C47.4759 32.7914 46.4828 31.7983 45.2577 31.7983C44.0327 31.7983 43.0396 32.7914 43.0396 34.0165C43.0396 35.2416 44.0327 36.2347 45.2577 36.2347Z" fill="#2C395D"/>
<path d="M40.4054 46.8853C38.7068 44.2344 37.455 41.3225 36.7001 38.2659C36.4904 37.415 36.32 36.5557 36.1889 35.6882C36.1813 35.6434 36.1566 35.6033 36.12 35.5764C36.0834 35.5494 36.0378 35.5377 35.9927 35.5438C35.9477 35.5498 35.9068 35.5731 35.8786 35.6088C35.8504 35.6444 35.8372 35.6896 35.8417 35.7348C36.3213 38.893 37.3168 41.951 38.7882 44.7863C39.1996 45.5777 39.6467 46.3491 40.1293 47.1007C40.2509 47.2903 40.5263 47.0737 40.4054 46.8853Z" fill="#2C395D"/>
<path d="M35.8388 36.0787C37.0638 36.0787 38.0569 35.0856 38.0569 33.8605C38.0569 32.6354 37.0638 31.6423 35.8388 31.6423C34.6137 31.6423 33.6206 32.6354 33.6206 33.8605C33.6206 35.0856 34.6137 36.0787 35.8388 36.0787Z" fill="#2C395D"/>
<path d="M33.5957 48.8482V44.49C33.5962 44.0567 33.7685 43.6413 34.0749 43.3349C34.3813 43.0285 34.7967 42.8562 35.23 42.8557H45.3992C45.8325 42.8562 46.2479 43.0285 46.5543 43.3349C46.8607 43.6413 47.033 44.0567 47.0335 44.49V48.8482C47.033 49.2815 46.8607 49.697 46.5543 50.0033C46.2479 50.3097 45.8325 50.4821 45.3992 50.4826H35.23C34.7967 50.4821 34.3813 50.3097 34.0749 50.0033C33.7685 49.697 33.5962 49.2815 33.5957 48.8482Z" fill="#EC4A42"/>
<path d="M45.0357 20.8147H40.6781C40.311 20.8142 39.959 20.6682 39.6995 20.4087C39.4399 20.1491 39.2939 19.7972 39.2935 19.4302V1.63447C39.2939 1.26743 39.4399 0.915542 39.6995 0.655999C39.959 0.396456 40.3109 0.25045 40.6779 0.25H45.0358C45.4029 0.25045 45.7548 0.396458 46.0143 0.655999C46.2739 0.915572 46.4199 1.26751 46.4203 1.63461V19.43C46.4199 19.7971 46.2739 20.1491 46.0143 20.4087C45.7547 20.6682 45.4028 20.8142 45.0357 20.8147Z" stroke="#2C395D" stroke-width="0.5"/>
<path d="M46.4888 3.4502H39.2251V4.90293H46.4888V3.4502Z" fill="#EC4A42"/>
<path d="M46.4888 14.709H39.2251V16.1617H46.4888V14.709Z" fill="#EC4A42"/>
<path d="M55.9312 20.8147H51.5736C51.2065 20.8142 50.8545 20.6682 50.595 20.4087C50.3354 20.1491 50.1894 19.7972 50.189 19.4302V1.63447C50.1894 1.26743 50.3354 0.915542 50.595 0.655999C50.8545 0.396456 51.2064 0.25045 51.5734 0.25H55.9314C56.2984 0.25045 56.6503 0.396458 56.9098 0.655999C57.1694 0.915572 57.3154 1.26751 57.3158 1.63461V19.43C57.3154 19.7971 57.1694 20.1491 56.9098 20.4087C56.6503 20.6682 56.2983 20.8142 55.9312 20.8147Z" stroke="#2C395D" stroke-width="0.5"/>
<path d="M57.3843 3.4502H50.1206V4.90293H57.3843V3.4502Z" fill="#EC4A42"/>
<path d="M57.3843 14.709H50.1206V16.1617H57.3843V14.709Z" fill="#EC4A42"/>
<path d="M66.8267 20.8147H62.4691C62.102 20.8142 61.7501 20.6682 61.4905 20.4087C61.2309 20.1491 61.0849 19.7972 61.0845 19.4302V1.63447C61.0849 1.26743 61.2309 0.915542 61.4905 0.655999C61.75 0.396456 62.1019 0.25045 62.4689 0.25H66.8269C67.1939 0.25045 67.5458 0.396458 67.8053 0.655999C68.0649 0.915572 68.2109 1.26751 68.2113 1.63461V19.43C68.2109 19.7971 68.0649 20.1491 67.8053 20.4087C67.5458 20.6682 67.1938 20.8142 66.8267 20.8147Z" stroke="#2C395D" stroke-width="0.5"/>
<path d="M68.2798 3.4502H61.0161V4.90293H68.2798V3.4502Z" fill="#EC4A42"/>
<path d="M68.2798 14.709H61.0161V16.1617H68.2798V14.709Z" fill="#EC4A42"/>
<path d="M72.6378 50.2326H68.2801C67.913 50.2322 67.5611 50.0862 67.3015 49.8266C67.042 49.5671 66.896 49.2152 66.8955 48.8482V31.0524C66.896 30.6854 67.042 30.3335 67.3015 30.074C67.5611 29.8144 67.9129 29.6684 68.28 29.668H72.6379C73.0049 29.6684 73.3568 29.8144 73.6164 30.074C73.8759 30.3335 74.022 30.6855 74.0224 31.0526V48.848C74.022 49.2151 73.8759 49.567 73.6164 49.8266C73.3568 50.0862 73.0049 50.2322 72.6378 50.2326Z" stroke="#2C395D" stroke-width="0.5"/>
<path d="M74.0908 32.8682H66.8271V34.3209H74.0908V32.8682Z" fill="#EC4A42"/>
<path d="M74.0908 44.1267H66.8271V45.5794H74.0908V44.1267Z" fill="#EC4A42"/>
<path d="M83.5333 50.2326H79.1756C78.8085 50.2322 78.4566 50.0862 78.197 49.8266C77.9375 49.5671 77.7915 49.2152 77.791 48.8482V31.0524C77.7915 30.6854 77.9375 30.3335 78.197 30.074C78.4566 29.8144 78.8084 29.6684 79.1755 29.668H83.5334C83.9005 29.6684 84.2523 29.8144 84.5119 30.074C84.7715 30.3335 84.9175 30.6855 84.9179 31.0526V48.848C84.9175 49.2151 84.7715 49.567 84.5119 49.8266C84.2523 50.0862 83.9004 50.2322 83.5333 50.2326Z" stroke="#2C395D" stroke-width="0.5"/>
<path d="M84.9863 32.8682H77.7227V34.3209H84.9863V32.8682Z" fill="#EC4A42"/>
<path d="M84.9863 44.1267H77.7227V45.5794H84.9863V44.1267Z" fill="#EC4A42"/>
<path d="M94.4288 50.2326H90.0711C89.704 50.2322 89.3521 50.0862 89.0925 49.8266C88.833 49.5671 88.687 49.2152 88.6865 48.8482V31.0524C88.687 30.6854 88.833 30.3335 89.0925 30.074C89.3521 29.8144 89.7039 29.6684 90.071 29.668H94.4289C94.796 29.6684 95.1478 29.8144 95.4074 30.074C95.667 30.3335 95.813 30.6855 95.8134 31.0526V48.848C95.813 49.2151 95.667 49.567 95.4074 49.8266C95.1478 50.0862 94.7959 50.2322 94.4288 50.2326Z" stroke="#2C395D" stroke-width="0.5"/>
<path d="M95.8818 32.8682H88.6182V34.3209H95.8818V32.8682Z" fill="#EC4A42"/>
<path d="M95.8818 44.1267H88.6182V45.5794H95.8818V44.1267Z" fill="#EC4A42"/>
<path d="M43.9464 79.6504H39.5887C39.2216 79.6499 38.8697 79.5039 38.6101 79.2443C38.3506 78.9848 38.2046 78.6329 38.2041 78.2659V60.4702C38.2046 60.1031 38.3506 59.7512 38.6101 59.4917C38.8696 59.2321 39.2215 59.0861 39.5886 59.0857H43.9465C44.3135 59.0861 44.6654 59.2321 44.925 59.4917C45.1845 59.7513 45.3305 60.1032 45.331 60.4703V78.2657C45.3305 78.6328 45.1845 78.9848 44.925 79.2443C44.6654 79.5039 44.3134 79.6499 43.9464 79.6504Z" stroke="#2C395D" stroke-width="0.5"/>
<path d="M45.3994 62.2861H38.1357V63.7389H45.3994V62.2861Z" fill="#EC4A42"/>
<path d="M45.3994 73.5447H38.1357V74.9974H45.3994V73.5447Z" fill="#EC4A42"/>
<path d="M54.8419 79.6504H50.4842C50.1171 79.6499 49.7652 79.5039 49.5056 79.2443C49.2461 78.9848 49.1001 78.6329 49.0996 78.2659V60.4702C49.1001 60.1031 49.2461 59.7512 49.5056 59.4917C49.7652 59.2321 50.117 59.0861 50.4841 59.0857H54.842C55.209 59.0861 55.5609 59.2321 55.8205 59.4917C56.08 59.7513 56.2261 60.1032 56.2265 60.4703V78.2657C56.2261 78.6328 56.08 78.9848 55.8205 79.2443C55.5609 79.5039 55.209 79.6499 54.8419 79.6504Z" stroke="#2C395D" stroke-width="0.5"/>
<path d="M56.2949 62.2861H49.0312V63.7389H56.2949V62.2861Z" fill="#EC4A42"/>
<path d="M56.2949 73.5447H49.0312V74.9974H56.2949V73.5447Z" fill="#EC4A42"/>
<path d="M65.7374 79.6504H61.3797C61.0126 79.6499 60.6607 79.5039 60.4011 79.2443C60.1416 78.9848 59.9956 78.6329 59.9951 78.2659V60.4702C59.9956 60.1031 60.1416 59.7512 60.4011 59.4917C60.6607 59.2321 61.0125 59.0861 61.3796 59.0857H65.7375C66.1046 59.0861 66.4564 59.2321 66.716 59.4917C66.9756 59.7513 67.1216 60.1032 67.122 60.4703V78.2657C67.1216 78.6328 66.9756 78.9848 66.716 79.2443C66.4564 79.5039 66.1045 79.6499 65.7374 79.6504Z" stroke="#2C395D" stroke-width="0.5"/>
<path d="M67.1904 62.2861H59.9268V63.7389H67.1904V62.2861Z" fill="#EC4A42"/>
<path d="M67.1904 73.5447H59.9268V74.9974H67.1904V73.5447Z" fill="#EC4A42"/>
<path d="M77.7222 20.8147H73.3646C72.9975 20.8142 72.6456 20.6682 72.386 20.4087C72.1264 20.1491 71.9804 19.7972 71.98 19.4302V1.63447C71.9804 1.26743 72.1264 0.915542 72.386 0.655999C72.6455 0.396456 72.9974 0.25045 73.3644 0.25H77.7224C78.0894 0.25045 78.4413 0.396458 78.7008 0.655999C78.9604 0.915572 79.1064 1.26751 79.1068 1.63461V19.43C79.1064 19.7971 78.9604 20.1491 78.7008 20.4087C78.4413 20.6682 78.0893 20.8142 77.7222 20.8147Z" stroke="#2C395D" stroke-width="0.5"/>
<path d="M79.1753 3.4502H71.9116V4.90293H79.1753V3.4502Z" fill="#EC4A42"/>
<path d="M79.1753 14.709H71.9116V16.1617H79.1753V14.709Z" fill="#EC4A42"/>
<path d="M88.6177 20.8147H84.2601C83.893 20.8142 83.5411 20.6682 83.2815 20.4087C83.0219 20.1491 82.8759 19.7972 82.8755 19.4302V1.63447C82.8759 1.26743 83.0219 0.915542 83.2815 0.655999C83.541 0.396456 83.8929 0.25045 84.26 0.25H88.6179C88.9849 0.25045 89.3368 0.396458 89.5964 0.655999C89.8559 0.915572 90.0019 1.26751 90.0023 1.63461V19.43C90.0019 19.7971 89.8559 20.1491 89.5964 20.4087C89.3368 20.6682 88.9848 20.8142 88.6177 20.8147Z" stroke="#2C395D" stroke-width="0.5"/>
<path d="M90.0708 3.4502H82.8071V4.90293H90.0708V3.4502Z" fill="#EC4A42"/>
<path d="M90.0708 14.709H82.8071V16.1617H90.0708V14.709Z" fill="#EC4A42"/>
<path d="M99.5132 20.8147H95.1556C94.7885 20.8142 94.4366 20.6682 94.177 20.4087C93.9175 20.1491 93.7714 19.7972 93.771 19.4302V1.63447C93.7714 1.26743 93.9175 0.915542 94.177 0.655999C94.4365 0.396456 94.7884 0.25045 95.1555 0.25H99.5134C99.8804 0.25045 100.232 0.396458 100.492 0.655999C100.751 0.915572 100.897 1.26751 100.898 1.63461V19.43C100.897 19.7971 100.751 20.1491 100.492 20.4087C100.232 20.6682 99.8803 20.8142 99.5132 20.8147Z" stroke="#2C395D" stroke-width="0.5"/>
<path d="M100.966 3.4502H93.7026V4.90293H100.966V3.4502Z" fill="#EC4A42"/>
<path d="M100.966 14.709H93.7026V16.1617H100.966V14.709Z" fill="#EC4A42"/>
<path d="M110.409 20.8147H106.051C105.684 20.8142 105.332 20.6682 105.072 20.4087C104.813 20.1491 104.667 19.7972 104.667 19.4302V1.63447C104.667 1.26742 104.813 0.915536 105.072 0.655999C105.332 0.396459 105.684 0.25045 106.051 0.25H110.409C110.776 0.25045 111.128 0.396456 111.387 0.655999C111.647 0.915575 111.793 1.26752 111.793 1.63461V19.43C111.793 19.7971 111.647 20.1491 111.387 20.4087C111.128 20.6682 110.776 20.8142 110.409 20.8147Z" stroke="#2C395D" stroke-width="0.5"/>
<path d="M111.862 3.4502H104.598V4.90293H111.862V3.4502Z" fill="#EC4A42"/>
<path d="M111.862 14.709H104.598V16.1617H111.862V14.709Z" fill="#EC4A42"/>
<path d="M126.731 21.6094H23.2235C23.1272 21.6094 23.0348 21.5712 22.9667 21.503C22.8986 21.4349 22.8604 21.3426 22.8604 21.2462C22.8604 21.1499 22.8986 21.0575 22.9667 20.9894C23.0348 20.9213 23.1272 20.8831 23.2235 20.8831H126.731C126.827 20.8831 126.92 20.9213 126.988 20.9894C127.056 21.0575 127.094 21.1499 127.094 21.2462C127.094 21.3426 127.056 21.4349 126.988 21.503C126.92 21.5712 126.827 21.6094 126.731 21.6094Z" fill="#2C395D"/>
<path d="M126.731 51.0274H23.2235C23.1272 51.0274 23.0348 50.9891 22.9667 50.921C22.8986 50.8529 22.8604 50.7605 22.8604 50.6642C22.8604 50.5679 22.8986 50.4755 22.9667 50.4074C23.0348 50.3393 23.1272 50.301 23.2235 50.301H126.731C126.827 50.301 126.92 50.3393 126.988 50.4074C127.056 50.4755 127.094 50.5679 127.094 50.6642C127.094 50.7605 127.056 50.8529 126.988 50.921C126.92 50.9891 126.827 51.0274 126.731 51.0274Z" fill="#2C395D"/>
<path d="M126.731 80.4451H23.2235C23.1272 80.4451 23.0348 80.4068 22.9667 80.3387C22.8986 80.2706 22.8604 80.1783 22.8604 80.0819C22.8604 79.9856 22.8986 79.8932 22.9667 79.8251C23.0348 79.757 23.1272 79.7188 23.2235 79.7188H126.731C126.827 79.7188 126.92 79.757 126.988 79.8251C127.056 79.8932 127.094 79.9856 127.094 80.0819C127.094 80.1783 127.056 80.2706 126.988 80.3387C126.92 80.4068 126.827 80.4451 126.731 80.4451Z" fill="#2C395D"/>
<path d="M120.601 137.459C120.601 134.65 110.032 132.374 96.9942 132.374C83.9564 132.374 73.3872 134.65 73.3872 137.459C73.3872 139.258 77.7325 140.838 84.2827 141.742V169.6C84.2827 170.226 84.5314 170.827 84.9742 171.27C85.4169 171.712 86.0173 171.961 86.6434 171.961C87.2695 171.961 87.87 171.712 88.3127 171.27C88.7554 170.827 89.0041 170.226 89.0041 169.6V142.244C91.4999 142.437 94.1892 142.543 96.9942 142.543C99.7991 142.543 102.488 142.437 104.984 142.244V169.6C104.984 170.226 105.233 170.827 105.676 171.27C106.118 171.712 106.719 171.961 107.345 171.961C107.971 171.961 108.571 171.712 109.014 171.27C109.457 170.827 109.706 170.226 109.706 169.6V141.742C116.256 140.838 120.601 139.258 120.601 137.459Z" fill="#2C395D"/>
<path d="M116.058 167.393H120.511L122.629 150.219H116.058L116.058 167.393Z" fill="#A0616A"/>
<path d="M129.098 171.528L115.104 171.528L115.104 166.122L123.691 166.121C125.125 166.121 126.5 166.691 127.514 167.705C128.528 168.719 129.098 170.094 129.098 171.528L129.098 171.528Z" fill="#2F2E41"/>
<path d="M123.01 164.909L127.258 163.575L124.137 146.555L117.867 148.522L123.01 164.909Z" fill="#A0616A"/>
<path d="M136.688 164.949L123.337 169.139L121.718 163.981L129.911 161.409C131.279 160.98 132.762 161.112 134.033 161.776C135.304 162.44 136.259 163.581 136.688 164.949Z" fill="#2F2E41"/>
<path d="M120.031 157.004L111.886 135.623C110.058 136.052 94.7336 139.443 89.601 133.978C87.842 132.105 87.4989 129.391 88.5813 125.912L91.5767 122.148L91.6698 122.153C92.8023 122.213 119.43 123.705 121.255 131.737C122.794 138.508 125.605 151.133 126.43 154.841C126.513 155.225 126.456 155.627 126.268 155.972C126.081 156.318 125.775 156.585 125.408 156.724L122.132 157.952C121.949 158.021 121.756 158.056 121.561 158.056C121.229 158.056 120.906 157.955 120.632 157.767C120.359 157.579 120.149 157.313 120.031 157.004Z" fill="#2F2E41"/>
<path d="M115.309 159.546L107.164 138.165C105.336 138.594 90.0119 141.985 84.8793 136.52C83.1203 134.647 82.7772 131.934 83.8596 128.455L86.855 124.69L86.9481 124.695C88.0806 124.755 114.708 126.247 116.533 134.279C118.072 141.051 120.883 153.675 121.708 157.383C121.791 157.768 121.734 158.169 121.547 158.515C121.359 158.86 121.054 159.127 120.686 159.266L117.41 160.494C117.228 160.563 117.034 160.598 116.839 160.598C116.508 160.598 116.184 160.497 115.911 160.31C115.638 160.122 115.428 159.855 115.309 159.546Z" fill="#2F2E41"/>
<path d="M126.317 108.293C126.196 108.454 126.089 108.624 125.995 108.802L108.083 110.689L105.505 107.154L99.6606 110.348L104.725 118.926L126.693 113.325C127.247 113.866 127.953 114.224 128.716 114.354C129.479 114.484 130.264 114.378 130.965 114.051C131.667 113.723 132.252 113.19 132.643 112.523C133.034 111.855 133.213 111.083 133.155 110.312C133.098 109.54 132.806 108.804 132.32 108.201C131.834 107.599 131.176 107.159 130.433 106.94C129.691 106.721 128.899 106.733 128.164 106.974C127.429 107.216 126.784 107.676 126.317 108.293V108.293Z" fill="#A0616A"/>
<path d="M83.7447 129.584C83.4996 129.407 83.3081 129.166 83.1916 128.887C83.075 128.609 83.0378 128.303 83.0842 128.005C84.0948 121.343 82.9321 111.8 81.7787 104.967C81.5426 103.581 81.6345 102.158 82.0469 100.814C82.4594 99.4692 83.181 98.2401 84.154 97.2247C85.127 96.2092 86.3242 95.4358 87.6498 94.9663C88.9755 94.4969 90.3926 94.3444 91.7878 94.5211C93.0016 94.6814 94.2041 94.9185 95.388 95.2308C97.3545 95.726 99.094 96.8756 100.32 98.4906C101.547 100.106 102.187 102.09 102.137 104.117C101.964 110.71 103.303 118.937 103.887 122.168C103.926 122.39 103.92 122.617 103.868 122.837C103.816 123.056 103.719 123.262 103.584 123.443C103.451 123.621 103.283 123.77 103.089 123.879C102.895 123.989 102.681 124.057 102.46 124.078C95.992 124.738 89.0174 127.893 85.4355 129.714C85.2053 129.833 84.9502 129.895 84.6912 129.896C84.3506 129.895 84.0193 129.785 83.7447 129.584Z" fill="#EC4A42"/>
<path d="M101.203 112.401C101.003 112.323 100.821 112.205 100.667 112.056C100.513 111.906 100.39 111.728 100.305 111.53L96.698 103.198C96.4796 102.695 96.3626 102.153 96.3536 101.604C96.3446 101.056 96.4438 100.511 96.6456 100C96.8473 99.49 97.1477 99.0244 97.5295 98.6302C97.9112 98.2361 98.367 97.921 98.8706 97.703C99.3742 97.485 99.9158 97.3684 100.465 97.3599C101.013 97.3513 101.558 97.451 102.068 97.6532C102.579 97.8554 103.044 98.1561 103.438 98.5382C103.832 98.9203 104.146 99.3763 104.364 99.8801L107.971 108.212C108.142 108.61 108.149 109.06 107.99 109.463C107.83 109.866 107.518 110.189 107.12 110.361L102.454 112.381C102.257 112.467 102.045 112.513 101.831 112.517C101.616 112.52 101.403 112.481 101.203 112.401H101.203Z" fill="#EC4A42"/>
<path d="M109.247 107.566C109.127 107.727 109.019 107.897 108.925 108.075L91.0132 109.962L88.4347 106.427L82.5908 109.621L87.6552 118.2L109.623 112.599C110.177 113.139 110.883 113.498 111.646 113.627C112.409 113.757 113.194 113.651 113.895 113.324C114.597 112.997 115.182 112.464 115.573 111.796C115.965 111.128 116.143 110.357 116.086 109.585C116.028 108.813 115.736 108.077 115.25 107.475C114.764 106.872 114.106 106.433 113.364 106.213C112.621 105.994 111.83 106.006 111.094 106.248C110.359 106.49 109.715 106.949 109.247 107.566V107.566Z" fill="#A0616A"/>
<path d="M84.1335 112.764C83.9336 112.686 83.7513 112.568 83.5971 112.419C83.4429 112.27 83.3199 112.091 83.2351 111.894L79.6282 103.561C79.4098 103.058 79.2928 102.516 79.2838 101.968C79.2748 101.419 79.374 100.874 79.5757 100.364C79.7775 99.8533 80.0779 99.3877 80.4596 98.9935C80.8414 98.5993 81.2971 98.2843 81.8007 98.0663C82.3044 97.8483 82.846 97.7317 83.3947 97.7232C83.9434 97.7146 84.4884 97.8143 84.9985 98.0165C85.5087 98.2187 85.974 98.5194 86.3679 98.9015C86.7617 99.2836 87.0764 99.7396 87.294 100.243L90.901 108.576C91.0726 108.974 91.0794 109.423 90.92 109.826C90.7605 110.229 90.4478 110.552 90.0504 110.725L85.3843 112.745C85.1875 112.83 84.9756 112.876 84.7609 112.88C84.5462 112.883 84.333 112.844 84.1335 112.764H84.1335Z" fill="#EC4A42"/>
<path d="M91.1238 91.6865C96.0503 91.6865 100.044 87.6928 100.044 82.7664C100.044 77.8399 96.0503 73.8462 91.1238 73.8462C86.1973 73.8462 82.2036 77.8399 82.2036 82.7664C82.2036 87.6928 86.1973 91.6865 91.1238 91.6865Z" fill="#A0616A"/>
<path d="M84.7464 88.8883C84.7081 88.7763 84.6959 88.6571 84.7109 88.5397C84.7258 88.4223 84.7674 88.3099 84.8325 88.2111C84.8975 88.1123 84.9844 88.0297 85.0863 87.9696C85.1882 87.9095 85.3026 87.8735 85.4206 87.8645C85.6621 87.8776 85.8986 87.9396 86.1156 88.0466C86.3325 88.1537 86.5256 88.3036 86.683 88.4873C87.0058 88.8596 87.3817 89.1822 87.7984 89.4451C88.2299 89.6626 88.8152 89.6316 89.0611 89.2169C89.2921 88.8275 89.1339 88.3061 88.994 87.8537C88.6382 86.7029 88.4391 85.5094 88.4021 84.3054C88.3618 82.9615 88.5514 81.559 89.2954 80.5108C90.2556 79.1581 91.9726 78.6445 93.5975 78.6817C95.2224 78.719 96.8209 79.2206 98.4304 79.5376C98.986 79.6471 99.6392 79.7031 100.011 79.2724C100.406 78.8145 100.261 78.0734 100.093 77.4551C99.6566 75.8508 99.1939 74.1921 98.1805 72.8964C97.0848 71.55 95.5196 70.6688 93.8002 70.4303C92.1495 70.2258 90.4738 70.4161 88.9109 70.9854C86.3646 71.788 84.124 73.3488 82.4888 75.4593C80.8031 77.7037 80.0747 80.5242 80.4629 83.3041C80.8421 85.7253 82.1251 87.9128 84.0533 89.4255L84.7464 88.8883Z" fill="#2F2E41"/>
<path d="M50.6867 110.363C51.1354 105.53 52.3747 100.805 54.3551 96.3739C54.907 95.1408 55.5145 93.935 56.1776 92.7563C56.2108 92.6946 56.2188 92.6225 56.1999 92.555C56.181 92.4876 56.1366 92.4302 56.0761 92.3948C56.0157 92.3595 55.9439 92.349 55.8758 92.3656C55.8078 92.3822 55.7488 92.4246 55.7114 92.4838C53.3002 96.777 51.6109 101.437 50.7112 106.278C50.4609 107.63 50.2728 108.992 50.1469 110.363C50.1149 110.708 50.6549 110.706 50.6867 110.363Z" fill="#3F3D56"/>
<path d="M57.4851 93.6222C59.3734 93.6222 60.9042 92.0914 60.9042 90.2031C60.9042 88.3147 59.3734 86.7839 57.4851 86.7839C55.5967 86.7839 54.0659 88.3147 54.0659 90.2031C54.0659 92.0914 55.5967 93.6222 57.4851 93.6222Z" fill="#EC4A42"/>
<path d="M51.0367 110.454C51.3278 107.319 52.1317 104.253 53.4165 101.379C53.7746 100.579 54.1687 99.7963 54.5988 99.0316C54.6204 98.9916 54.6256 98.9448 54.6133 98.9011C54.601 98.8573 54.5723 98.8201 54.533 98.7971C54.4938 98.7742 54.4472 98.7674 54.4031 98.7782C54.3589 98.789 54.3207 98.8164 54.2964 98.8549C52.7321 101.64 51.6362 104.663 51.0525 107.804C50.8902 108.681 50.7681 109.564 50.6864 110.454C50.6657 110.678 51.016 110.677 51.0367 110.454Z" fill="#3F3D56"/>
<path d="M55.4472 99.5933C56.6722 99.5933 57.6653 98.6002 57.6653 97.3752C57.6653 96.1501 56.6722 95.157 55.4472 95.157C54.2221 95.157 53.229 96.1501 53.229 97.3752C53.229 98.6002 54.2221 99.5933 55.4472 99.5933Z" fill="#EC4A42"/>
<path d="M50.5944 110.245C48.8957 107.594 47.644 104.682 46.8891 101.625C46.6794 100.774 46.509 99.9151 46.3778 99.0476C46.3702 99.0028 46.3455 98.9627 46.309 98.9357C46.2724 98.9088 46.2267 98.8971 46.1817 98.9032C46.1367 98.9092 46.0957 98.9325 46.0676 98.9682C46.0394 99.0038 46.0261 99.049 46.0306 99.0942C46.5103 102.252 47.5057 105.31 48.9772 108.146C49.3886 108.937 49.8356 109.709 50.3182 110.46C50.4399 110.65 50.7152 110.433 50.5944 110.245Z" fill="#3F3D56"/>
<path d="M46.0277 99.438C47.2528 99.438 48.2459 98.4449 48.2459 97.2199C48.2459 95.9948 47.2528 95.0017 46.0277 95.0017C44.8027 95.0017 43.8096 95.9948 43.8096 97.2199C43.8096 98.4449 44.8027 99.438 46.0277 99.438Z" fill="#EC4A42"/>
<path d="M43.7852 112.207V107.848C43.7856 107.415 43.958 107 44.2644 106.693C44.5708 106.387 44.9862 106.215 45.4195 106.214H55.5886C56.0219 106.215 56.4373 106.387 56.7437 106.693C57.0501 107 57.2225 107.415 57.223 107.848V112.207C57.2225 112.64 57.0501 113.055 56.7437 113.362C56.4373 113.668 56.0219 113.84 55.5886 113.841H45.4195C44.9862 113.84 44.5708 113.668 44.2644 113.362C43.958 113.055 43.7856 112.64 43.7852 112.207Z" fill="#2C395D"/>
<path d="M134.947 110.946H106.256C105.553 110.946 104.984 111.515 104.984 112.217C104.984 112.919 105.553 113.489 106.256 113.489H134.947C135.649 113.489 136.218 112.919 136.218 112.217C136.218 111.515 135.649 110.946 134.947 110.946Z" fill="#2C395D"/>
<path d="M154.196 113.489H121.872C121.247 113.488 120.646 113.239 120.204 112.796C119.761 112.354 119.512 111.754 119.512 111.128V93.3319C119.512 92.706 119.761 92.106 120.204 91.6634C120.646 91.2208 121.247 90.9719 121.872 90.9712H154.196C154.822 90.9719 155.422 91.2208 155.864 91.6634C156.307 92.106 156.556 92.706 156.556 93.3319V111.128C156.556 111.754 156.307 112.354 155.864 112.796C155.422 113.239 154.822 113.488 154.196 113.489Z" fill="#2C395D"/>
<path d="M138.034 104.409C139.238 104.409 140.213 103.433 140.213 102.23C140.213 101.026 139.238 100.051 138.034 100.051C136.831 100.051 135.855 101.026 135.855 102.23C135.855 103.433 136.831 104.409 138.034 104.409Z" fill="white"/>
<path d="M236.457 137.459C236.457 134.65 225.887 132.374 212.85 132.374C199.812 132.374 189.243 134.65 189.243 137.459C189.243 139.258 193.588 140.838 200.138 141.742V169.6C200.138 170.226 200.387 170.827 200.83 171.27C201.272 171.712 201.873 171.961 202.499 171.961C203.125 171.961 203.725 171.712 204.168 171.27C204.611 170.827 204.86 170.226 204.86 169.6V142.244C207.355 142.437 210.045 142.543 212.85 142.543C215.655 142.543 218.344 142.437 220.84 142.244V169.6C220.84 170.226 221.088 170.827 221.531 171.27C221.974 171.712 222.574 171.961 223.2 171.961C223.826 171.961 224.427 171.712 224.87 171.27C225.312 170.827 225.561 170.226 225.561 169.6V141.742C232.111 140.838 236.457 139.258 236.457 137.459Z" fill="#2C395D"/>
<path d="M215.46 90.9193C221.076 90.9193 225.629 86.3665 225.629 80.7502C225.629 75.1339 221.076 70.5811 215.46 70.5811C209.844 70.5811 205.291 75.1339 205.291 80.7502C205.291 86.3665 209.844 90.9193 215.46 90.9193Z" fill="#2F2E41"/>
<path d="M190.154 167.757H185.701L183.583 150.582H190.154L190.154 167.757Z" fill="#FFB8B8"/>
<path d="M182.52 166.484H191.108V171.891H177.114C177.114 171.181 177.254 170.478 177.525 169.822C177.797 169.166 178.195 168.57 178.697 168.068C179.199 167.566 179.795 167.168 180.451 166.896C181.107 166.624 181.81 166.484 182.52 166.484Z" fill="#2F2E41"/>
<path d="M183.203 165.272L178.955 163.938L182.075 146.918L188.345 148.885L183.203 165.272Z" fill="#FFB8B8"/>
<path d="M176.301 161.772L184.494 164.343L182.875 169.502L169.524 165.312C169.736 164.634 170.08 164.006 170.536 163.461C170.992 162.917 171.55 162.467 172.179 162.138C172.809 161.81 173.497 161.608 174.204 161.545C174.911 161.482 175.624 161.56 176.301 161.772Z" fill="#2F2E41"/>
<path d="M184.652 158.419C184.457 158.419 184.263 158.384 184.081 158.315L180.805 157.087C180.437 156.948 180.132 156.681 179.944 156.336C179.757 155.99 179.7 155.589 179.783 155.204C180.608 151.496 183.418 138.872 184.958 132.1C186.783 124.068 213.41 122.576 214.543 122.516L214.636 122.511L217.631 126.276C218.714 129.755 218.371 132.468 216.612 134.341C211.479 139.806 196.155 136.415 194.327 135.986L186.182 157.367C186.063 157.676 185.853 157.943 185.58 158.131C185.307 158.318 184.983 158.419 184.652 158.419Z" fill="#2F2E41"/>
<path d="M189.373 160.961C189.178 160.961 188.984 160.926 188.802 160.857L185.526 159.629C185.159 159.49 184.853 159.223 184.666 158.878C184.478 158.532 184.421 158.131 184.504 157.747C185.329 154.039 188.14 141.414 189.679 134.643C191.504 126.611 218.132 125.118 219.264 125.059L219.357 125.054L222.353 128.818C223.435 132.297 223.092 135.01 221.333 136.883C216.2 142.348 200.876 138.957 199.048 138.528L190.903 159.909C190.784 160.219 190.575 160.485 190.301 160.673C190.028 160.861 189.704 160.961 189.373 160.961Z" fill="#2F2E41"/>
<path d="M179.896 108.656C180.016 108.817 180.123 108.987 180.217 109.165L198.129 111.052L200.708 107.517L206.552 110.711L201.487 119.289L179.519 113.688C178.965 114.229 178.259 114.587 177.496 114.717C176.733 114.847 175.949 114.741 175.247 114.414C174.546 114.086 173.96 113.553 173.569 112.886C173.178 112.218 172.999 111.446 173.057 110.675C173.115 109.903 173.406 109.167 173.892 108.564C174.379 107.962 175.037 107.522 175.779 107.303C176.521 107.084 177.313 107.096 178.048 107.337C178.784 107.579 179.428 108.039 179.896 108.656Z" fill="#FFB8B8"/>
<path d="M221.521 130.259C221.262 130.258 221.007 130.196 220.777 130.077C217.195 128.256 210.22 125.102 203.753 124.442C203.531 124.42 203.317 124.352 203.123 124.243C202.93 124.133 202.761 123.985 202.628 123.806C202.493 123.626 202.396 123.419 202.344 123.2C202.292 122.981 202.286 122.753 202.326 122.531C202.909 119.3 204.248 111.074 204.076 104.48C204.025 102.453 204.665 100.469 205.892 98.8539C207.118 97.2389 208.858 96.0893 210.824 95.5941C212.008 95.2818 213.211 95.0447 214.424 94.8844C215.82 94.7077 217.237 94.8601 218.562 95.3296C219.888 95.7991 221.085 96.5725 222.058 97.5879C223.031 98.6034 223.753 99.8325 224.165 101.177C224.578 102.521 224.67 103.944 224.434 105.33C223.28 112.163 222.117 121.706 223.128 128.368C223.174 128.666 223.137 128.972 223.021 129.251C222.904 129.53 222.713 129.771 222.467 129.947C222.193 130.149 221.862 130.258 221.521 130.259Z" fill="#EC4A42"/>
<path d="M204.408 112.88C204.185 112.88 203.964 112.834 203.759 112.745L199.093 110.725C198.695 110.552 198.383 110.229 198.223 109.826C198.064 109.423 198.071 108.974 198.242 108.576L201.849 100.243C202.067 99.7396 202.381 99.2836 202.775 98.9015C203.169 98.5194 203.635 98.2187 204.145 98.0165C204.655 97.8143 205.2 97.7146 205.749 97.7232C206.297 97.7317 206.839 97.8483 207.342 98.0663C207.846 98.2843 208.302 98.5993 208.684 98.9935C209.065 99.3877 209.366 99.8533 209.567 100.364C209.769 100.874 209.868 101.419 209.859 101.968C209.85 102.516 209.733 103.058 209.515 103.561L205.908 111.894C205.781 112.186 205.572 112.435 205.305 112.611C205.039 112.786 204.727 112.879 204.408 112.88Z" fill="#EC4A42"/>
<path d="M215.089 92.0498C220.015 92.0498 224.009 88.0561 224.009 83.1296C224.009 78.2032 220.015 74.2095 215.089 74.2095C210.162 74.2095 206.168 78.2032 206.168 83.1296C206.168 88.0561 210.162 92.0498 215.089 92.0498Z" fill="#FFB8B8"/>
<path d="M206.007 78.7473C210.233 81.3265 214.996 82.8961 219.927 83.3337L218.46 81.5757C219.528 81.9707 220.652 82.1939 221.79 82.2371C222.927 82.2194 224.118 81.7816 224.763 80.8455C225.051 80.3801 225.222 79.852 225.262 79.3062C225.301 78.7605 225.208 78.2133 224.99 77.7113C224.543 76.71 223.847 75.8398 222.969 75.1835C221.412 73.9516 219.574 73.1242 217.619 72.7749C215.665 72.4256 213.654 72.5652 211.767 73.1814C210.472 73.5684 209.312 74.3122 208.421 75.3276C207.575 76.3708 205.947 77.3003 206.38 78.5715L206.007 78.7473Z" fill="#2F2E41"/>
<path d="M216.588 71.5482C213.775 68.6952 210.37 66.4936 206.614 65.0984C204.203 64.2052 201.579 63.6533 199.058 64.1605C196.537 64.6678 194.153 66.4116 193.45 68.8848C192.875 70.9071 193.469 73.0845 194.361 74.9883C195.254 76.892 196.445 78.6573 197.167 80.6321C197.903 82.647 198.125 84.814 197.811 86.9362C197.497 89.0585 196.659 91.0688 195.371 92.7847C194.084 94.5006 192.388 95.8678 190.438 96.7621C188.488 97.6565 186.346 98.0496 184.205 97.9059C186.682 98.238 188.965 99.4019 191.385 100.021C193.806 100.641 196.664 100.599 198.463 98.8646C200.366 97.0296 200.404 94.0462 200.312 91.4039L199.902 79.6204C199.832 77.6173 199.772 75.55 200.495 73.6804C201.217 71.8107 202.934 70.1736 204.938 70.1906C206.457 70.2035 207.802 71.1237 209.02 72.0312C210.238 72.9387 211.527 73.9069 213.041 74.0419C214.554 74.1769 216.281 73.0572 216.168 71.5423" fill="#2F2E41"/>
<path d="M175.125 102.086L195.664 102.571L198.64 124.528L179.672 124.954L175.125 102.086Z" fill="white"/>
<path d="M196.966 107.929C197.086 108.09 197.193 108.261 197.287 108.438L215.199 110.326L217.778 106.79L223.622 109.984L218.557 118.563L196.589 112.962C196.035 113.502 195.329 113.861 194.566 113.991C193.803 114.12 193.019 114.014 192.317 113.687C191.615 113.36 191.03 112.827 190.639 112.159C190.248 111.491 190.069 110.72 190.127 109.948C190.185 109.176 190.476 108.44 190.962 107.838C191.448 107.236 192.106 106.796 192.849 106.577C193.591 106.357 194.383 106.37 195.118 106.611C195.853 106.853 196.498 107.313 196.966 107.929V107.929Z" fill="#FFB8B8"/>
<path d="M221.477 113.243C221.254 113.243 221.033 113.197 220.828 113.108L216.162 111.088C215.765 110.915 215.452 110.592 215.293 110.189C215.133 109.786 215.14 109.337 215.312 108.939L218.919 100.607C219.136 100.103 219.451 99.6469 219.845 99.2648C220.239 98.8827 220.704 98.5819 221.214 98.3798C221.724 98.1776 222.269 98.0779 222.818 98.0864C223.367 98.095 223.908 98.2116 224.412 98.4296C224.915 98.6475 225.371 98.9626 225.753 99.3568C226.135 99.751 226.435 100.217 226.637 100.727C226.839 101.237 226.938 101.782 226.929 102.331C226.92 102.88 226.803 103.421 226.584 103.925L222.977 112.257C222.85 112.55 222.641 112.799 222.374 112.974C222.108 113.149 221.796 113.243 221.477 113.243Z" fill="#EC4A42"/>
<path d="M179.255 113.125H34.7084C34.0823 113.125 33.4818 113.374 33.0391 113.817C32.5964 114.259 32.3477 114.86 32.3477 115.486C32.3477 116.112 32.5964 116.712 33.0391 117.155C33.4818 117.598 34.0823 117.847 34.7084 117.847H38.885V169.237C38.885 169.863 39.1337 170.464 39.5764 170.906C40.0191 171.349 40.6196 171.598 41.2457 171.598C41.8718 171.598 42.4722 171.349 42.9149 170.906C43.3576 170.464 43.6064 169.863 43.6064 169.237V122.383L70.072 170.351C70.3857 170.892 70.9012 171.287 71.5053 171.448C72.1094 171.609 72.7528 171.524 73.2943 171.211C73.8359 170.899 74.2312 170.384 74.3936 169.78C74.5561 169.176 74.4723 168.533 74.1608 167.991L46.495 117.847H172.9V117.877L145.251 167.991C144.938 168.533 144.853 169.177 145.015 169.782C145.177 170.387 145.573 170.902 146.115 171.215C146.657 171.528 147.301 171.613 147.906 171.451C148.511 171.289 149.027 170.894 149.34 170.351L172.9 127.649V169.237C172.9 169.863 173.148 170.464 173.591 170.906C174.034 171.349 174.634 171.598 175.26 171.598C175.887 171.598 176.487 171.349 176.93 170.906C177.372 170.464 177.621 169.863 177.621 169.237V119.091L178.308 117.847H179.255C179.882 117.847 180.482 117.598 180.925 117.155C181.367 116.712 181.616 116.112 181.616 115.486C181.616 114.86 181.367 114.259 180.925 113.817C180.482 113.374 179.882 113.125 179.255 113.125Z" fill="#3F3D56"/>
<path d="M268.568 172.13H0.431186C0.316714 172.13 0.207046 172.084 0.126219 172.003C0.0453916 171.922 0 171.812 0 171.698C0 171.583 0.0453916 171.473 0.126219 171.392C0.207046 171.311 0.316714 171.265 0.431186 171.265H268.568C268.682 171.265 268.792 171.311 268.873 171.392C268.954 171.473 269 171.583 269 171.698C269 171.812 268.954 171.922 268.873 172.003C268.792 172.084 268.682 172.13 268.568 172.13Z" fill="#3F3D56"/>
</svg>
