<svg width="180" height="188" viewBox="0 0 180 188" fill="none" xmlns="http://www.w3.org/2000/svg">
<path d="M153.462 58.2552C168.457 57.6842 180.337 45.0343 179.993 30.0415C179.823 22.8398 176.841 15.9903 171.685 10.9568C166.528 5.9234 159.606 3.10537 152.399 3.10506H151.939C147.821 0.969413 143.232 -0.0960697 138.594 0.00680161C133.956 0.109673 129.418 1.37759 125.399 3.69371C120.994 1.14559 115.966 -0.129135 110.878 0.0117327C96.1029 0.388466 84.1523 12.5293 84.0021 27.3013C83.9258 33.4183 85.8951 39.3858 89.5975 44.2572C87.1135 48.4537 85.7921 53.2353 85.7691 58.111C85.6837 72.9743 97.5813 85.3565 112.444 85.8421C116.04 85.966 119.624 85.385 122.996 84.1321C128.427 90.9545 134.638 99.4015 133.407 102.418C131.866 106.192 132.782 144.489 133.218 159.855C133.227 160.12 133.25 160.385 133.289 160.647C123.111 161.203 115.746 162.816 115.746 164.721C115.746 167.075 127.084 169 141.072 169C155.061 169 166.399 167.084 166.399 164.721C166.399 163.838 164.77 162.996 161.981 162.307C162.72 161.866 163.411 161.349 164.043 160.765C164.605 160.244 165.135 159.626 165.297 158.875C165.459 158.125 165.138 157.224 164.414 156.95C163.61 156.641 162.75 157.201 162.099 157.763C161.448 158.325 160.7 158.967 159.846 158.849C160.285 158.451 160.613 157.947 160.799 157.384C160.985 156.822 161.022 156.221 160.907 155.641C160.869 155.401 160.767 155.177 160.612 154.99C160.164 154.513 159.354 154.717 158.821 155.093C157.119 156.288 156.645 158.599 156.636 160.685C156.466 159.935 156.61 159.155 156.604 158.387C156.598 157.619 156.389 156.765 155.741 156.35C155.334 156.139 154.88 156.037 154.422 156.056C153.659 156.029 152.808 156.106 152.284 156.665C151.636 157.357 151.804 158.522 152.369 159.287C152.935 160.053 153.792 160.529 154.581 161.053L154.701 161.133C152.136 160.856 149.259 160.653 146.161 160.544C146.195 160.299 146.213 160.053 146.217 159.805C146.488 144.921 147.23 108.908 148.205 104.629C149.436 99.2191 148.205 66.2814 148.205 66.2814C148.205 66.2814 148.075 62.623 148.252 57.9874C149.977 58.2376 151.721 58.3273 153.462 58.2552ZM130.447 79.9527C131.209 79.3536 131.939 78.714 132.632 78.0367L133.421 83.2491L130.447 79.9527Z" fill="white"/>
<path d="M111.632 110.388C114.185 110.278 116.594 109.139 118.344 107.214C120.095 105.289 121.047 102.731 120.998 100.089C120.949 97.4462 119.902 94.9285 118.082 93.0745C116.261 91.2205 113.811 90.1777 111.257 90.1691H111.095C109.638 89.3887 108.016 88.9994 106.376 89.037C104.736 89.0745 103.132 89.5377 101.71 90.3839C99.7552 89.2008 97.4641 88.7567 95.228 89.1274C92.9919 89.4982 90.9495 90.6609 89.45 92.4168C87.9504 94.1727 87.0866 96.413 87.0062 98.7547C86.9257 101.097 87.6336 103.395 89.009 105.256C87.983 107.056 87.5211 109.141 87.6866 111.224C87.8521 113.307 88.637 115.286 89.9334 116.888C91.2298 118.491 92.974 119.639 94.9264 120.174C96.8788 120.71 98.9436 120.606 100.837 119.878C102.762 122.38 104.961 125.469 104.534 126.582C103.988 127.968 104.312 142.01 104.466 147.642C104.468 147.741 104.477 147.839 104.491 147.937C100.885 148.14 98.2774 148.731 98.2774 149.429C98.2774 150.311 102.293 151 107.247 151C112.201 151 116.217 150.297 116.217 149.429C116.217 149.102 115.648 148.796 114.658 148.546C114.919 148.382 115.164 148.193 115.389 147.981C115.602 147.802 115.757 147.559 115.833 147.286C115.868 147.15 115.856 147.005 115.8 146.876C115.743 146.747 115.646 146.643 115.523 146.58C115.239 146.468 114.934 146.671 114.704 146.874C114.474 147.077 114.209 147.319 113.905 147.275C114.061 147.129 114.178 146.944 114.244 146.738C114.31 146.531 114.322 146.311 114.28 146.098C114.267 146.01 114.232 145.928 114.178 145.859C114.019 145.686 113.731 145.759 113.544 145.897C112.941 146.336 112.773 147.183 112.77 147.957C112.739 147.677 112.739 147.393 112.77 147.113C112.78 146.972 112.758 146.83 112.704 146.7C112.651 146.57 112.568 146.455 112.463 146.365C112.319 146.287 112.159 146.248 111.997 146.253C111.862 146.233 111.725 146.242 111.595 146.281C111.465 146.32 111.344 146.386 111.24 146.477C111.14 146.618 111.088 146.789 111.094 146.963C111.099 147.138 111.16 147.305 111.268 147.439C111.493 147.7 111.758 147.919 112.053 148.087L112.096 148.116C111.186 148.016 110.168 147.94 109.076 147.901C109.076 147.813 109.093 147.722 109.096 147.631C109.19 142.175 109.454 128.968 109.798 127.4C110.236 125.416 109.798 113.34 109.798 113.34C109.798 113.34 109.753 111.998 109.815 110.297C110.417 110.386 111.025 110.417 111.632 110.388ZM103.482 118.348C103.751 118.128 104.01 117.893 104.255 117.645L104.54 119.555L103.482 118.348Z" fill="white"/>
<path d="M47.8244 187.998C74.237 187.998 95.6487 185.537 95.6487 182.501C95.6487 179.465 74.237 177.004 47.8244 177.004C21.4117 177.004 0 179.465 0 182.501C0 185.537 21.4117 187.998 47.8244 187.998Z" fill="white"/>
<path d="M31.0581 167.061C30.7841 167.036 30.5195 166.95 30.2841 166.811C30.0486 166.671 29.8485 166.482 29.6986 166.256C28.339 164.243 24.7314 158.501 27.2652 157.708C27.6674 157.581 28.0775 157.478 28.4929 157.401C30.7509 157.011 33.075 157.237 35.2105 158.053C37.3461 158.87 39.2107 160.246 40.6001 162.031C40.9704 162.498 41.3021 162.993 41.5922 163.512C41.702 163.713 41.7645 163.936 41.7753 164.164C41.7861 164.392 41.7449 164.619 41.6547 164.83C41.5645 165.04 41.4276 165.228 41.2539 165.38C41.0801 165.532 40.8739 165.644 40.6503 165.709C38.4147 166.354 34.2733 167.34 31.0581 167.061Z" fill="#EC4A42"/>
<path d="M28.5835 166.223L42.2298 163.812H62.6652L59.745 168.21H31.3642L28.5835 166.223Z" fill="#2C395D"/>
<path d="M38.8892 24.5466C40.4274 23.8036 42.4327 24.5466 44.2636 24.7212C46.6363 24.9403 48.9872 24.1292 51.3755 24.1914C53.5493 24.2534 55.6244 25.0681 57.2107 26.4824C58.5338 27.7092 59.304 29.3764 59.3592 31.1325C59.4183 32.177 59.1576 33.2155 58.6088 34.1221C57.4691 35.9247 54.8722 37.1472 52.1788 37.3514C49.5263 37.5328 46.8853 36.8739 44.6684 35.4777C42.8998 34.3352 41.6667 32.8138 40.169 31.4936C39.1041 30.5435 36.3017 29.3447 36.2799 28.1104C36.2643 27.255 37.9177 25.0084 38.8892 24.5466Z" fill="#293556"/>
<path opacity="0.1" d="M38.8892 24.5466C40.4274 23.8036 42.4327 24.5466 44.2636 24.7212C46.6363 24.9403 48.9872 24.1292 51.3755 24.1914C53.5493 24.2534 55.6244 25.0681 57.2107 26.4824C58.5338 27.7092 59.304 29.3764 59.3592 31.1325C59.4183 32.177 59.1576 33.2155 58.6088 34.1221C57.4691 35.9247 54.8722 37.1472 52.1788 37.3514C49.5263 37.5328 46.8853 36.8739 44.6684 35.4777C42.8998 34.3352 41.6667 32.8138 40.169 31.4936C39.1041 30.5435 36.3017 29.3447 36.2799 28.1104C36.2643 27.255 37.9177 25.0084 38.8892 24.5466Z" fill="black"/>
<path d="M44.1993 155.175L43.9761 159.415C46.1464 159.27 48.3235 159.232 50.4983 159.3C50.6755 158.664 50.4983 157.994 50.3538 157.346C50.0884 156.098 49.9991 154.824 50.088 153.555C50.1142 153.207 46.0506 152.849 45.6403 152.831C45.1413 152.813 44.6227 152.749 44.3831 153.231C44.1172 153.758 44.2288 154.6 44.1993 155.175Z" fill="#293556"/>
<path d="M39.762 156.274L39.5786 160.514C41.3872 160.37 43.2015 160.331 45.0137 160.399C45.1615 159.763 45.0137 159.094 44.8933 158.446C44.6743 157.197 44.6007 155.923 44.6744 154.654C44.6935 154.303 41.3082 153.949 40.9661 153.931C40.5474 153.912 40.1177 153.849 39.918 154.33C39.6936 154.857 39.7866 155.699 39.762 156.274Z" fill="#293556"/>
<path d="M48.6115 155.077C48.3109 155.186 48.036 155.355 47.8036 155.573L46.2134 156.886C45.6791 157.329 44.9762 157.797 44.3369 157.514C44.0682 157.349 43.8186 157.155 43.5927 156.936C43.4776 156.829 43.3304 156.762 43.1733 156.744C43.0162 156.727 42.8576 156.76 42.7212 156.839C42.5786 156.987 42.4921 157.179 42.4763 157.383C41.9574 160.171 41.7261 163.005 41.7861 165.839C42.2812 166.032 42.8039 166.147 43.335 166.179C43.3942 166.187 43.4547 166.176 43.5068 166.147C43.599 166.072 43.5481 165.927 43.5354 165.811C43.4909 165.406 44.0634 165.167 44.4355 165.343C44.7827 165.564 45.0414 165.897 45.167 166.285C45.2207 166.442 45.315 166.582 45.4405 166.691C45.555 166.763 45.6843 166.809 45.819 166.826C46.5418 166.95 47.2736 167.016 48.0072 167.024C51.3997 167.139 54.7923 167.139 58.1848 167.024C58.5381 167.03 58.8901 166.981 59.228 166.879C59.5465 166.751 59.8259 166.544 60.0389 166.278C60.2519 166.011 60.3911 165.694 60.443 165.359C60.5343 164.68 60.3615 163.991 59.9595 163.433C59.6706 163.016 59.2887 162.67 58.8432 162.421C58.506 162.245 58.1537 162.098 57.7904 161.982L56.2002 161.416C55.0393 161.008 53.8371 160.571 52.972 159.707C52.4924 159.184 52.084 158.601 51.757 157.973C51.1559 156.965 50.2176 154.612 48.6115 155.077Z" fill="#293556"/>
<path opacity="0.1" d="M48.6115 155.077C48.3109 155.186 48.036 155.355 47.8036 155.573L46.2134 156.886C45.6791 157.329 44.9762 157.797 44.3369 157.514C44.0682 157.349 43.8186 157.155 43.5927 156.936C43.4776 156.829 43.3304 156.762 43.1733 156.744C43.0162 156.727 42.8576 156.76 42.7212 156.839C42.5786 156.987 42.4921 157.179 42.4763 157.383C41.9574 160.171 41.7261 163.005 41.7861 165.839C42.2812 166.032 42.8039 166.147 43.335 166.179C43.3942 166.187 43.4547 166.176 43.5068 166.147C43.599 166.072 43.5481 165.927 43.5354 165.811C43.4909 165.406 44.0634 165.167 44.4355 165.343C44.7827 165.564 45.0414 165.897 45.167 166.285C45.2207 166.442 45.315 166.582 45.4405 166.691C45.555 166.763 45.6843 166.809 45.819 166.826C46.5418 166.95 47.2736 167.016 48.0072 167.024C51.3997 167.139 54.7923 167.139 58.1848 167.024C58.5381 167.03 58.8901 166.981 59.228 166.879C59.5465 166.751 59.8259 166.544 60.0389 166.278C60.2519 166.011 60.3911 165.694 60.443 165.359C60.5343 164.68 60.3615 163.991 59.9595 163.433C59.6706 163.016 59.2887 162.67 58.8432 162.421C58.506 162.245 58.1537 162.098 57.7904 161.982L56.2002 161.416C55.0393 161.008 53.8371 160.571 52.972 159.707C52.4924 159.184 52.084 158.601 51.757 157.973C51.1559 156.965 50.2176 154.612 48.6115 155.077Z" fill="black"/>
<path d="M63.7655 86.4463C63.7655 87.3183 63.7469 88.1913 63.7096 89.0653C63.553 94.414 63.0661 99.7484 62.2517 105.039C62.0656 106.228 61.864 107.413 61.5693 108.578C61.1444 110.243 60.5178 111.866 60.3286 113.577C60.0711 116.022 60.7349 118.543 60.1735 120.939C59.885 122.161 59.2833 123.301 58.9327 124.512C58.7258 125.234 58.5622 125.968 58.4426 126.709C58.1304 128.42 57.8202 130.128 57.5121 131.834C57.478 132.008 57.4469 132.182 57.4159 132.356C57.0267 134.369 56.3412 136.315 55.3811 138.132C54.8455 139.267 54.4298 140.452 54.1404 141.671C53.5882 143.694 53.0361 145.719 52.484 147.746C51.7364 150.481 50.9858 153.339 51.5534 156.116C50.4202 156.047 49.2952 155.881 48.191 155.621C46.7807 155.285 45.4142 154.791 44.1182 154.148C43.8267 149.433 44.0407 144.705 44.2516 139.984C44.3881 136.992 44.5246 133.994 45.0364 131.042C45.5916 127.824 46.3516 124.753 47.0154 121.553C48.0111 116.765 49.013 111.936 48.9168 107.05C48.799 100.721 48.9665 94.2757 51.7674 88.5825C52.0408 87.9053 52.4875 87.3094 53.064 86.8528C53.6307 86.5155 54.2664 86.3067 54.9251 86.2416C57.1553 85.8691 59.4167 85.7095 61.6779 85.7648C62.4185 85.8269 63.1338 86.0604 63.7655 86.4463Z" fill="#2C395D"/>
<path opacity="0.1" d="M63.7655 86.4343C63.7655 87.2977 57.0551 86.6373 57.0241 87.5007C48.7819 86.5676 52.6426 88.4398 52.2797 88.6913C51.4983 89.2275 55.2504 88.149 54.469 88.6913C53.7899 89.1609 52.7356 90.9847 52.0348 91.4179C50.4006 92.4631 55.8489 95.6804 54.6364 97.174C53.5356 98.5252 53.2782 100.367 53.424 102.082C53.5697 103.797 54.0814 105.466 54.3542 107.171C54.8613 110.404 54.5078 113.709 53.3278 116.769C52.6208 118.602 51.6286 120.311 50.7262 122.059C49.7401 123.982 47.9168 125.894 48.1338 128.039C48.6331 132.868 47.771 137.733 47.5385 142.581C47.4485 144.435 47.4516 146.325 47.9788 148.11C48.1772 148.791 48.4532 149.452 48.599 150.145C48.968 151.754 48.6765 153.42 48.1897 155.017C46.7798 154.684 45.4137 154.194 44.1182 153.557C43.8267 148.882 44.0407 144.195 44.2515 139.515C44.388 136.549 44.5244 133.577 45.036 130.65C45.5911 127.46 46.3508 124.416 47.0144 121.244C48.0098 116.496 49.0114 111.71 48.9153 106.865C48.7974 100.591 48.9649 94.202 51.765 88.558C52.0383 87.8867 52.4848 87.2959 53.0612 86.8433C53.6276 86.5089 54.2632 86.3019 54.9217 86.2374C57.1511 85.8681 59.4118 85.7099 61.6724 85.7648C62.4143 85.8235 63.1316 86.053 63.7655 86.4343Z" fill="black"/>
<path d="M63.4394 81.4819C63.4394 83.0392 64.2977 86.4849 63.1221 87.4843C62.3394 88.1557 61.3723 88.5634 60.5322 89.1612C59.7707 89.7038 59.1209 90.3874 58.3624 90.9484C57.7006 91.4236 56.9632 91.7792 56.2832 92.2298C54.6876 93.2875 53.9895 95.2096 52.8049 96.7178C51.7351 98.0851 51.4842 99.949 51.6263 101.684C51.7683 103.419 52.2669 105.108 52.5329 106.834C53.025 110.105 52.6806 113.449 51.5326 116.546C50.8405 118.401 49.8765 120.13 48.9971 121.899C48.0361 123.845 46.2561 125.78 46.4707 127.95C46.9572 132.837 46.1141 137.76 45.8904 142.665C45.8028 144.541 45.8058 146.454 46.3196 148.259C46.513 148.949 46.7789 149.618 46.924 150.32C47.344 152.242 46.8726 154.25 46.2531 156.117C44.1195 155.736 41.9618 155.359 39.804 155.522C37.9092 155.666 36.0265 156.221 34.1407 155.991C33.9141 150.828 34.3795 145.66 34.8388 140.513C34.9295 139.461 35.0262 138.41 35.1199 137.355C35.4825 133.324 35.8421 129.29 36.0567 125.243C36.1111 124.222 35.7545 123.14 36.0386 122.156C36.6289 120.094 37.2192 118.041 37.8095 115.997C38.1263 114.975 38.3627 113.928 38.5166 112.867C38.7826 110.675 38.3414 108.465 37.9122 106.304C37.3078 103.345 36.7034 100.381 36.099 97.4137C35.8996 96.4297 35.6971 95.4426 35.4221 94.4708C35.2176 93.8285 35.0471 93.1756 34.9114 92.5149C34.8035 91.5849 34.747 90.6494 34.7421 89.713C34.6515 88.0974 34.2798 86.5156 34.1619 84.9031C34.0954 84.1283 34.1197 83.3483 34.2344 82.5794C34.3507 81.7455 34.6423 80.9467 35.0896 80.2373C39.5343 78.4394 44.1474 77.1041 48.8581 76.252C49.9529 76.024 51.0651 75.8927 52.1823 75.8596C53.4552 75.8914 54.7231 76.0339 55.972 76.2857C57.7187 76.5923 59.4987 76.8988 61.1094 77.6959C61.881 78.0642 62.5859 78.5616 63.1946 79.1674C64.0045 79.992 63.4968 78.0883 63.7567 79.2226C63.8293 79.615 63.4334 81.0895 63.4394 81.4819Z" fill="#2C395D"/>
<path d="M43.8124 156.175C43.5296 156.286 43.271 156.456 43.0521 156.674L41.5555 157.987C41.0497 158.43 40.3882 158.898 39.7895 158.615C39.5361 158.451 39.3012 158.257 39.0891 158.037C38.9811 157.93 38.8426 157.862 38.6946 157.845C38.5466 157.827 38.3972 157.86 38.269 157.94C38.1348 158.088 38.0534 158.28 38.0385 158.483C37.5471 161.27 37.3294 164.103 37.389 166.937C37.854 167.129 38.3449 167.244 38.8437 167.276C38.8994 167.285 38.9564 167.274 39.0053 167.245C39.0951 167.169 39.0472 167.025 39.0352 166.909C38.9933 166.504 39.5321 166.262 39.8793 166.441C40.2061 166.661 40.4495 166.995 40.5678 167.383C40.6197 167.539 40.7083 167.678 40.8252 167.788C40.933 167.86 41.0546 167.906 41.1814 167.923C41.8626 168.047 42.5523 168.113 43.2437 168.121C46.4344 168.237 49.6341 168.24 52.8219 168.121C53.1553 168.127 53.4875 168.078 53.8067 167.976C54.1062 167.848 54.3688 167.64 54.5687 167.373C54.7687 167.106 54.899 166.789 54.9471 166.453C55.034 165.775 54.8713 165.088 54.4921 164.532C54.2206 164.115 53.8623 163.77 53.4445 163.52C53.1258 163.344 52.7934 163.197 52.4507 163.081L50.9541 162.515C49.8646 162.104 48.7332 161.671 47.9161 160.804C47.4638 160.281 47.0785 159.698 46.7697 159.07C46.2039 158.066 45.321 155.713 43.8124 156.175Z" fill="#293556"/>
<path d="M59.3537 32.4615C59.2472 32.9522 59.0238 33.4098 58.7025 33.7955C58.0294 34.7304 57.2846 35.7184 56.194 36.0893C55.5867 36.2617 54.9525 36.3188 54.3243 36.2576C48.8951 35.985 43.7094 33.92 39.5786 30.3859C41.5324 29.0956 42.5732 26.7456 42.8288 24.4206C42.9756 22.6135 42.8707 20.7947 42.5171 19.0164C42.4268 18.4897 42.3333 17.9661 42.2398 17.4581C42.0653 16.5044 41.6166 15.7658 42.7041 15.5008C43.5486 15.292 44.6953 15.4385 45.5585 15.5008C47.4563 15.6068 49.3945 16.0182 50.937 17.1807C51.3596 17.4795 51.7134 17.8653 51.9747 18.312C52.6384 19.5587 52.0993 21.0266 51.9435 22.4572C51.9083 22.7811 51.9011 23.1075 51.9217 23.4327C52.0432 25.019 53.109 26.3872 54.3336 27.4001C55.5583 28.413 56.973 29.1922 58.1665 30.2363C58.8333 30.7973 59.4722 31.5858 59.3537 32.4615Z" fill="#FBBEBE"/>
<path opacity="0.1" d="M51.3311 22.8384C50.6805 23.0054 50.0144 23.0893 49.3462 23.0884C47.9755 23.0892 46.6232 22.7401 45.3961 22.0685C44.169 21.397 43.1006 20.4214 42.275 19.2187C42.1881 18.6626 42.0983 18.1098 42.0085 17.5734C41.8409 16.5665 41.4098 15.7866 42.4546 15.5069C43.2659 15.2864 44.3676 15.4411 45.1969 15.5069C47.0201 15.6188 48.8822 16.0531 50.3641 17.2805C50.7701 17.596 51.11 18.0033 51.361 18.475C51.9987 19.7748 51.4808 21.3247 51.3311 22.8384Z" fill="black"/>
<path d="M49.473 21.9873C54.3305 21.9873 58.2683 18.0495 58.2683 13.192C58.2683 8.33451 54.3305 4.39673 49.473 4.39673C44.6155 4.39673 40.6777 8.33451 40.6777 13.192C40.6777 18.0495 44.6155 21.9873 49.473 21.9873Z" fill="#FBBEBE"/>
<path opacity="0.1" d="M64.865 79.9343C64.8087 80.0546 64.3678 82.104 64.2991 82.2214C61.216 81.6195 59.2962 81.5743 56.1693 81.6195C55.3759 81.6118 54.5835 81.6753 53.8024 81.8091C53.1457 81.9355 52.5047 82.1431 51.8418 82.2424C48.271 82.7721 44.8909 80.0847 41.2857 80.3495C40.0819 80.4368 38.9312 80.8521 37.8024 81.2523C36.5517 81.7098 35.301 82.0588 34.0815 82.4561C34.2018 81.6375 34.5036 80.8534 34.9664 80.157C39.5651 78.3921 44.3382 77.0813 49.2122 76.2448C50.345 76.021 51.4958 75.8921 52.6517 75.8596C53.9687 75.8908 55.2806 76.0307 56.5727 76.2779C58.38 76.5788 60.2217 76.8798 61.8883 77.6622C62.6866 78.0237 63.416 78.512 64.0458 79.1067C64.865 79.9343 64.6118 78.8208 64.865 79.9343Z" fill="black"/>
<path d="M46.5799 31.6379C46.3899 30.7214 45.7614 29.9913 45.1422 29.3009C43.9731 27.9975 42.7653 26.7276 41.5186 25.4914C41.1158 25.0473 40.6387 24.6762 40.1085 24.3947C39.8415 24.2563 39.5445 24.1854 39.2436 24.1881C38.9427 24.1907 38.647 24.2669 38.3825 24.41C37.9104 24.7154 37.6713 25.2531 37.2942 25.6625C36.4788 26.5515 35.0594 26.7623 34.3727 27.7551C34.221 28.0333 34.0456 28.298 33.8485 28.5463C33.5536 28.7969 33.2006 28.9701 32.8215 29.0504L28.4929 30.3426C27.984 30.4923 27.42 30.6878 27.1778 31.1583C27.0733 31.4086 27.0082 31.6734 26.9846 31.9434C26.6413 33.8955 24.9154 35.2519 23.3979 36.5258C22.8706 36.9688 22.3372 37.4576 22.1134 38.1052C21.8896 38.7529 22.0061 39.4402 22.1441 40.1001C22.4905 41.7773 22.9963 43.4605 23.9834 44.8688C24.6333 45.822 25.4856 46.6407 26.0221 47.6611C26.4759 48.6349 26.7619 49.678 26.8682 50.7465C27.1747 52.7536 27.3341 54.776 27.5058 56.7984C27.656 58.5763 27.4414 60.5742 27.9595 62.2972C28.591 64.3899 30.8442 65.5813 31.8436 67.5273C32.2176 68.3454 32.4765 69.2109 32.6131 70.0995L33.5726 74.9447C33.7467 75.679 33.8422 76.4296 33.8577 77.1839C33.8332 78.9649 32.9166 80.7001 33.2047 82.4567C34.8264 81.8457 36.3899 81.4272 38.0085 80.8193C39.1183 80.4008 40.2464 79.9761 41.4297 79.8875C44.9613 79.6248 48.2752 82.3498 51.7761 81.8121C52.426 81.7144 53.0544 81.5066 53.6982 81.3753C54.4641 81.2388 55.2409 81.1724 56.0189 81.1767C59.1051 81.1301 62.1877 81.4076 65.2156 82.0046C65.8288 80.9812 65.9299 79.7256 65.7797 78.5434C65.6295 77.3611 65.2463 76.2247 64.9459 75.0699C64.1532 72.0404 63.9226 68.892 64.2653 65.7799C64.3817 64.9974 64.4523 64.209 64.4768 63.4184C64.4768 60.4673 62.6804 57.7026 62.8459 54.7546C63.0084 51.8555 66.3315 50.2333 67.7049 47.6672C68.0208 47.1555 68.1795 46.563 68.1617 45.9625C68.0942 45.3515 67.708 44.8016 67.4597 44.2273C66.8465 42.819 67.0734 41.1968 66.7239 39.706C66.5982 39.1836 66.4174 38.6796 66.2886 38.1541C65.982 36.7061 66.261 35.1664 65.8901 33.7306C65.6019 32.6186 64.9336 31.644 64.2224 30.7428C63.0207 29.2154 61.6166 27.7887 59.8631 26.9456C58.1096 26.1024 55.9514 25.9221 54.2378 26.8447C53.9712 26.9771 53.7353 27.1634 53.5449 27.3916C53.3657 27.6639 53.2369 27.966 53.1648 28.2836C52.5539 30.3215 51.7094 32.2825 50.6479 34.1277C50.2509 34.1876 49.8454 34.1593 49.4606 34.0447C49.0758 33.9301 48.7213 33.732 48.4223 33.4648C47.8031 32.9393 46.7424 32.42 46.5799 31.6379Z" fill="#EC4A42"/>
<path d="M44.8173 16.048C44.9877 15.6411 45.0637 15.2015 45.0397 14.7616C45.0154 14.3208 45.1369 13.8842 45.3856 13.5181C45.7439 13.0862 46.3863 12.9698 46.7292 12.5318C47.1214 12.0326 46.9886 11.3251 47.1059 10.6941C47.21 10.1935 47.4789 9.7414 47.8702 9.40877C48.2615 9.07614 48.7532 8.88183 49.2679 8.85639C50.0339 8.83495 50.7535 9.19637 51.5071 9.34339C52.4862 9.53635 53.4961 9.36177 54.4783 9.19025C55.2103 9.06161 56.0226 8.89927 56.4797 8.32958C56.7577 7.94438 56.9397 7.49935 57.0109 7.03093C57.1746 6.2989 57.2981 5.48418 56.9182 4.83791C56.5384 4.19165 55.7353 3.87617 55.3122 3.24829C54.9447 2.70003 54.9138 1.9772 54.5401 1.43201C53.9594 0.580533 52.7487 0.430451 51.7202 0.559092C50.6917 0.687732 49.6478 1.0124 48.6317 0.794933C47.5136 0.55603 46.4079 -0.316885 45.3547 0.121104C44.5795 0.445768 44.2552 1.33093 43.7796 2.02008C43.3682 2.61457 42.8071 3.09188 42.1519 3.4045C41.1451 3.88537 39.9652 3.95275 38.9985 4.51019C38.5618 4.76758 38.1863 5.11532 37.8974 5.52972C37.6085 5.94411 37.4131 6.41541 37.3245 6.91147C37.2795 7.09241 37.2859 7.28219 37.3431 7.45972C37.4126 7.59535 37.4943 7.72451 37.5871 7.84565C37.9886 8.4766 37.7291 9.31889 37.34 9.95596C36.9508 10.593 36.432 11.1811 36.3084 11.9315C36.1849 12.6819 36.4783 13.4139 36.8582 14.0602C37.2851 14.676 37.666 15.3219 37.9978 15.9929C38.3283 16.7923 38.3901 17.6774 38.7206 18.4738C38.9848 19.0891 39.3997 19.6294 39.9277 20.0455C40.4557 20.4616 41.0801 20.7404 41.7442 20.8567C41.8683 20.8901 41.9979 20.8975 42.125 20.8785C42.2521 20.8596 42.3738 20.8146 42.4824 20.7464C42.628 20.6066 42.7243 20.424 42.7573 20.2257C42.8466 19.8875 42.9055 19.5421 42.9333 19.1936C42.9858 18.5075 42.9333 17.7142 43.2422 17.0802C43.6252 16.2869 44.4035 16.8229 44.8173 16.048Z" fill="#2C395D"/>
<path opacity="0.1" d="M56.915 5.19287C56.5301 4.55706 55.7261 4.25115 55.3009 3.63634C54.9315 3.09951 54.9005 2.39173 54.5249 1.85789C54.2445 1.47867 53.8325 1.20939 53.3639 1.09912C53.7395 1.63296 53.7675 2.34074 54.1399 2.87757C54.5621 3.49239 55.3661 3.79529 55.751 4.4341C56.1359 5.0729 56.0086 5.86466 55.8441 6.58144C55.7731 7.03973 55.5912 7.47538 55.3133 7.85305C54.8353 8.40788 54.0344 8.56983 53.2987 8.69579C52.3116 8.86374 51.2966 9.03169 50.3126 8.84575C49.5583 8.69879 48.835 8.3479 48.0621 8.36889C47.5499 8.39586 47.0611 8.58534 46.6716 8.90796C46.2821 9.23058 46.0137 9.66833 45.9079 10.1533C45.7899 10.7532 45.9079 11.4549 45.5292 11.9528C45.1815 12.3817 44.5359 12.4956 44.1789 12.9155C43.9284 13.275 43.8053 13.7033 43.8281 14.1361C43.8535 14.5657 43.7782 14.9952 43.6077 15.3927C43.1887 16.1545 42.4065 15.6267 42.0122 16.4034C41.7018 17.0242 41.7546 17.801 41.7018 18.4728C41.6739 18.8151 41.6147 19.1543 41.5249 19.4865C41.4916 19.68 41.396 19.8584 41.2517 19.9963C41.1426 20.0631 41.0203 20.1071 40.8926 20.1257C40.7648 20.1443 40.6345 20.137 40.5098 20.1043C40.1888 20.05 39.876 19.9573 39.5786 19.8284C40.1559 20.3645 40.8853 20.7226 41.6739 20.8571C41.7985 20.8898 41.9289 20.8971 42.0566 20.8785C42.1843 20.8599 42.3066 20.8158 42.4158 20.7491C42.562 20.6122 42.6589 20.4334 42.692 20.2393C42.7818 19.9081 42.841 19.5699 42.869 19.2286C42.9217 18.5568 42.869 17.78 43.1794 17.1592C43.5767 16.3824 44.3589 16.9073 44.7749 16.1485C44.9461 15.7501 45.0225 15.3196 44.9984 14.8889C44.974 14.4573 45.096 14.0298 45.346 13.6713C45.7061 13.2484 46.3518 13.1344 46.6963 12.7056C47.0905 12.2167 46.9571 11.5239 47.075 10.9061C47.1823 10.4188 47.4537 9.9796 47.8469 9.65725C48.2401 9.3349 48.7328 9.1476 49.2479 9.12466C50.0177 9.10067 50.741 9.45456 51.4984 9.59852C52.4824 9.78746 53.4974 9.61651 54.4845 9.44856C55.2202 9.3226 56.0365 9.16365 56.496 8.60582C56.7754 8.22865 56.9584 7.79288 57.0299 7.33421C57.1727 6.62343 57.2968 5.82567 56.915 5.19287Z" fill="black"/>
<path d="M37.3786 173.708C37.3786 176.744 35.408 179.205 32.9797 179.205C30.5513 179.205 28.5835 176.744 28.5835 173.708V173.666C28.603 170.657 30.5653 168.211 32.9797 168.211C34.473 168.211 35.7904 169.137 36.5831 170.564C37.1106 171.513 37.3858 172.601 37.3786 173.708Z" fill="#2C395D"/>
<path d="M75.8594 175.911C75.8594 181.978 72.9038 186.899 69.26 186.899C65.6162 186.899 62.6665 181.978 62.6665 175.911C62.6665 172.477 63.6076 169.42 65.0839 167.409C66.225 165.848 67.6719 164.911 69.26 164.911C69.4785 164.911 69.6968 164.927 69.9129 164.961C71.2216 165.177 72.4244 166.029 73.392 167.334C73.5284 167.513 73.656 167.7 73.7743 167.893C75.0566 169.91 75.8594 172.758 75.8594 175.911Z" fill="#2C395D"/>
<path d="M71.4617 163.219L65.4405 163.812L64.6668 157.474L64.6146 157.059L63.5215 148.127L63.4724 147.713L57.9425 102.528L57.8228 101.566L54.5251 74.5965L54.4453 73.9524L54.1014 71.1342L53.8711 69.2625H58.6917L58.9527 71.2007L58.9957 71.5092L59.1154 72.377L63.2513 102.815L63.3618 103.631L69.2602 147.026L70.5528 156.536L71.4617 163.219Z" fill="#2C395D"/>
<path opacity="0.1" d="M68.6667 164.911C68.8661 164.911 69.0652 164.927 69.2624 164.96L69.1121 165.074C68.632 165.475 68.2549 166.012 68.0192 166.631C67.7835 167.249 67.6977 167.927 67.7706 168.595L68.6238 177.734C68.6264 177.781 68.6264 177.828 68.6238 177.876C68.613 178.21 68.4948 178.528 68.2913 178.771C68.0878 179.014 67.8128 179.165 67.5175 179.197C67.2222 179.229 66.9267 179.139 66.686 178.944C66.4453 178.748 66.2758 178.461 66.209 178.136C65.8575 176.041 65.1921 171.762 64.8916 167.897C64.8755 167.691 64.8647 167.498 64.8647 167.314C65.8977 165.815 67.2178 164.911 68.6667 164.911Z" fill="black"/>
<path d="M68.8485 162.762C68.8485 162.762 64.463 162.459 64.8946 167.829C65.2053 171.7 65.8872 175.983 66.2447 178.08C66.3051 178.432 66.487 178.744 66.7522 178.95C67.0174 179.157 67.3451 179.242 67.6662 179.188C67.9859 179.135 68.2745 178.948 68.4717 178.666C68.669 178.384 68.7596 178.029 68.7248 177.675L67.8504 168.522C67.775 167.852 67.8625 167.173 68.1041 166.552C68.3457 165.932 68.7326 165.394 69.2252 164.993C70.2618 164.19 71.6448 164.142 72.7997 167.662L73.5915 167.901C73.5915 167.901 74.6034 162.126 68.8485 162.762Z" fill="#283354"/>
<path opacity="0.1" d="M63.7655 103.27C63.5297 103.318 63.2899 103.342 63.0496 103.344H61.3732C60.4278 103.341 59.5165 102.98 58.813 102.332C58.1094 101.683 57.6628 100.791 57.558 99.8257L54.9927 75.8407C54.9269 75.218 55.006 74.5881 55.2236 74.0029C55.4413 73.4177 55.7912 72.8941 56.2444 72.4751C56.6977 72.0561 57.2415 71.7538 57.8308 71.593C58.4202 71.4323 59.0382 71.4178 59.6341 71.5506L63.7655 103.27Z" fill="black"/>
<path opacity="0.1" d="M63.7655 103.249C63.4888 103.313 63.2057 103.344 62.9217 103.344H61.2036C60.6735 103.343 60.149 103.234 59.6622 103.023C59.1755 102.813 58.7368 102.505 58.3728 102.119L58.2535 101.142L54.9702 73.8337C55.3395 72.9747 56.0028 72.2761 56.8407 71.8634C57.6786 71.4508 58.636 71.3514 59.5406 71.583L63.6554 102.41L63.7655 103.249Z" fill="black"/>
<path d="M54.9945 75.8564C55.6241 81.6233 56.9533 93.8155 57.6103 99.8335C57.7153 100.798 58.1704 101.69 58.8884 102.338C59.6063 102.986 60.5366 103.344 61.5006 103.343H63.2069C64.0217 103.354 64.8188 103.104 65.4831 102.629C66.1475 102.154 66.6445 101.478 66.9025 100.7C67.008 100.37 67.0623 100.025 67.0637 99.6773C67.0637 97.8398 65.1049 81.1946 64.4966 76.0616C64.4386 75.553 64.2814 75.0609 64.034 74.6137C63.7865 74.1664 63.4538 73.7728 63.0548 73.4554C62.2548 72.8164 61.3866 72.2689 60.4664 71.823C57.732 70.5428 54.666 72.8367 54.9945 75.8564Z" fill="#BF3A34"/>
<path opacity="0.1" d="M36.2794 170.582L35.1462 170.527C34.1379 170.476 33.1378 170.752 32.2649 171.325L28.7204 173.629C28.6748 173.656 28.6265 173.687 28.5835 173.708C28.6023 170.676 30.49 168.211 32.8127 168.211C34.2466 168.211 35.5168 169.145 36.2794 170.582Z" fill="black"/>
<path opacity="0.1" d="M71.4615 157.744L65.0191 158.314L64.962 157.86L63.7656 148.066L70.0467 147.32L71.4615 157.744Z" fill="black"/>
<path d="M65.5239 157.559C66.4685 171.429 56.8048 171.173 56.8048 171.173L35.7876 170.267C34.6353 170.217 33.4928 170.499 32.4938 171.078L28.4455 173.423C28.0797 173.635 27.659 173.732 27.2379 173.7C26.8168 173.669 26.4148 173.511 26.084 173.248C25.654 172.904 25.374 172.406 25.3036 171.859C25.2331 171.312 25.3778 170.758 25.7068 170.316L27.4181 168.023C27.7723 167.549 28.2376 167.171 28.7727 166.921C29.3078 166.671 29.8961 166.559 30.485 166.593L52.4775 167.854C61.3714 168.014 64.3892 148.02 64.3892 148.02L70.1733 147.32L71.4614 157.014L65.5331 157.547L65.5239 157.559Z" fill="#283354"/>
<path opacity="0.1" d="M59.3681 70.3619L54.1202 70.3241L53.8711 69.2625H59.0858L59.3681 70.3619Z" fill="black"/>
<path d="M36.4805 67.0645L76.84 68.0075C77.1671 68.0185 77.4768 68.1476 77.7039 68.3675C77.9311 68.5873 78.0579 68.8808 78.0577 69.1862C78.0577 69.3421 78.0245 69.4964 77.96 69.6402C77.8955 69.7839 77.8011 69.9143 77.6821 70.0238C77.5631 70.1332 77.422 70.2194 77.267 70.2775C77.112 70.3356 76.9462 70.3643 76.7791 70.3621L36.4227 69.8366C36.0916 69.8321 35.7757 69.7063 35.5433 69.4863C35.3109 69.2662 35.1806 68.9697 35.1807 68.6608V68.2404C35.1806 68.0828 35.2144 67.9269 35.2802 67.7817C35.346 67.6366 35.4424 67.5053 35.5637 67.3956C35.6849 67.2859 35.8286 67.2001 35.9861 67.1432C36.1436 67.0864 36.3117 67.0596 36.4805 67.0645Z" fill="#2C395D"/>
<path d="M39.1329 63.6758C40.5831 63.9572 42.187 63.8823 43.4018 64.6934C44.4847 65.4147 45.0089 66.7166 45.0685 67.9856C45.1282 69.2545 44.7798 70.4846 44.4408 71.7027C44.334 72.0858 44.1269 72.5497 43.7063 72.5617C43.2856 72.5736 43.0785 72.1666 42.7426 71.9631C42.0207 71.5441 41.0005 72.1636 40.2723 71.7566C40.0658 71.6097 39.8745 71.4444 39.701 71.2628C39.4152 71.0245 39.0606 70.8741 38.6836 70.8314C38.3067 70.7887 37.925 70.8556 37.5886 71.0233C37.6821 70.5489 37.6629 70.0605 37.5325 69.594C37.4021 69.1275 37.1638 68.6948 36.835 68.3277C36.5062 67.9605 36.0954 67.6682 35.6327 67.4723C35.1699 67.2764 34.667 67.1818 34.1609 67.1954C33.5959 67.2134 32.9901 67.3541 32.4973 67.0937C31.7031 66.6807 31.7691 65.5434 32.1834 64.7832C32.7861 63.7147 33.2443 62.6672 34.6129 62.6672C36.1823 62.6732 37.6294 63.3855 39.1329 63.6758Z" fill="#FBBEBE"/>
<path d="M65.9827 64.993L65.9639 67.933C65.9639 69.0401 65.9639 70.2016 66.5335 71.1664C66.8293 71.6685 67.339 72.1222 67.9433 72.1101C68.1698 72.1101 68.3901 72.0375 68.6167 72.0466C69.2744 72.0708 69.8754 72.7362 70.4891 72.5154C70.6968 72.4398 70.8636 72.2704 71.0776 72.213C71.3922 72.1222 71.7541 72.2916 72.072 72.1978C72.3898 72.1041 72.5786 71.7532 72.7013 71.4447C73.3307 69.9686 73.9601 68.3414 73.5038 66.8109C73.2504 66.1216 72.8885 65.4739 72.4307 64.8902L70.3915 61.9895C70.3103 61.8516 70.1959 61.7344 70.058 61.6477C69.9156 61.5838 69.7583 61.5567 69.6017 61.5691C68.5884 61.5691 67.6411 62.0288 66.7348 62.4765C65.8285 62.9241 65.989 64.1491 65.9827 64.993Z" fill="#FBBEBE"/>
<path d="M68.6476 48.5374C68.7549 49.1704 68.9375 49.7886 69.1915 50.379C69.5323 51.0522 70.136 51.6186 70.2436 52.3659C70.3722 53.2556 69.7863 54.2817 70.3453 54.9845C70.5724 55.2811 70.943 55.4205 71.1821 55.7052C71.756 56.408 71.209 57.443 71.2927 58.3415C71.3674 59.163 71.9861 59.8451 72.1565 60.6547C72.3269 61.4643 72.04 62.4667 72.56 63.1487C72.031 62.3213 70.8713 62.1582 69.8969 62.3184C69.0971 62.4564 68.3336 62.7532 67.6521 63.1909C66.9706 63.6287 66.3851 64.1983 65.9307 64.8658C66.0763 63.6905 65.9495 62.4976 65.5601 61.3783C65.2104 60.3759 64.6484 59.4032 64.6963 58.3445C64.7262 57.7188 64.9712 57.1049 64.9115 56.4792C64.8188 55.5005 64.0148 54.7562 63.3214 54.0652C62.4785 53.2319 61.6566 52.2414 61.5729 51.0611C61.4952 49.9668 62.078 48.9318 62.7445 48.054C63.2526 47.3147 63.9295 46.705 64.7202 46.2746C65.2432 46.0196 66.8273 44.952 67.1741 45.0884C67.9183 45.3672 68.4832 47.8612 68.6476 48.5374Z" fill="#EC4A42"/>
<path d="M23.4399 39.5786C22.6261 39.8559 21.9435 40.4337 21.5263 41.1983C21.1176 41.9587 20.7816 42.7573 20.5228 43.5833C19.8883 45.3395 19.1016 47.0345 18.1722 48.6484C17.4671 49.8777 16.6654 51.058 16.2857 52.4133C15.9452 53.5997 15.9211 54.8905 15.3606 55.9847C15.0863 56.5195 14.6946 56.9928 14.4866 57.5583C14.2154 58.2898 14.2847 59.095 14.3601 59.8818L14.556 61.9595C14.5791 62.6423 14.7305 63.3142 15.002 63.9388C15.3787 64.6733 16.0657 65.1682 16.7287 65.663L19.7935 67.8789C20.3789 68.3441 21.025 68.7237 21.7132 69.0069C23.7081 69.723 25.8598 68.7364 27.9572 68.466C29.4037 68.2816 30.8683 68.4383 32.3179 68.5981C32.1973 67.3903 32.2365 66.1117 32.8091 65.0483C33.3817 63.9849 35.1265 62.5895 36.2807 62.8784C35.1355 61.8919 33.24 62.442 31.9713 61.6214C31.462 61.2925 31.0281 60.8561 30.5278 60.5088C28.9517 59.4208 26.6915 59.2364 25.676 57.5921C25.6105 57.5019 25.569 57.3961 25.5554 57.2848C25.5374 57.042 25.7393 56.8483 25.9141 56.6701C27.1858 55.4407 27.8216 53.6673 27.9783 51.8939C28.135 50.1205 27.8578 48.3441 27.5414 46.5922C27.2852 45.1877 26.9989 43.7646 26.3721 42.4861C25.7453 41.2075 24.7538 40.055 23.4399 39.5786Z" fill="#EC4A42"/>
<g opacity="0.1">
<path opacity="0.1" d="M54.149 43.157C54.8196 45.2419 52.9907 52.4996 52.9907 52.4996C52.9907 52.4996 47.2723 47.6713 46.5895 45.5863C46.2662 44.5855 46.3536 43.4972 46.8327 42.5609C47.3117 41.6245 48.1431 40.9168 49.1439 40.5935C50.1447 40.2701 51.233 40.3575 52.1694 40.8366C53.1057 41.3156 53.8134 42.147 54.1368 43.1478L54.149 43.157Z" fill="#EC4A42"/>
<path opacity="0.1" d="M53.9638 16.7108C52.8482 18.5946 46.2063 22.0451 46.2063 22.0451C46.2063 22.0451 46.0234 14.5618 47.1207 12.6781C47.6555 11.7726 48.528 11.1167 49.5464 10.8546C50.5648 10.5925 51.6456 10.7457 52.551 11.2805C53.4564 11.8153 54.1124 12.6878 54.3745 13.7062C54.6366 14.7246 54.4834 15.8054 53.9486 16.7108H53.9638Z" fill="#EC4A42"/>
<path opacity="0.1" d="M52.5733 110.859C51.8905 112.02 47.7999 114.142 47.7999 114.142C47.7999 114.142 47.6871 109.536 48.3729 108.378C48.702 107.821 49.2388 107.417 49.8653 107.256C50.4918 107.095 51.1567 107.189 51.7137 107.518C52.2707 107.847 52.6742 108.384 52.8354 109.01C52.9966 109.637 52.9023 110.302 52.5733 110.859Z" fill="#EC4A42"/>
<path opacity="0.1" d="M97.0943 99.3167C96.4085 100.475 92.3209 102.6 92.3209 102.6C92.3209 102.6 92.2081 97.9938 92.8939 96.8324C93.2234 96.2754 93.7606 95.8721 94.3874 95.7112C95.0142 95.5503 95.6792 95.6449 96.2362 95.9743C96.7932 96.3038 97.1966 96.841 97.3575 97.4678C97.5184 98.0946 97.4237 98.7597 97.0943 99.3167Z" fill="#EC4A42"/>
<path opacity="0.1" d="M49.2478 80.8169C48.1353 82.7037 41.4933 86.1512 41.4933 86.1512C41.4933 86.1512 41.3074 78.671 42.4078 76.7842C42.6725 76.3361 43.023 75.9445 43.4391 75.6318C43.8553 75.3191 44.3289 75.0915 44.833 74.9618C45.3371 74.8322 45.8618 74.8031 46.3772 74.8762C46.8925 74.9494 47.3884 75.1233 47.8365 75.3881C48.2847 75.6529 48.6762 76.0034 48.9889 76.4195C49.3016 76.8356 49.5293 77.3093 49.6589 77.8134C49.7885 78.3175 49.8176 78.8422 49.7445 79.3575C49.6713 79.8729 49.4974 80.3688 49.2326 80.8169H49.2478Z" fill="#EC4A42"/>
</g>
</svg>
