<svg width="247" height="207" viewBox="0 0 247 207" fill="none" xmlns="http://www.w3.org/2000/svg">
<g clip-path="url(#clip0)">
<path d="M65.6295 125.778C64.9661 125.778 64.2959 125.767 63.6381 125.746L63.653 125.269C64.5976 125.298 65.5616 125.306 66.5106 125.293L66.5171 125.771C66.2217 125.775 65.9258 125.777 65.6295 125.778ZM69.3945 125.667L69.3665 125.189C70.3124 125.134 71.2706 125.055 72.2142 124.956L72.2642 125.432C71.3133 125.531 70.3479 125.611 69.3945 125.667ZM60.7632 125.592C59.8093 125.519 58.8454 125.423 57.898 125.307L57.9564 124.833C58.8965 124.948 59.853 125.043 60.7997 125.115L60.7632 125.592ZM75.1199 125.066L75.0481 124.594C75.9881 124.451 76.9352 124.285 77.8625 124.101L77.9557 124.57C77.0211 124.756 76.067 124.923 75.1199 125.066ZM55.0492 124.891C54.1069 124.732 53.1556 124.548 52.222 124.345L52.3235 123.878C53.25 124.079 54.1938 124.261 55.1291 124.42L55.0492 124.891ZM80.7663 123.944L80.6514 123.48C81.574 123.252 82.5018 122.999 83.409 122.73L83.5449 123.189C82.6307 123.46 81.6959 123.714 80.7663 123.944ZM49.4232 123.67C48.4988 123.424 47.5686 123.154 46.6584 122.866L46.8025 122.41C47.7058 122.695 48.6289 122.964 49.546 123.207L49.4232 123.67ZM86.2857 122.307L86.1287 121.855C87.024 121.544 87.9245 121.207 88.8055 120.855L88.983 121.299C88.0954 121.654 87.188 121.993 86.2857 122.307H86.2857ZM43.9265 121.932C43.0287 121.602 42.1254 121.246 41.2417 120.874L41.4274 120.433C42.3042 120.802 43.2006 121.156 44.0916 121.483L43.9265 121.932ZM91.625 120.17L91.427 119.735C92.2868 119.344 93.1511 118.927 93.9957 118.495L94.2133 118.921C93.3622 119.356 92.4914 119.776 91.625 120.17H91.625ZM96.7418 117.555L96.505 117.139C97.3296 116.669 98.1527 116.174 98.9511 115.669L99.2066 116.073C98.4021 116.582 97.5729 117.081 96.7418 117.555H96.7418ZM101.602 114.48L101.328 114.088C102.104 113.546 102.879 112.978 103.631 112.4L103.922 112.779C103.165 113.361 102.384 113.934 101.602 114.48ZM28.7114 113.807C27.9395 113.246 27.1684 112.659 26.4194 112.061L26.7178 111.687C27.4611 112.28 28.2263 112.863 28.9923 113.419L28.7114 113.807ZM106.163 110.974L105.855 110.608C106.579 109.998 107.299 109.361 107.996 108.717L108.321 109.068C107.618 109.717 106.893 110.359 106.163 110.974H106.163ZM24.2099 110.212C23.491 109.583 22.7768 108.928 22.0872 108.266L22.4183 107.921C23.1028 108.578 23.8115 109.228 24.5249 109.853L24.2099 110.212ZM110.389 107.065L110.049 106.729C110.716 106.053 111.376 105.354 112.01 104.65L112.365 104.97C111.726 105.679 111.062 106.384 110.389 107.065ZM20.0558 106.225C19.3963 105.532 18.7449 104.815 18.1197 104.095L18.481 103.781C19.1013 104.496 19.7477 105.208 20.4024 105.896L20.0558 106.225ZM114.244 102.787L113.874 102.483C114.477 101.75 115.071 100.993 115.639 100.233L116.022 100.52C115.449 101.285 114.851 102.048 114.244 102.787L114.244 102.787ZM16.283 101.879C15.6907 101.131 15.1075 100.358 14.5495 99.5824L14.9376 99.3031C15.4914 100.073 16.0702 100.839 16.658 101.582L16.283 101.879ZM117.694 98.1734L117.299 97.9048C117.832 97.1195 118.354 96.3113 118.851 95.5022L119.259 95.7525C118.758 96.5677 118.231 97.3822 117.694 98.1733L117.694 98.1734ZM12.9231 97.2099C12.402 96.411 11.892 95.589 11.4071 94.7661L11.819 94.5232C12.3003 95.3398 12.8064 96.1558 13.3236 96.9483L12.9231 97.2099ZM120.711 93.2618L120.292 93.0306C120.751 92.1998 121.197 91.3465 121.618 90.4944L122.047 90.7064C121.623 91.5648 121.173 92.4246 120.711 93.2618ZM123.265 88.0917L122.827 87.8998C123.208 87.0295 123.574 86.1381 123.914 85.2508L124.361 85.4222C124.017 86.3165 123.649 87.2146 123.265 88.0917ZM7.55349 87.0598C7.18687 86.1799 6.83578 85.2797 6.51002 84.384L6.95954 84.2205C7.28273 85.1095 7.63113 86.0027 7.99484 86.8758L7.55349 87.0598ZM125.333 82.704L124.879 82.5537C125.177 81.6544 125.459 80.7353 125.716 79.8215L126.176 79.9509C125.917 80.8717 125.633 81.798 125.333 82.704ZM5.5888 81.656C5.30426 80.7446 5.03688 79.8136 4.79414 78.8884L5.25674 78.7669C5.49761 79.6851 5.763 80.6092 6.04532 81.5136L5.5888 81.656ZM126.891 77.1618L126.426 77.0534C126.64 76.1317 126.835 75.1904 127.007 74.2561L127.478 74.3425C127.304 75.2843 127.107 76.2326 126.891 77.1618V77.1618ZM4.12816 76.0871C3.92874 75.153 3.74823 74.2015 3.59178 73.2583L4.06348 73.1798C4.21888 74.116 4.39799 75.0603 4.5959 75.9872L4.12816 76.0871ZM127.934 71.4999L127.46 71.435C127.588 70.4984 127.697 69.5433 127.782 68.5961L128.259 68.6391C128.172 69.5937 128.063 70.5561 127.934 71.4999V71.4999ZM3.18569 70.408C3.0729 69.4613 2.98031 68.4971 2.91037 67.5423L3.38745 67.5072C3.45669 68.4551 3.54869 69.4118 3.66066 70.3515L3.18569 70.408ZM128.454 65.7669L127.976 65.7454C128.018 64.7978 128.04 63.8366 128.04 62.8888H128.518C128.518 63.8439 128.497 64.8122 128.454 65.7669ZM2.76548 64.6665C2.74913 64.0802 2.74085 63.4819 2.74072 62.8888C2.74072 62.5207 2.74388 62.1534 2.75018 61.7868L3.22842 61.7952C3.22212 62.159 3.21896 62.5236 3.21896 62.8888C3.21908 63.4775 3.22737 64.0713 3.24348 64.6535L2.76548 64.6665ZM3.34191 58.9401L2.8646 58.9102C2.92427 57.9547 3.0067 56.9896 3.10933 56.0416L3.58477 56.0931C3.48284 57.0339 3.40122 57.9917 3.3419 58.9401H3.34191ZM127.731 56.0225C127.636 55.0796 127.504 54.62 127.366 53.6812L127.839 53.6114C127.978 54.5573 128.098 55.2793 128.195 56.2292L127.731 56.0225ZM3.9571 53.2603L3.48447 53.1872C3.631 52.2411 3.80123 51.2876 3.9905 50.3527L4.45917 50.4475C4.27142 51.3752 4.10247 52.3216 3.9571 53.2603ZM126.883 50.8654C126.701 49.9325 126.495 48.9934 126.271 48.0743L126.736 47.9612C126.961 48.8873 127.169 49.8337 127.352 50.7736L126.883 50.8654ZM5.08989 47.6608L4.62601 47.5445C4.85824 46.6183 5.11546 45.6843 5.39054 44.7685L5.84846 44.906C5.57561 45.8149 5.32037 46.7417 5.08989 47.6608ZM125.531 45.3142C125.265 44.4036 124.973 43.4876 124.665 42.5914L125.117 42.4359C125.428 43.339 125.722 44.2622 125.99 45.1797L125.531 45.3142ZM6.73618 42.1817L6.28503 42.0231C6.60285 41.1191 6.946 40.2107 7.30491 39.3232L7.74836 39.5026C7.39213 40.3832 7.05155 41.2846 6.73618 42.1817ZM123.674 39.9113C123.325 39.0312 122.952 38.1479 122.564 37.2859L123 37.0895C123.391 37.9582 123.767 38.8483 124.119 39.735L123.674 39.9113ZM8.88267 36.8739L8.44809 36.6742C8.84752 35.8044 9.27264 34.9321 9.71165 34.0816L10.1367 34.3009C9.70091 35.1449 9.27906 36.0106 8.88267 36.8739ZM121.334 34.7133C120.906 33.869 120.452 33.023 119.986 32.199L120.402 31.9634C120.872 32.7938 121.329 33.6462 121.76 34.497L121.334 34.7133ZM11.5075 31.7889L11.093 31.5503C11.5701 30.7219 12.0732 29.8927 12.5885 29.0859L12.9915 29.3432C12.4802 30.1439 11.9808 30.9668 11.5075 31.7889ZM118.524 29.748C118.019 28.9435 117.49 28.1421 116.951 27.3659L117.344 27.0934C117.887 27.8755 118.42 28.683 118.929 29.4937L118.524 29.748ZM14.5857 26.9686L14.1948 26.693C14.7461 25.9111 15.3226 25.1317 15.9085 24.3765L16.2863 24.6696C15.705 25.4192 15.1327 26.1926 14.5857 26.9686ZM115.271 25.0575C114.695 24.3026 114.094 23.5522 113.487 22.8272L113.853 22.52C114.466 23.2506 115.07 24.0066 115.651 24.7672L115.271 25.0575ZM18.0896 22.4513L17.7256 22.1412C18.3443 21.4145 18.9891 20.6912 19.6422 19.9913L19.9917 20.3176C19.3437 21.0121 18.7038 21.7301 18.0896 22.4513ZM111.603 20.6799C110.96 19.9806 110.294 19.2875 109.622 18.6201L109.959 18.2808C110.636 18.9535 111.307 19.6517 111.955 20.3562L111.603 20.6799ZM21.9884 18.2734L21.654 17.9315C22.3379 17.2625 23.0456 16.601 23.7572 15.9656L24.0757 16.3224C23.3694 16.9529 22.6671 17.6093 21.9884 18.2734ZM107.55 16.6522C106.846 16.0136 106.119 15.3838 105.39 14.7803L105.695 14.4118C106.43 15.0199 107.162 15.6545 107.871 16.2979L107.55 16.6522ZM26.2492 14.4686L25.9472 14.0977C26.6869 13.4954 27.4513 12.9013 28.2194 12.332L28.5043 12.7161C27.7419 13.2812 26.9832 13.8707 26.2492 14.4686ZM30.836 11.0689L30.5691 10.6722C31.3607 10.1395 32.1757 9.61795 32.9915 9.12161L33.24 9.53026C32.4305 10.0227 31.6217 10.5405 30.836 11.0689ZM35.7111 8.10348L35.4816 7.68385C36.3191 7.22557 37.1778 6.78095 38.0339 6.36214L38.2441 6.79181C37.3946 7.20736 36.5423 7.64858 35.7111 8.10348ZM93.4278 6.99544C92.5768 6.57148 91.7051 6.1619 90.8369 5.77812L91.0302 5.34074C91.9052 5.72744 92.7837 6.14019 93.6412 6.5674L93.4278 6.99544ZM40.8336 5.59796L40.6435 5.15917C41.5187 4.77982 42.414 4.41601 43.3044 4.07776L43.4742 4.52494C42.5905 4.86051 41.7021 5.22153 40.8336 5.59796ZM88.1919 4.68105C87.3064 4.33767 86.4001 4.01004 85.498 3.7074L85.6503 3.25391C86.5591 3.559 87.4724 3.88908 88.3647 4.23527L88.1919 4.68105ZM46.168 3.57232L46.019 3.1179C46.9279 2.81993 47.8552 2.53936 48.775 2.28424L48.9028 2.74497C47.99 2.99822 47.0698 3.27657 46.168 3.57232ZM82.7687 2.86126C81.8566 2.60124 80.9262 2.35909 80.0036 2.14157L80.1134 1.67617C81.0432 1.89532 81.9806 2.13935 82.8999 2.40124L82.7687 2.86126ZM51.673 2.04454L51.5666 1.57832C52.4983 1.36547 53.4474 1.17154 54.3874 1.002L54.4724 1.47254C53.5394 1.64091 52.5977 1.83333 51.673 2.04454ZM77.2082 1.5503C76.2769 1.37552 75.3284 1.21999 74.3887 1.08806L74.455 0.614486C75.4019 0.747473 76.3579 0.904162 77.2965 1.08023L77.2082 1.5503ZM57.2953 1.02992L57.232 0.555877C58.1787 0.429545 59.1415 0.323294 60.0935 0.240398L60.1351 0.71677C59.1903 0.799197 58.235 0.904513 57.2953 1.02992ZM71.5508 0.755533C70.6088 0.666798 69.65 0.598379 68.7007 0.552491L68.7241 0.0747276C69.6803 0.121081 70.6464 0.18997 71.5956 0.279415L71.5508 0.755533ZM62.9868 0.533342L62.9667 0.0555787C63.8457 0.0189167 64.7414 0.000234338 65.6295 0L65.846 0.000351643L65.8446 0.478593L65.6295 0.478242C64.7482 0.478462 63.859 0.497027 62.9868 0.533337V0.533342Z" fill="#2C395D"/>
<path d="M142.574 22.5261V177.524C142.572 179.371 141.837 181.141 140.531 182.446C139.225 183.751 137.454 184.485 135.608 184.485H72.6834C71.7686 184.487 70.8625 184.308 70.017 183.959C69.1715 183.609 68.4031 183.097 67.7561 182.45C67.109 181.804 66.5959 181.036 66.2461 180.19C65.8963 179.345 65.7168 178.439 65.7178 177.524V22.5261C65.7177 21.6114 65.8978 20.7056 66.2478 19.8604C66.5979 19.0153 67.1109 18.2474 67.7578 17.6005C68.4046 16.9537 69.1725 16.4406 70.0177 16.0906C70.8628 15.7406 71.7686 15.5605 72.6834 15.5605H82.0999V16.7681C82.0998 18.2892 82.7037 19.748 83.7791 20.8238C84.8544 21.8996 86.313 22.5042 87.8341 22.5046H119.838C121.062 22.5072 122.255 22.1148 123.238 21.3855C123.437 21.2409 123.626 21.0827 123.803 20.9121C124.363 20.3772 124.809 19.734 125.113 19.0217C125.417 18.3094 125.573 17.5427 125.572 16.7681V15.5605H135.608C136.523 15.5603 137.429 15.7402 138.274 16.0902C139.119 16.4402 139.887 16.9532 140.534 17.6001C141.181 18.247 141.694 19.015 142.044 19.8602C142.394 20.7054 142.574 21.6113 142.574 22.5261Z" fill="white"/>
<path d="M133.375 71.436H74.918V115.913H133.375V71.436Z" fill="#EC4A42"/>
<path d="M44.1352 63.9427C49.3398 64.0544 53.48 67.8261 53.48 67.8261C53.48 67.8261 49.1819 71.4168 43.9772 71.3051C38.7726 71.1935 34.6323 67.4218 34.6323 67.4218C34.6323 67.4218 38.9305 63.8311 44.1352 63.9427Z" fill="#EC4A42"/>
<path d="M17.9687 46.177C22.6709 48.4109 28.0628 46.8961 28.0628 46.8961C28.0628 46.8961 25.8309 41.7593 21.1288 39.5254C16.4266 37.2915 11.0347 38.8063 11.0347 38.8063C11.0347 38.8063 13.2665 43.9431 17.9687 46.177Z" fill="#EC4A42"/>
<path d="M18.4468 43.9569C23.6311 43.4831 28.1689 46.7658 28.1689 46.7658C28.1689 46.7658 24.3013 50.8167 19.117 51.2904C13.9328 51.7642 9.39502 48.4815 9.39502 48.4815C9.39502 48.4815 13.2626 44.4307 18.4468 43.9569Z" fill="#2C395D"/>
<path d="M37.4504 44.854C36.9535 50.0361 40.2159 54.5885 40.2159 54.5885C40.2159 54.5885 44.284 50.739 44.7809 45.557C45.2778 40.3749 42.0154 35.8225 42.0154 35.8225C42.0154 35.8225 37.9473 39.672 37.4504 44.854Z" fill="#2C395D"/>
<path d="M61.8658 76.636C59.1467 81.0753 60.0822 86.5972 60.0822 86.5972C60.0822 86.5972 65.4264 84.9217 68.1455 80.4825C70.8647 76.0432 69.9292 70.5212 69.9292 70.5212C69.9292 70.5212 64.585 72.1967 61.8658 76.636Z" fill="#2C395D"/>
<path d="M53.9767 124.901L54.3729 124.633C52.9761 122.606 52.2135 120.21 52.1818 117.749C52.1929 114.148 53.9615 110.818 55.6719 107.597C55.9893 106.999 56.3057 106.403 56.6101 105.808C57.8878 103.38 58.906 100.823 59.648 98.1817C62.3009 88.3227 59.6889 76.691 52.661 67.0668C47.0858 59.4319 38.7748 52.7557 27.2535 46.6565L27.0298 47.0792C38.4855 53.1436 46.7432 59.7739 52.2748 67.3489C59.2182 76.8572 61.8018 88.3371 59.1861 98.0574C58.4528 100.667 57.4467 103.192 56.1844 105.59C55.881 106.183 55.5657 106.777 55.2494 107.373C53.5118 110.645 51.715 114.028 51.7036 117.747C51.7352 120.305 52.5264 122.795 53.9767 124.901Z" fill="#2C395D"/>
<path d="M4.54379 47.2856C7.05298 47.2856 9.08708 45.2515 9.08708 42.7423C9.08708 40.2331 7.05298 38.199 4.54379 38.199C2.03459 38.199 0.000488281 40.2331 0.000488281 42.7423C0.000488281 45.2515 2.03459 47.2856 4.54379 47.2856Z" fill="#2C395D"/>
<path d="M68.4992 116.491L39.9795 114.114V72.2853L68.4992 70.8594V116.491Z" fill="#EC4A42"/>
<path d="M139.792 116.491L168.312 114.114V72.2853L139.792 70.8594V116.491Z" fill="#EC4A42"/>
<path d="M114.059 88.1299C113.211 87.3969 112.165 86.9305 111.053 86.7892C109.94 86.6478 108.811 86.8376 107.806 87.335C106.934 87.7571 105.995 88.0257 105.031 88.129C105.007 86.0412 105.39 83.9688 106.159 82.0276L106.285 81.7021H104.609L104.561 81.8781C104.374 82.5645 104.227 83.2611 104.12 83.9644C104.03 83.6595 103.912 83.3633 103.77 83.079C102.594 80.748 99.8771 79.7945 99.762 79.7552L99.5304 79.6758L99.4565 79.9092C99.4198 80.0252 98.5716 82.7764 99.7472 85.1076C100.589 86.7766 102.22 87.7392 103.122 88.1659C101.981 88.0924 100.866 87.7942 99.8412 87.2884C99.2022 86.9591 98.4833 86.8165 97.7669 86.877C97.0506 86.9374 96.3658 87.1985 95.791 87.6303C92.6613 90.0085 90.8662 93.4947 90.8662 97.195C90.8662 102.056 94.0141 106.507 98.886 108.536C99.3255 108.718 99.7967 108.812 100.272 108.811C100.933 108.811 101.582 108.633 102.15 108.296C102.905 107.857 103.763 107.625 104.636 107.623C105.51 107.621 106.369 107.85 107.126 108.286C107.615 108.575 108.165 108.746 108.732 108.786C109.299 108.826 109.867 108.733 110.392 108.516C115.236 106.48 118.365 102.036 118.365 97.195C118.365 93.73 116.836 90.5106 114.059 88.1299ZM104.975 82.1804H105.59C104.898 84.0344 104.545 85.9979 104.549 87.9769H104.439C104.291 86.0283 104.472 84.0687 104.975 82.1804ZM100.174 84.8923C99.2817 83.1226 99.6732 81.0132 99.8462 80.3015C100.521 80.5847 102.448 81.5214 103.342 83.2943C104.235 85.0638 103.844 87.1728 103.671 87.8849C102.995 87.6007 101.067 86.6616 100.174 84.8923ZM110.207 108.075C109.75 108.264 109.256 108.344 108.764 108.309C108.271 108.274 107.793 108.125 107.368 107.874C106.537 107.394 105.595 107.143 104.635 107.145C103.676 107.147 102.734 107.402 101.906 107.885C101.481 108.137 101.005 108.288 100.512 108.324C100.02 108.36 99.5263 108.282 99.0698 108.094C94.3768 106.141 91.3445 101.862 91.3445 97.195C91.3445 93.6455 93.0706 90.2981 96.0803 88.0111C96.6576 87.575 97.3619 87.3399 98.0855 87.3416C98.6199 87.3413 99.1467 87.4688 99.6219 87.7134C100.932 88.3385 102.364 88.6671 103.815 88.6757C105.266 88.6843 106.702 88.3728 108.019 87.7633C108.94 87.3077 109.974 87.134 110.994 87.2638C112.013 87.3936 112.971 87.8212 113.748 88.493C116.417 90.7813 117.887 93.8717 117.887 97.195C117.887 101.843 114.872 106.114 110.207 108.075Z" fill="white"/>
<path d="M54.1614 83.6112V83.0499H54.3846V81.3009C54.3854 81.1713 54.3506 81.0439 54.2839 80.9327C54.2173 80.8215 54.1214 80.7307 54.0066 80.6703C53.0197 80.1554 51.959 80.156 50.8541 80.6728C50.7322 80.7307 50.6292 80.8221 50.5571 80.9362C50.4851 81.0504 50.4469 81.1827 50.4471 81.3177V83.0499H50.6703V83.5581C49.849 83.7883 49.1259 84.2815 48.6119 84.9621C48.0979 85.6428 47.8214 86.4732 47.8247 87.3261V91.1105L48.2497 91.2522L47.8247 91.5355V92.6727L48.2497 92.8145L47.8247 93.0978V94.2351L48.2497 94.3767L47.8247 94.6601V103.322C47.8255 103.997 48.0942 104.645 48.5719 105.123C49.0497 105.6 49.6974 105.869 50.373 105.87H54.1297C54.8038 105.869 55.45 105.601 55.9267 105.125C56.4033 104.648 56.6714 104.002 56.6722 103.328V94.6601L56.2472 94.3767L56.6722 94.2351V93.0978L56.2472 92.8145L56.6722 92.6727V91.5355L56.2472 91.2522L56.6722 91.1105V87.1307C56.6694 86.3563 56.4263 85.602 55.9766 84.9716C55.5269 84.3412 54.8927 83.8659 54.1614 83.6112ZM51.0566 81.106C52.0333 80.6498 52.926 80.6459 53.7852 81.0944C53.8222 81.1147 53.853 81.1446 53.8743 81.181C53.8956 81.2173 53.9067 81.2588 53.9063 81.301V82.2369H50.9254V81.3178C50.925 81.2737 50.9371 81.2304 50.9603 81.1929C50.9835 81.1554 51.0169 81.1252 51.0566 81.106ZM56.194 90.7658L55.1684 91.1077L56.194 91.7914V92.3281L55.1684 92.6699L56.194 93.3538V93.8904L55.1684 94.2322L56.194 94.916V103.328C56.1933 103.875 55.9756 104.399 55.5887 104.786C55.2017 105.173 54.677 105.391 54.1297 105.392H50.373C49.8242 105.391 49.298 105.173 48.9099 104.785C48.5219 104.397 48.3036 103.87 48.303 103.322V94.916L49.3286 94.2322L48.303 93.8904V93.3538L49.3286 92.6699L48.303 92.3281V91.7914L49.3286 91.1077L48.303 90.7658V87.3261C48.3 86.5486 48.5618 85.7933 49.0453 85.1844C49.5289 84.5756 50.2053 84.1496 50.9633 83.9765L51.1485 83.9336V83.0499H53.6832V83.9657L53.8556 84.0158C54.5288 84.2141 55.12 84.6243 55.5413 85.1855C55.9626 85.7467 56.1915 86.4289 56.194 87.1307V90.7658Z" fill="white"/>
<path d="M166.563 90.1603L165.359 89.9197L165.643 89.3527L165.09 89.2421L165.186 88.6679L164.583 88.5673V88.0226L164.094 87.8828L164.558 87.3024H163.752L163.921 86.8821L163.325 86.7829L163.527 86.0742H162.882V85.4128H162.643C161.89 85.4128 161.47 86.3077 161.332 86.666C157.173 87.3913 145.097 95.7554 143.719 96.7172C143.147 96.5315 142.297 96.9669 142.12 97.0636L141.839 97.2166L142.244 97.6214L142.124 97.9834L142.867 98.262L142.704 98.6687L143.172 99.0589L142.751 99.3744L143.384 99.7541L143.273 100.309L143.98 100.41V100.965L144.39 101.048L144.185 101.764H144.641V102.331H145.085L145.287 102.935L145.494 102.894C145.975 102.798 146.387 102.132 146.548 101.837C150.553 101.122 162.919 92.4219 164.123 91.57C165.528 91.7383 166.044 91.3628 166.1 91.3187L166.328 91.1357L165.782 90.681L166.563 90.1603ZM164.092 91.084L163.999 91.0715L163.922 91.126C163.785 91.2231 150.224 100.831 146.358 101.383L146.234 101.401L146.178 101.513C146.03 101.815 145.829 102.089 145.586 102.322L145.43 101.853H145.119V101.286H144.819L144.992 100.68L144.458 100.574V99.9953L143.841 99.9073L143.919 99.5173L143.607 99.33L143.942 99.0785L143.277 98.5239L143.492 97.9859L142.723 97.6975L142.792 97.4925L142.643 97.3437C143.002 97.1945 143.437 97.0835 143.623 97.1951L143.757 97.2751L143.884 97.1859C144.019 97.0907 157.489 87.6698 161.542 87.1171L161.693 87.0965L161.738 86.9505C161.808 86.7245 162.055 86.1534 162.404 85.958V86.5524H162.893L162.718 87.1665L163.256 87.2562L163.046 87.7807H163.563L163.271 88.1453L164.105 88.3834V88.9724L164.636 89.061L164.543 89.6205L164.935 89.6988L164.652 90.2658L165.337 90.403L164.984 90.6382L165.492 91.0614C165.031 91.1551 164.556 91.1627 164.092 91.084Z" fill="white"/>
<path d="M104.146 136.238C107.976 136.238 111.08 133.133 111.08 129.304C111.08 125.474 107.976 122.369 104.146 122.369C100.316 122.369 97.2114 125.474 97.2114 129.304C97.2114 133.133 100.316 136.238 104.146 136.238Z" fill="#EC4A42"/>
<path d="M108.512 128.619H104.831V124.938H103.461V128.619H99.7798V129.989H103.461V133.67H104.831V129.989H108.512V128.619Z" fill="white"/>
<path d="M126.017 129.543L122.43 127.869V128.826H114.061V130.26H122.43V131.217L126.017 129.543Z" fill="#2C395D"/>
<path d="M82.2749 129.543L85.8617 127.869V128.826H94.231V130.26H85.8617V131.217L82.2749 129.543Z" fill="#2C395D"/>
<path d="M191.784 184.541H16.5083V185.019H191.784V184.541Z" fill="#2C395D"/>
<path d="M127.102 38.1985H81.1904V38.6767H127.102V38.1985Z" fill="#2C395D"/>
<path d="M127.212 168.758H81.3013V169.237H127.212V168.758Z" fill="#2C395D"/>
<path d="M200.981 121.532L199.786 126.076C199.786 126.076 195.481 135.64 199.786 136.119C204.09 136.597 204.329 123.684 204.329 123.684L200.981 121.532Z" fill="#FFB8B8"/>
<path d="M208.394 88.7725L199.786 122.728C199.786 122.728 203.133 123.684 204.807 124.88L208.394 88.7725Z" fill="#EC4A42"/>
<path d="M235.415 114.598L237.806 151.661C237.806 151.661 243.545 166.248 243.306 180.117C243.306 180.117 241.153 185.617 242.827 186.573C244.501 187.53 245.458 188.247 244.501 188.964C243.545 189.682 242.827 191.355 243.545 191.834C244.262 192.312 244.501 193.029 244.262 193.029H237.088C237.088 193.029 238.523 189.443 236.371 188.486C234.219 187.53 235.415 185.138 235.415 185.138L219.393 138.271L206.72 181.312C206.72 181.312 208.872 182.747 207.198 183.465C205.524 184.182 204.807 182.747 205.524 184.182C206.242 185.617 205.285 186.334 205.285 186.573C205.285 186.812 198.112 185.856 198.112 185.856C198.112 185.856 201.699 182.747 200.025 182.03C198.351 181.312 197.634 180.595 198.112 180.117C198.59 179.639 200.503 175.095 200.503 175.095C200.503 175.095 201.459 157.879 201.699 157.161C201.938 156.444 201.699 153.096 201.699 151.422C201.699 149.748 201.459 143.053 202.177 141.379C202.894 139.705 203.612 119.141 207.437 116.75C211.263 114.359 235.415 114.598 235.415 114.598Z" fill="#2C395D"/>
<path d="M205.047 185.377C205.047 185.377 209.829 195.181 206.481 196.377C203.134 197.572 198.829 196.616 197.873 198.05C196.916 199.485 186.395 201.159 186.156 197.572C185.917 193.985 197.634 187.29 197.634 187.29L199.16 184.832L205.047 185.377Z" fill="#2C395D"/>
<path d="M243.784 192.551C243.784 192.551 248.566 202.355 245.219 203.55C241.871 204.746 237.567 203.789 236.61 205.224C235.654 206.659 225.132 208.333 224.893 204.746C224.654 201.159 236.371 194.464 236.371 194.464L237.897 192.006L243.784 192.551Z" fill="#2C395D"/>
<path d="M221.665 69.5237C226.023 69.5237 229.556 65.9908 229.556 61.6327C229.556 57.2746 226.023 53.7417 221.665 53.7417C217.307 53.7417 213.774 57.2746 213.774 61.6327C213.774 65.9908 217.307 69.5237 221.665 69.5237Z" fill="#FFB8B8"/>
<path d="M227.046 65.8171L226.089 72.7516L218.915 78.2514L217.002 75.6211V66.5345L227.046 65.8171Z" fill="#FFB8B8"/>
<path d="M215.807 74.6647C215.807 74.6647 223.219 75.382 227.045 72.7517L234.697 117.946C234.697 117.946 207.677 120.098 206.481 118.663V104.555L211.263 81.5992L215.807 74.6647Z" fill="#2C395D"/>
<path d="M226.387 70.5913L228.958 72.7521C228.958 72.7521 239.48 74.4259 238.762 77.2953L235.893 111.25L236.849 122.728C236.849 122.728 228.719 120.576 222.502 122.728C216.285 124.88 221.224 76.4815 221.224 76.4815C221.224 76.4815 226.924 71.3 226.387 70.5913Z" fill="#EC4A42"/>
<path d="M217.002 73.2078C217.002 73.2078 209.351 78.7292 208.394 82.316C207.438 85.9028 204.329 123.684 204.329 123.684C204.329 123.684 205.764 122.967 206.481 124.162C207.199 125.358 218.198 75.0991 217.002 73.2078Z" fill="#EC4A42"/>
<path d="M238.045 123.206L236.331 128.799C236.331 128.799 235.893 139.227 230.154 137.792C224.415 136.358 231.828 124.163 231.828 124.163L233.502 121.532L238.045 123.206Z" fill="#FFB8B8"/>
<path d="M213.778 61.2884C213.778 61.2884 212.923 60.007 213.252 58.6271C213.448 57.8436 213.526 57.0351 213.482 56.2286C213.482 56.2286 214.172 53.9944 214.862 52.7459C215.552 51.4974 215.223 50.9717 217.392 50.5774C219.56 50.1832 218.673 47.3576 224.39 50.4132C224.583 50.6825 224.851 50.8886 225.161 51.0056C225.471 51.1225 225.809 51.145 226.131 51.0703C227.314 50.8403 227.741 52.4831 227.741 52.4831C227.741 52.4831 228.53 52.0231 228.826 52.6802C229.121 53.3373 231.23 52.2858 231.23 56.7213C231.23 61.1569 228.83 65.1189 228.83 65.1189C228.83 65.1189 229.006 57.6578 225.096 56.9022C221.187 56.1465 216.981 53.9452 215.963 56.7707C215.413 58.3566 214.68 59.8728 213.778 61.2884Z" fill="#2C395D"/>
<path d="M228.917 63.0627C229.343 63.0627 229.688 62.6023 229.688 62.0344C229.688 61.4665 229.343 61.0061 228.917 61.0061C228.491 61.0061 228.146 61.4665 228.146 62.0344C228.146 62.6023 228.491 63.0627 228.917 63.0627Z" fill="#FFB8B8"/>
<path d="M236.849 75.6215C236.849 75.6215 240.675 74.665 241.871 81.1213C243.066 87.5775 244.501 105.99 244.501 105.99L238.762 125.359C238.762 125.359 233.023 122.25 231.828 122.728L236.344 105.913L232.545 88.7732C232.545 88.7732 235.893 75.6215 236.849 75.6215Z" fill="#EC4A42"/>
<path opacity="0.15" d="M231.287 89.1003L236.308 105.839L231.287 122.816L234.156 105.839L231.287 89.1003Z" fill="black"/>
</g>
<defs>
<clipPath id="clip0">
<rect width="246.408" height="206.894" fill="white"/>
</clipPath>
</defs>
</svg>
