<svg width="251" height="207" viewBox="0 0 251 207" fill="none" xmlns="http://www.w3.org/2000/svg">
<path d="M232.59 178.098C232.59 178.098 193.299 160.011 207.102 147.468C220.905 134.925 232.59 178.098 232.59 178.098Z" fill="white"/>
<path d="M231.906 182.319C231.906 182.319 213.846 122.982 240.439 125.82C267.032 128.657 231.906 182.319 231.906 182.319Z" fill="white"/>
<path d="M218.738 177.056L219.496 186.982L219.508 187.154C219.508 188.704 219.586 190.253 219.743 191.795C220.772 201.919 225.193 206.533 230.361 206.533C235.528 206.533 239.757 201.919 240.786 191.795C240.943 190.253 241.021 188.704 241.02 187.154L241.026 187.015L241.029 186.982L241.79 177.056H218.738Z" fill="white"/>
<path d="M241.03 186.982L241.027 187.015L241.021 187.154C241.021 188.704 240.943 190.253 240.786 191.795H219.743C219.586 190.253 219.508 188.704 219.509 187.154L219.497 186.982H241.03Z" fill="white"/>
<path d="M10.5703 186.736C10.5703 186.736 -4.03947 180.011 1.09294 175.347C6.22535 170.683 10.5703 186.736 10.5703 186.736Z" fill="white"/>
<path d="M0.89502 186.024L1.4224 192.93L1.43077 193.049C1.43028 194.128 1.48476 195.206 1.59402 196.279C2.30974 203.323 5.38611 206.533 8.98149 206.533C12.5769 206.533 15.5193 203.323 16.235 196.279C16.3443 195.206 16.3988 194.128 16.3983 193.049L16.4025 192.953L16.4046 192.93L16.934 186.024L0.89502 186.024Z" fill="white"/>
<path d="M164.013 86.0009C164.561 85.6222 164.992 85.0976 165.257 84.4864C165.522 83.8752 165.61 83.2021 165.512 82.5432C165.414 81.8843 165.133 81.2662 164.701 80.7588C164.27 80.2515 163.704 79.8753 163.07 79.6728L154.89 77.064L150.396 80.959L160.318 86.2178C160.894 86.5234 161.544 86.6649 162.196 86.6266C162.847 86.5884 163.476 86.3719 164.013 86.0009Z" fill="#FFB9B9"/>
<path d="M150.257 83.5022L155.65 77.2495L135.57 55.2733L126.325 33.8387C125.716 32.4264 124.632 31.2719 123.26 30.5757C121.888 29.8794 120.316 29.6854 118.817 30.0272C117.836 30.2507 116.92 30.696 116.138 31.329C115.356 31.9619 114.729 32.7655 114.306 33.6782C113.883 34.5909 113.675 35.5884 113.698 36.5941C113.721 37.5998 113.973 38.5869 114.437 39.4797L126.503 62.7222L150.257 83.5022Z" fill="#EC4A42"/>
<path d="M163.14 166.33L162.106 164.726H160.198V164.026H162.488L163.728 165.951L163.14 166.33Z" fill="#2C395D"/>
<path d="M158.857 164.726H154.835V164.026H158.857V164.726ZM153.494 164.726H149.472V164.026H153.494V164.726ZM148.131 164.726H144.109V164.026H148.131L148.131 164.726ZM142.768 164.726H138.746V164.026H142.768V164.726ZM137.405 164.726H133.383V164.026H137.405V164.726ZM132.042 164.726L128.315 164.723L127.976 164.678L128.069 163.984L128.385 164.026H132.042V164.726ZM126.647 164.501L122.66 163.972L122.752 163.278L126.74 163.808L126.647 164.501ZM121.331 163.795L117.344 163.265L117.436 162.571L121.423 163.101L121.331 163.795ZM116.015 163.088L112.027 162.559L112.12 161.865L116.107 162.395L116.015 163.088ZM110.698 162.382L106.711 161.852L106.803 161.159L110.79 161.689L110.698 162.382Z" fill="#2C395D"/>
<path d="M103.637 163.161L102.938 163.141L103.009 160.654L105.474 160.982L105.382 161.676L103.686 161.451L103.637 163.161Z" fill="#2C395D"/>
<path d="M103.102 181.893L102.402 181.873L102.536 177.19L103.235 177.21L103.102 181.893ZM103.28 175.649L102.581 175.629L102.714 170.946L103.414 170.966L103.28 175.649ZM103.458 169.405L102.759 169.385L102.893 164.702L103.592 164.721L103.458 169.405Z" fill="#2C395D"/>
<path d="M102.287 185.921L102.358 183.434L103.057 183.453L103.008 185.163L104.713 185.031L104.767 185.728L102.287 185.921Z" fill="#2C395D"/>
<path d="M106.107 185.624L106.052 184.927L110.069 184.614L110.124 185.312L106.107 185.624ZM111.462 185.208L111.408 184.51L115.425 184.198L115.479 184.896L111.462 185.208ZM116.818 184.792L116.764 184.094L120.781 183.782L120.835 184.48L116.818 184.792ZM122.174 184.376L122.12 183.678L126.137 183.366L126.191 184.064L122.174 184.376ZM127.53 183.96L127.476 183.262L131.493 182.95L131.547 183.647L127.53 183.96ZM132.886 183.544L132.832 182.846L136.849 182.534L136.903 183.231L132.886 183.544ZM138.242 183.127L138.188 182.43L142.205 182.118L142.259 182.815L138.242 183.127ZM143.598 182.711L143.544 182.014L147.56 181.701L147.614 182.399L143.598 182.711ZM148.953 182.295L148.899 181.598L152.917 181.285L152.971 181.983L148.953 182.295ZM154.309 181.879L154.255 181.181L158.272 180.869L158.326 181.567L154.309 181.879ZM159.665 181.463L159.611 180.765L163.628 180.453L163.682 181.151L159.665 181.463ZM165.021 181.047L164.967 180.349L168.984 180.037L169.038 180.735L165.021 181.047Z" fill="#2C395D"/>
<path d="M170.377 180.631L170.323 179.933L171.831 179.816L171.012 178.545L171.6 178.166L173.054 180.423L170.377 180.631Z" fill="#2C395D"/>
<path d="M170.137 177.187L167.513 173.116L168.102 172.737L170.725 176.808L170.137 177.187ZM166.639 171.759L164.015 167.687L164.603 167.308L167.227 171.38L166.639 171.759Z" fill="#2C395D"/>
<path d="M157.224 195.688C170.363 195.688 181.014 185.037 181.014 171.898C181.014 158.759 170.363 148.108 157.224 148.108C144.086 148.108 133.435 158.759 133.435 171.898C133.435 185.037 144.086 195.688 157.224 195.688Z" fill="#EC4A42"/>
<path d="M176.816 199.536L142.006 137.787L134.309 145.484L168.594 199.361L176.816 199.536Z" fill="#2C395D"/>
<path d="M71.3359 197.962L149.528 118.72L156 131.49L81.8315 201.46L71.3359 197.962Z" fill="#2C395D"/>
<path d="M103.172 189.565C111.867 189.565 118.916 182.517 118.916 173.822C118.916 165.127 111.867 158.079 103.172 158.079C94.4777 158.079 87.4292 165.127 87.4292 173.822C87.4292 182.517 94.4777 189.565 103.172 189.565Z" fill="#2C395D"/>
<path d="M82.1814 178.37C82.0886 178.37 81.9997 178.407 81.9341 178.473C81.8685 178.538 81.8316 178.627 81.8315 178.72V181.519C81.8316 181.612 81.8685 181.7 81.9341 181.766C81.9997 181.832 82.0886 181.869 82.1814 181.869H90.9277C91.0204 181.869 91.1094 181.832 91.1749 181.766C91.2405 181.7 91.2774 181.612 91.2775 181.519V178.72C91.2774 178.627 91.2405 178.538 91.1749 178.473C91.1094 178.407 91.0204 178.37 90.9277 178.37H82.1814Z" fill="#EC4A42"/>
<path d="M102.298 139.362C102.205 139.362 102.116 139.399 102.05 139.464C101.985 139.53 101.948 139.619 101.948 139.712V142.51C101.948 142.603 101.985 142.692 102.05 142.758C102.116 142.823 102.205 142.86 102.298 142.86H111.044C111.137 142.86 111.226 142.823 111.291 142.758C111.357 142.692 111.394 142.603 111.394 142.51V139.712C111.394 139.619 111.357 139.53 111.291 139.464C111.226 139.399 111.137 139.362 111.044 139.362H102.298Z" fill="#EC4A42"/>
<path d="M144.805 133.589H135.708V126.592L139.207 125.193L144.805 129.391V133.589Z" fill="#2C395D"/>
<path d="M136.859 123.421L135.911 123.869L137.706 127.664L138.655 127.216L136.859 123.421Z" fill="#2C395D"/>
<path d="M137.865 118.88C137.799 118.88 137.733 118.899 137.677 118.936L131.498 122.91C131.42 122.96 131.365 123.039 131.345 123.13C131.326 123.221 131.343 123.315 131.393 123.393L132.907 125.747C132.957 125.825 133.036 125.88 133.127 125.9C133.217 125.919 133.312 125.902 133.39 125.852L139.57 121.878V121.878C139.648 121.828 139.702 121.749 139.722 121.658C139.742 121.567 139.725 121.473 139.675 121.395L138.161 119.041C138.136 119.002 138.104 118.969 138.066 118.942C138.028 118.916 137.986 118.898 137.941 118.888C137.916 118.883 137.891 118.88 137.865 118.88Z" fill="#EC4A42"/>
<path d="M151.802 132.89L144.63 98.0793L153.026 96.6799L158.751 124.722C158.997 125.739 158.999 126.799 158.757 127.817C158.515 128.834 158.035 129.78 157.357 130.577C156.68 131.373 155.823 131.998 154.857 132.4C153.892 132.802 152.845 132.97 151.802 132.89Z" fill="#2C395D"/>
<path d="M178.226 91.2204L169.92 90.6271C169.809 90.6192 169.702 90.5849 169.607 90.5271C169.512 90.4692 169.432 90.3895 169.373 90.2946C169.315 90.1997 169.281 90.0922 169.272 89.9812C169.264 89.8702 169.282 89.7588 169.326 89.6563L181.391 61.1693C181.436 61.0621 181.508 60.9679 181.599 60.8953C181.69 60.8226 181.798 60.7739 181.912 60.7534L190.105 59.2904C190.227 59.2686 190.353 59.2797 190.47 59.3228C190.587 59.3658 190.69 59.4392 190.769 59.5353C190.848 59.6315 190.9 59.7469 190.919 59.8697C190.938 59.9926 190.925 60.1184 190.879 60.2342L178.928 90.7775C178.873 90.9164 178.776 91.0344 178.65 91.1141C178.524 91.1938 178.375 91.231 178.226 91.2204Z" fill="#2C395D"/>
<path d="M171.043 88.4585L177.691 89.1582L188.536 61.8699L181.539 62.9194L171.043 88.4585Z" fill="#EC4A42"/>
<path d="M98.6241 163.327L89.8778 172.073L77.2832 117.146L84.2802 118.196L98.6241 163.327Z" fill="#2C395D"/>
<path d="M88.4319 118.113L86.9211 117.659C83.9529 118.968 80.7233 119.576 77.4824 119.436C76.7824 119.406 76.121 119.107 75.6374 118.6C75.1539 118.093 74.8858 117.418 74.8897 116.718C74.8897 115.996 75.1763 115.304 75.6864 114.794C76.1966 114.284 76.8885 113.998 77.6099 113.998H90.8053C91.1625 113.998 91.5051 114.139 91.7577 114.392C92.0103 114.645 92.1522 114.987 92.1522 115.344C92.1522 115.795 92.0469 116.239 91.8446 116.642C91.6424 117.044 91.3488 117.394 90.9874 117.663C90.6259 117.932 90.2066 118.113 89.7629 118.191C89.3192 118.269 88.8634 118.242 88.4319 118.113Z" fill="#2C395D"/>
<path d="M172.012 83.7629C171.674 83.7624 171.346 83.8733 171.077 84.0783L160.336 92.2918L148.313 93.8599C146.243 94.13 144.81 96.3818 144.63 98.4292L158.782 96.4638C160.748 96.2743 162.606 95.4769 164.098 94.1825L173.02 86.4663C173.258 86.261 173.427 85.9879 173.505 85.6836C173.583 85.3792 173.566 85.0583 173.457 84.764C173.347 84.4696 173.15 84.2159 172.891 84.0369C172.633 83.858 172.326 83.7624 172.012 83.7629Z" fill="#2C395D"/>
<path d="M166.764 78.5151C166.426 78.5146 166.098 78.6255 165.829 78.8305L155.088 87.044L143.065 88.6121C140.995 88.8822 139.562 91.134 139.382 93.1814L153.534 91.216C155.5 91.0265 157.358 90.2291 158.85 88.9347L167.772 81.2185C168.01 81.0132 168.179 80.7401 168.257 80.4358C168.335 80.1314 168.318 79.8105 168.209 79.5162C168.099 79.2218 167.902 78.9681 167.643 78.7891C167.385 78.6102 167.078 78.5146 166.764 78.5151Z" fill="#2C395D"/>
<path d="M173.318 99.6536C170.817 99.6483 168.351 99.0563 166.121 97.9251C163.89 96.7939 161.956 95.155 160.474 93.1403L161.884 92.1058C163.015 93.6511 164.448 94.9511 166.096 95.9271C167.744 96.9031 169.572 97.5349 171.471 97.7844C173.37 98.0339 175.3 97.8958 177.144 97.3786C178.988 96.8613 180.708 95.9756 182.2 94.775C183.692 93.5744 184.925 92.0837 185.825 90.3931C186.725 88.7025 187.273 86.847 187.435 84.9387C187.598 83.0305 187.372 81.1091 186.771 79.2905C186.171 77.472 185.207 75.7942 183.94 74.3584L185.251 73.2002C187.279 75.4973 188.601 78.3308 189.058 81.3607C189.515 84.3905 189.088 87.4878 187.828 90.2809C186.568 93.074 184.528 95.444 181.955 97.1066C179.381 98.7691 176.382 99.6535 173.318 99.6536V99.6536Z" fill="#2C395D"/>
<path d="M185.562 197.787H61.7148V206.533H185.562V197.787Z" fill="#2C395D"/>
<path d="M155.212 95.0011C155.83 94.7537 156.367 94.3379 156.761 93.8009C157.155 93.2639 157.391 92.6272 157.442 91.963C157.492 91.2988 157.356 90.6337 157.048 90.0431C156.74 89.4525 156.272 88.9601 155.698 88.6217L148.303 84.2603L143.055 87.0591L151.561 94.3913C152.055 94.8175 152.657 95.0998 153.301 95.2073C153.945 95.3148 154.605 95.2435 155.212 95.0011Z" fill="#FFB9B9"/>
<path d="M97.2247 125.893L102.123 128.691L132.366 106.43C133.475 105.672 134.416 104.693 135.129 103.555C135.841 102.416 136.311 101.142 136.507 99.8133C136.753 98.1333 136.558 96.4182 135.939 94.837C135.321 93.2557 134.301 91.8628 132.981 90.7953C126.302 85.3705 118.047 80.45 109.295 75.689L96.3501 81.9863C101.685 92.9248 107.607 101.943 116.292 101.928L97.2247 125.893Z" fill="#2C395D"/>
<path d="M95.0896 133.019C99.1533 137.136 104.505 140.082 110.482 142.458C110.932 142.636 111.427 142.671 111.898 142.556C112.369 142.442 112.792 142.184 113.111 141.819C113.498 141.376 113.703 140.803 113.687 140.215C113.671 139.627 113.434 139.066 113.024 138.645L109.149 134.668L106.808 126.33C101.782 128.815 98.4855 128.259 97.8357 123.053L94.6672 127.374C94.0548 128.212 93.7609 129.24 93.8383 130.274C93.9158 131.309 94.3594 132.282 95.0896 133.019Z" fill="#2F2E41"/>
<path d="M81.4817 169.974L88.8285 170.324L105.621 83.9105L76.7587 74.6394C73.877 85.4132 78.1555 103.048 85.6799 123.793L81.4817 169.974Z" fill="#2C395D"/>
<path d="M137.983 27.4095C144.359 27.4095 149.528 22.2406 149.528 15.8644C149.528 9.48825 144.359 4.31934 137.983 4.31934C131.606 4.31934 126.438 9.48825 126.438 15.8644C126.438 22.2406 131.606 27.4095 137.983 27.4095Z" fill="#FFB9B9"/>
<path d="M116.816 30.0334L124.163 35.2811L135.359 24.0859L129.761 17.0889L116.816 30.0334Z" fill="#FFB9B9"/>
<path d="M75.5342 75.5139C84.5947 82.8973 94.4888 87.7506 106.671 85.6596C110.352 79.7743 113.07 67.3768 117.691 62.0446C127.783 50.4004 132.788 40.0215 129.586 30.558C126.474 28.5233 126.611 28.5267 124.338 21.8118C106.539 25.1048 89.3074 45.1975 75.5342 75.5139Z" fill="#EC4A42"/>
<path d="M81.3641 177.174C86.5936 179.647 92.6305 180.578 99.06 180.759C99.5445 180.773 100.021 180.635 100.424 180.366C100.827 180.097 101.137 179.71 101.311 179.257C101.522 178.708 101.519 178.1 101.302 177.553C101.085 177.006 100.67 176.561 100.14 176.306L95.1361 173.899L90.0771 166.871C86.2077 170.929 82.9209 171.538 80.5247 166.871L79.0308 172.017C78.7428 173.013 78.8195 174.08 79.2472 175.025C79.6748 175.97 80.4254 176.732 81.3641 177.174Z" fill="#2F2E41"/>
<path d="M142.356 89.5079L149.003 84.61L134.309 58.721L130.059 35.7679C129.779 34.2555 128.978 32.8889 127.795 31.9052C126.613 30.9216 125.123 30.3831 123.585 30.3831C122.579 30.3831 121.587 30.6136 120.684 31.0569C119.781 31.5002 118.991 32.1446 118.376 32.9405C117.761 33.7364 117.336 34.6626 117.135 35.6482C116.933 36.6337 116.96 37.6523 117.214 38.6258L123.814 63.9688L142.356 89.5079Z" fill="#EC4A42"/>
<path d="M108.945 142.51H105.097V163.501H108.945V142.51Z" fill="#2C395D"/>
<path d="M147.121 12.516C147.573 13.0577 148.152 13.4785 148.808 13.7403C149.463 14.0021 150.173 14.0967 150.874 14.0156C152.263 13.799 153.5 12.6135 153.589 11.2098C153.666 9.99767 152.954 8.88594 152.206 7.92877C150.556 5.81806 148.597 3.96868 146.395 2.44322C145.345 1.71624 144.186 1.04701 142.912 0.968634C142.281 0.929853 141.649 1.03858 141.017 1.01145C139.856 0.961565 138.768 0.45922 137.636 0.199032C136.473 -0.0600083 135.268 -0.066265 134.103 0.180685C132.937 0.427634 131.839 0.922027 130.881 1.63042C130.242 2.11845 129.664 2.68155 129.16 3.30757C127.766 5.01318 126.83 7.04704 126.443 9.2159C125.835 12.6538 126.594 16.4243 124.942 19.5002C126.881 19.3191 128.435 17.8411 130.277 17.2093C131.643 16.7454 133.126 16.7586 134.484 17.2468C134.834 17.4261 135.229 17.4999 135.62 17.4591C135.943 17.3451 136.225 17.1387 136.432 16.8655L139.953 13.0338C140.67 12.254 141.484 11.4233 142.537 11.3153C143.166 11.2935 143.792 11.4176 144.365 11.6778C145.777 12.2117 147.143 12.8607 148.448 13.6181" fill="#2F2E41"/>
<path d="M140.431 92.4817L139.382 93.1814L146.379 100.178L150.577 96.33L143.58 90.7324L140.431 92.4817Z" fill="#2C395D"/>
</svg>
